<?xml version="1.0" encoding="UTF-8"?><svg id="uuid-b8d3e682-d745-491a-9ddb-8c3b896b9226" xmlns="http://www.w3.org/2000/svg" viewBox="0 0 64 64"><g id="uuid-06bf3b0b-5fcd-4b15-9ed1-f3e6056a5a53"><g id="uuid-bb211310-5abb-4b83-a3f2-061c48f0391a"><g id="uuid-5c4c3381-09c1-4b0c-92af-16d461df295a"><g id="uuid-54b41d4d-7b4f-46b4-98c0-af048aa8018f"><path id="uuid-e973924d-0a19-41e5-a471-7cad85bfdc63" d="m22.76,38.13c1.07,2.08.25,4.64-1.83,5.71s-4.64.25-5.71-1.83-.25-4.64,1.83-5.71,4.64-.25,5.71,1.83Z" style="fill:none; stroke:#0e185f; stroke-linecap:round; stroke-linejoin:round; stroke-width:2px;"/></g><g id="uuid-c26734d0-32a9-459a-b484-cc7ca2ede507"><path id="uuid-58341cb1-1e57-469d-852e-d810a23d6c2b" d="m47.85,25.22c1.07,2.08.25,4.64-1.83,5.71s-4.64.25-5.71-1.83-.25-4.64,1.83-5.71,4.64-.25,5.71,1.83Z" style="fill:none; stroke:#0e185f; stroke-linecap:round; stroke-linejoin:round; stroke-width:2px;"/></g><g id="uuid-dc9227e0-7ccf-444e-87f5-8894908983f2"><path id="uuid-143e5da5-9e5e-4103-85be-c77d28e9629c" d="m15.22,42.01l-1.25.64c-1.45.75-3.23.18-3.98-1.28l-2.66-5.17c-.36-.7-.43-1.51-.19-2.25l3.06-9.56c.61-1.89,1.94-3.47,3.71-4.38l10.89-5.6c1.11-.57,2.39-.68,3.58-.3l9.95,3.19,7.79-1.26c1.05-.17,2.09.36,2.58,1.3l1.9,3.69c.62,1.21.15,2.69-1.06,3.31l-1.69.87" style="fill:none; stroke:#0e185f; stroke-linecap:round; stroke-linejoin:round; stroke-width:2px;"/></g><g id="uuid-c27e0b9e-5cd2-4431-a6c2-ec55d6363f5b"><path id="uuid-519096c0-94a4-4586-bea0-9f5384207a8c" d="m22.76,38.13l17.55-9.03" style="fill:none; stroke:#0e185f; stroke-linecap:round; stroke-linejoin:round; stroke-width:2px;"/></g><g id="uuid-65baed8c-2b82-4155-b7eb-6c7463309aae"><path id="uuid-50ede35e-9adf-4934-bae1-29fb88a0e6c9" d="m11.46,22.05l1.27,2.47c1.34,2.61,4.54,3.63,7.15,2.29l18.46-9.5" style="fill:none; stroke:#0e185f; stroke-linecap:round; stroke-linejoin:round; stroke-width:2px;"/></g><g id="uuid-5c9aba82-5b91-4def-94bd-206ac6ba4adb"><path id="uuid-5725050c-725a-43db-abbb-a3dd81bde8ee" d="m26.32,23.49l-4.01-7.79" style="fill:none; stroke:#0e185f; stroke-linecap:round; stroke-linejoin:round; stroke-width:2px;"/></g><g id="uuid-12c764ee-2d1d-4cb7-8ac4-75d1f6295974"><path id="uuid-5e79569a-2319-40b1-991a-1b54b6e7fa07" d="m30.96,26.41l2.24-1.15" style="fill:none; stroke:#0e185f; stroke-linecap:round; stroke-linejoin:round; stroke-width:2px;"/></g></g></g></g><line x1="14.17" y1="50.1" x2="57" y2="27.8" style="fill:none; stroke:#0e185f; stroke-linecap:round; stroke-linejoin:round; stroke-width:2px;"/></svg>