<?xml version="1.0" encoding="UTF-8"?>
<svg id="Layer_1" data-name="Layer 1" xmlns="http://www.w3.org/2000/svg" viewBox="0 0 64 64">
  <defs>
    <style>
      .cls-1 {
        fill: none;
        stroke: #000;
        stroke-linecap: round;
        stroke-linejoin: round;
        stroke-width: 2px;
      }
    </style>
  </defs>
  <g>
    <g id="g3779">
      <path id="path3781" class="cls-1" d="m53.21,32.78c-3.03,0-6.56,3.53-6.56,6.56,0-3.03-3.53-6.56-6.56-6.56,3.03,0,6.56-3.53,6.56-6.56,0,3.03,3.53,6.56,6.56,6.56Z"/>
    </g>
    <g id="g3783">
      <path id="path3785" class="cls-1" d="m25.73,28.02c-3.03,0-6.56,3.53-6.56,6.56,0-3.03-3.53-6.56-6.56-6.56,3.03,0,6.56-3.53,6.56-6.56,0,3.03,3.53,6.56,6.56,6.56Z"/>
    </g>
  </g>
  <g id="g4536">
    <g id="g4538">
      <g id="g4540">
        <g id="g4546">
          <path id="path4548" class="cls-1" d="m18.37,53.45c0,2.51-2.03,4.54-4.54,4.54s-4.54-2.03-4.54-4.54,2.03-4.54,4.54-4.54,4.54,2.03,4.54,4.54Z"/>
        </g>
        <g id="g4550">
          <path id="path4552" class="cls-1" d="m18.37,55.27h26.35"/>
        </g>
        <g id="g4554">
          <path id="path4556" class="cls-1" d="m14.47,52.81l-1.28,1.28"/>
        </g>
        <g id="g4558">
          <path id="path4560" class="cls-1" d="m53.8,53.45c0,2.51-2.03,4.54-4.54,4.54s-4.54-2.03-4.54-4.54,2.03-4.54,4.54-4.54,4.54,2.03,4.54,4.54Z"/>
        </g>
        <g id="g4562">
          <path id="path4564" class="cls-1" d="m48.62,52.81l1.28,1.28"/>
        </g>
        <g>
          <g id="g4566">
            <path id="path4568" class="cls-1" d="m23.94,45.68l-1.28-.18c-.9-.13-1.56-.89-1.56-1.8v-1.15"/>
          </g>
          <g id="g4570">
            <path id="path4572" class="cls-1" d="m53.8,55.27h4.54c1,0,1.82-.81,1.82-1.82v-2.09c0-.87-.41-1.68-1.11-2.19-1.87-1.37-5.83-3.89-9.8-3.89-3.15,0-6.29,1.31-7.93,2.11-.81.4-1.72.53-2.62.41l-14.78-2.11"/>
          </g>
        </g>
        <g id="g4574">
          <path id="path4576" class="cls-1" d="m9.29,54.36l-3.59-1.2c-1.11-.37-1.86-1.41-1.86-2.59v-5.52l23.41-3.38c4.31-.62,8.7-.13,12.77,1.43l5.61,2.16"/>
        </g>
        <g id="g4578">
          <path id="path4580" class="cls-1" d="m21.1,48.91l1.93,1.93c.51.51,1.2.8,1.93.8h19.77"/>
        </g>
        <g id="g4582">
          <path id="path4584" class="cls-1" d="m57.44,50.72h2.27"/>
        </g>
      </g>
    </g>
  </g>
</svg>