<?xml version="1.0" encoding="UTF-8"?><svg xmlns="http://www.w3.org/2000/svg" viewBox="0 0 392.65 83.64"><defs><style>.d{fill:#ca2129;}.e{fill:#006aa4;}</style></defs><g id="a"/><g id="b"><g id="c"><g><g><path d="M138.93,55.98c-6.98-6.13-8.84-14.11-8.84-21.03,0-4.85,1.5-13.26,8.34-19.53,5.13-4.7,11.9-7.55,22.52-7.55,4.42,0,7.06,.29,10.33,.71,2.71,.36,4.99,1,7.13,1.21,.78,.07,1.07,.43,1.07,.86,0,.57-.21,1.43-.36,3.92-.14,2.35-.07,6.27-.21,7.7-.07,1.07-.21,1.64-.86,1.64-.57,0-.71-.57-.71-1.57-.07-2.21-1-4.7-2.78-6.56-2.35-2.49-7.91-4.42-14.47-4.42-6.2,0-10.26,1.57-13.4,4.42-5.2,4.78-6.56,11.55-6.56,18.46,0,16.96,12.9,25.37,22.45,25.37,6.34,0,10.19-.71,13.04-3.99,1.21-1.35,2.14-3.42,2.42-4.7,.21-1.14,.36-1.43,.93-1.43,.5,0,.64,.5,.64,1.07,0,.86-.86,7.06-1.57,9.48-.36,1.21-.64,1.57-1.85,2.07-2.85,1.14-8.27,1.64-12.83,1.64-9.76,0-17.96-2.14-24.45-7.77Z"/><path d="M204.43,12.86l-10.62,.29c-4.13,.14-5.84,.5-6.91,2.07-.71,1.07-1.07,1.92-1.21,2.49s-.36,.86-.78,.86c-.5,0-.64-.36-.64-1.14,0-1.14,1.35-7.63,1.5-8.2,.21-.93,.43-1.35,.86-1.35,.57,0,1.28,.71,3.06,.86,2.07,.21,4.78,.36,7.13,.36h28.22c2.28,0,3.85-.21,4.92-.36,1.07-.21,1.64-.36,1.92-.36,.5,0,.57,.43,.57,1.5,0,1.5-.21,6.41-.21,8.27-.07,.71-.21,1.14-.64,1.14-.57,0-.71-.36-.78-1.43l-.07-.78c-.14-1.85-2.07-3.85-8.41-3.99l-8.98-.21v29.22c0,6.56,0,12.19,.36,15.25,.21,2,.64,3.56,2.78,3.85,1,.14,2.57,.29,3.63,.29,.78,0,1.14,.21,1.14,.57,0,.5-.57,.71-1.35,.71-4.7,0-9.19-.21-11.19-.21-1.64,0-6.13,.21-8.98,.21-.93,0-1.43-.21-1.43-.71,0-.36,.28-.57,1.14-.57,1.07,0,1.92-.14,2.57-.29,1.43-.29,1.85-1.85,2.07-3.92,.36-2.99,.36-8.62,.36-15.18V12.86Z"/><path d="M245.98,29.54c0-10.83,0-12.83-.14-15.11-.14-2.42-.71-3.56-3.06-4.06-.57-.14-1.78-.21-2.78-.21-.78,0-1.21-.14-1.21-.64s.5-.64,1.57-.64c3.78,0,8.27,.21,10.26,.21,2.92,0,7.06-.21,10.33-.21,8.91,0,12.12,2.99,13.26,4.06,1.57,1.5,3.56,4.7,3.56,8.48,0,10.12-7.41,17.25-17.53,17.25-.36,0-1.14,0-1.5-.07-.36-.07-.86-.14-.86-.64,0-.57,.5-.78,2-.78,3.99,0,9.55-4.49,9.55-11.76,0-2.35-.21-7.13-4.21-10.69-2.57-2.35-5.49-2.78-7.13-2.78-1.07,0-2.14,.07-2.78,.29-.36,.14-.57,.57-.57,1.35v28.51c0,6.56,0,12.19,.36,15.25,.21,2,.64,3.56,2.78,3.85,1,.14,2.57,.29,3.63,.29,.78,0,1.14,.21,1.14,.57,0,.5-.57,.71-1.35,.71-4.7,0-9.19-.21-11.05-.21-1.64,0-6.13,.21-8.98,.21-.93,0-1.43-.21-1.43-.71,0-.36,.29-.57,1.14-.57,1.07,0,1.92-.14,2.57-.29,1.43-.29,1.78-1.85,2.07-3.92,.36-2.99,.36-8.62,.36-15.18v-12.54Z"/><path d="M292.38,44.15c-.36,0-.5,.14-.64,.57l-3.85,10.19c-.71,1.78-1.07,3.49-1.07,4.35,0,1.28,.64,2.21,2.85,2.21h1.07c.86,0,1.07,.14,1.07,.57,0,.57-.43,.71-1.21,.71-2.28,0-5.35-.21-7.56-.21-.78,0-4.7,.21-8.41,.21-.93,0-1.35-.14-1.35-.71,0-.43,.29-.57,.86-.57,.64,0,1.64-.07,2.21-.14,3.28-.43,4.63-2.85,6.06-6.41l17.89-44.76c.86-2.07,1.28-2.85,2-2.85,.64,0,1.07,.64,1.78,2.28,1.71,3.92,13.11,33,17.68,43.83,2.71,6.41,4.78,7.41,6.27,7.77,1.07,.21,2.14,.29,2.99,.29,.57,0,.93,.07,.93,.57,0,.57-.64,.71-3.28,.71s-7.77,0-13.47-.14c-1.28-.07-2.14-.07-2.14-.57,0-.43,.29-.57,1-.64,.5-.14,1-.78,.64-1.64l-5.7-15.11c-.14-.36-.36-.5-.71-.5h-15.89Zm14.54-3.56c.36,0,.43-.21,.36-.43l-6.41-17.6c-.07-.29-.14-.64-.36-.64s-.36,.36-.43,.64l-6.56,17.53c-.07,.29,0,.5,.29,.5h13.11Z"/><path d="M344.69,12.86l-10.62,.29c-4.13,.14-5.84,.5-6.91,2.07-.71,1.07-1.07,1.92-1.21,2.49-.14,.57-.36,.86-.78,.86-.5,0-.64-.36-.64-1.14,0-1.14,1.35-7.63,1.5-8.2,.21-.93,.43-1.35,.86-1.35,.57,0,1.28,.71,3.06,.86,2.07,.21,4.78,.36,7.13,.36h28.22c2.28,0,3.85-.21,4.92-.36,1.07-.21,1.64-.36,1.92-.36,.5,0,.57,.43,.57,1.5,0,1.5-.21,6.41-.21,8.27-.07,.71-.21,1.14-.64,1.14-.57,0-.71-.36-.78-1.43l-.07-.78c-.14-1.85-2.07-3.85-8.41-3.99l-8.98-.21v29.22c0,6.56,0,12.19,.36,15.25,.21,2,.64,3.56,2.78,3.85,1,.14,2.57,.29,3.63,.29,.78,0,1.14,.21,1.14,.57,0,.5-.57,.71-1.35,.71-4.7,0-9.19-.21-11.19-.21-1.64,0-6.13,.21-8.98,.21-.93,0-1.43-.21-1.43-.71,0-.36,.29-.57,1.14-.57,1.07,0,1.92-.14,2.57-.29,1.43-.29,1.85-1.85,2.07-3.92,.36-2.99,.36-8.62,.36-15.18V12.86Z"/></g><g><path d="M128.16,74.78h1.36l2.48,4.14,2.48-4.14h1.37l-3.26,5.14v3.47h-1.17v-3.47l-3.26-5.14Z"/><path d="M144.33,76.01c.57,.76,.86,1.74,.86,2.93,0,1.29-.33,2.35-.98,3.21-.77,1-1.86,1.5-3.28,1.5-1.32,0-2.37-.44-3.12-1.31-.68-.84-1.01-1.91-1.01-3.2,0-1.16,.29-2.16,.87-2.99,.74-1.06,1.84-1.59,3.29-1.59s2.65,.49,3.38,1.47Zm-1.03,5.49c.46-.74,.69-1.59,.69-2.54,0-1.01-.26-1.83-.79-2.45-.53-.62-1.25-.93-2.17-.93s-1.62,.31-2.18,.92-.84,1.51-.84,2.71c0,.95,.24,1.76,.72,2.41,.48,.66,1.27,.98,2.35,.98s1.77-.37,2.23-1.11Z"/><path d="M148.24,74.78v5.32c0,.63,.12,1.15,.35,1.56,.35,.63,.94,.94,1.77,.94,1,0,1.67-.34,2.03-1.01,.19-.37,.29-.86,.29-1.48v-5.32h1.18v4.84c0,1.06-.14,1.87-.43,2.44-.53,1.04-1.52,1.56-2.98,1.56s-2.45-.52-2.97-1.56c-.29-.57-.43-1.39-.43-2.44v-4.84h1.18Z"/><path d="M156.2,74.78h3.91c.64,0,1.18,.1,1.59,.29,.79,.37,1.19,1.05,1.19,2.03,0,.52-.11,.94-.32,1.27-.21,.33-.51,.59-.89,.79,.34,.14,.59,.32,.76,.54,.17,.22,.26,.58,.28,1.08l.04,1.16c.01,.33,.04,.57,.08,.73,.07,.27,.2,.45,.38,.53v.19h-1.43c-.04-.07-.07-.17-.09-.29s-.04-.34-.06-.68l-.07-1.44c-.03-.56-.23-.94-.61-1.13-.22-.11-.56-.16-1.02-.16h-2.58v3.69h-1.17v-8.61Zm3.79,3.95c.53,0,.95-.11,1.26-.33,.31-.22,.46-.61,.46-1.18,0-.61-.22-1.03-.65-1.25-.23-.12-.54-.18-.93-.18h-2.77v2.94h2.62Z"/><path d="M169.65,80.61c.03,.49,.14,.89,.33,1.19,.37,.57,1.03,.86,1.97,.86,.42,0,.81-.06,1.15-.19,.67-.24,1.01-.68,1.01-1.3,0-.47-.14-.8-.43-1-.29-.2-.74-.37-1.35-.51l-1.13-.26c-.74-.17-1.26-.36-1.57-.57-.53-.36-.8-.9-.8-1.61,0-.77,.26-1.41,.78-1.91,.52-.5,1.26-.74,2.21-.74,.88,0,1.62,.22,2.24,.65,.61,.44,.92,1.13,.92,2.09h-1.1c-.06-.46-.18-.82-.36-1.06-.34-.45-.92-.67-1.74-.67-.66,0-1.13,.14-1.42,.43-.29,.29-.43,.63-.43,1.01,0,.42,.17,.73,.51,.93,.22,.13,.73,.28,1.52,.47l1.17,.28c.56,.13,1,.31,1.31,.55,.53,.4,.8,.99,.8,1.75,0,.95-.34,1.64-1.02,2.05-.68,.41-1.46,.62-2.36,.62-1.04,0-1.86-.27-2.45-.82-.59-.54-.88-1.28-.87-2.21h1.1Z"/><path d="M178.56,74.78v5.32c0,.63,.12,1.15,.35,1.56,.35,.63,.94,.94,1.77,.94,1,0,1.67-.34,2.03-1.01,.19-.37,.29-.86,.29-1.48v-5.32h1.18v4.84c0,1.06-.14,1.87-.43,2.44-.53,1.04-1.52,1.56-2.98,1.56s-2.45-.52-2.97-1.56c-.29-.57-.43-1.39-.43-2.44v-4.84h1.18Z"/><path d="M186.49,74.78h3.85c.76,0,1.38,.22,1.85,.65,.47,.43,.7,1.04,.7,1.82,0,.67-.21,1.26-.63,1.76-.42,.5-1.06,.75-1.92,.75h-2.69v3.64h-1.17v-8.61Zm4.53,1.18c-.26-.12-.61-.18-1.05-.18h-2.3v2.98h2.3c.52,0,.94-.11,1.27-.33,.32-.22,.49-.62,.49-1.18,0-.63-.23-1.06-.7-1.29Z"/><path d="M194.91,74.78h3.85c.76,0,1.38,.22,1.85,.65,.47,.43,.7,1.04,.7,1.82,0,.67-.21,1.26-.63,1.76-.42,.5-1.06,.75-1.92,.75h-2.69v3.64h-1.17v-8.61Zm4.53,1.18c-.26-.12-.61-.18-1.05-.18h-2.3v2.98h2.3c.52,0,.94-.11,1.27-.33,.32-.22,.49-.62,.49-1.18,0-.63-.23-1.06-.7-1.29Z"/><path d="M203.21,74.78h1.17v7.59h4.32v1.03h-5.49v-8.61Z"/><path d="M208.75,74.78h1.36l2.48,4.14,2.48-4.14h1.37l-3.26,5.14v3.47h-1.17v-3.47l-3.26-5.14Z"/><path d="M227.45,75.4c.59,.57,.93,1.23,.99,1.96h-1.14c-.13-.55-.38-.99-.76-1.32-.38-.32-.91-.49-1.59-.49-.83,0-1.51,.3-2.02,.89s-.77,1.51-.77,2.74c0,1.01,.23,1.83,.69,2.46,.46,.63,1.15,.94,2.07,.94,.84,0,1.49-.33,1.93-.99,.23-.35,.41-.81,.52-1.37h1.14c-.1,.91-.43,1.67-1,2.28-.68,.74-1.59,1.11-2.74,1.11-.99,0-1.82-.3-2.49-.91-.88-.8-1.33-2.04-1.33-3.71,0-1.27,.33-2.31,1-3.13,.72-.88,1.71-1.33,2.97-1.33,1.08,0,1.91,.29,2.51,.86Z"/><path d="M230.47,74.78h1.18v3.56h4.43v-3.56h1.18v8.61h-1.18v-4.03h-4.43v4.03h-1.18v-8.61Z"/><path d="M242.03,74.78h1.32l3.13,8.61h-1.28l-.9-2.58h-3.38l-.93,2.58h-1.2l3.24-8.61Zm1.93,5.08l-1.33-3.8-1.38,3.8h2.7Z"/><path d="M248.2,74.78h1.18v8.61h-1.18v-8.61Z"/><path d="M252.18,74.78h1.37l4.29,6.96v-6.96h1.11v8.61h-1.31l-4.36-6.95v6.95h-1.11v-8.61Z"/><path d="M261.85,77.28c.22-.04,.38-.16,.49-.36,.11-.21,.17-.45,.17-.72,0-.03,0-.05,0-.07,0-.02,0-.05-.01-.07h-.64v-1.28h1.25v1.18c0,.5-.1,.93-.31,1.28-.21,.35-.52,.55-.94,.6v-.55Z"/><path d="M266.61,80.61c.03,.49,.14,.89,.33,1.19,.37,.57,1.03,.86,1.97,.86,.42,0,.81-.06,1.15-.19,.67-.24,1.01-.68,1.01-1.3,0-.47-.14-.8-.43-1-.29-.2-.74-.37-1.35-.51l-1.13-.26c-.74-.17-1.26-.36-1.57-.57-.53-.36-.8-.9-.8-1.61,0-.77,.26-1.41,.78-1.91,.52-.5,1.26-.74,2.21-.74,.88,0,1.62,.22,2.24,.65,.61,.44,.92,1.13,.92,2.09h-1.1c-.06-.46-.18-.82-.36-1.06-.34-.45-.92-.67-1.74-.67-.66,0-1.13,.14-1.42,.43-.29,.29-.43,.63-.43,1.01,0,.42,.17,.73,.51,.93,.22,.13,.73,.28,1.52,.47l1.17,.28c.56,.13,1,.31,1.31,.55,.53,.4,.8,.99,.8,1.75,0,.95-.34,1.64-1.02,2.05s-1.46,.62-2.36,.62c-1.04,0-1.86-.27-2.45-.82-.59-.54-.88-1.28-.87-2.21h1.1Z"/><path d="M279.09,80.61c.03,.49,.14,.89,.33,1.19,.37,.57,1.03,.86,1.97,.86,.42,0,.81-.06,1.15-.19,.67-.24,1.01-.68,1.01-1.3,0-.47-.14-.8-.43-1-.29-.2-.74-.37-1.35-.51l-1.13-.26c-.74-.17-1.26-.36-1.57-.57-.53-.36-.8-.9-.8-1.61,0-.77,.26-1.41,.78-1.91,.52-.5,1.26-.74,2.21-.74,.88,0,1.62,.22,2.24,.65,.61,.44,.92,1.13,.92,2.09h-1.1c-.06-.46-.18-.82-.36-1.06-.34-.45-.92-.67-1.74-.67-.66,0-1.13,.14-1.42,.43-.29,.29-.43,.63-.43,1.01,0,.42,.17,.73,.51,.93,.22,.13,.73,.28,1.52,.47l1.17,.28c.56,.13,1,.31,1.31,.55,.53,.4,.8,.99,.8,1.75,0,.95-.34,1.64-1.02,2.05-.68,.41-1.46,.62-2.36,.62-1.04,0-1.86-.27-2.45-.82-.59-.54-.88-1.28-.87-2.21h1.1Z"/><path d="M293.16,74.78v1.03h-2.9v7.59h-1.18v-7.59h-2.9v-1.03h6.98Z"/><path d="M294.93,74.78h3.91c.64,0,1.18,.1,1.59,.29,.79,.37,1.19,1.05,1.19,2.03,0,.52-.11,.94-.32,1.27-.21,.33-.51,.59-.89,.79,.34,.14,.59,.32,.76,.54,.17,.22,.26,.58,.28,1.08l.04,1.16c.01,.33,.04,.57,.08,.73,.07,.27,.2,.45,.38,.53v.19h-1.43c-.04-.07-.07-.17-.09-.29s-.04-.34-.06-.68l-.07-1.44c-.03-.56-.23-.94-.61-1.13-.22-.11-.56-.16-1.02-.16h-2.58v3.69h-1.17v-8.61Zm3.79,3.95c.53,0,.95-.11,1.26-.33,.31-.22,.46-.61,.46-1.18,0-.61-.22-1.03-.65-1.25-.23-.12-.54-.18-.93-.18h-2.77v2.94h2.62Z"/><path d="M311.27,76.01c.57,.76,.86,1.74,.86,2.93,0,1.29-.33,2.35-.98,3.21-.77,1-1.86,1.5-3.28,1.5-1.32,0-2.37-.44-3.12-1.31-.68-.84-1.01-1.91-1.01-3.2,0-1.16,.29-2.16,.87-2.99,.74-1.06,1.84-1.59,3.29-1.59s2.65,.49,3.38,1.47Zm-1.03,5.49c.46-.74,.69-1.59,.69-2.54,0-1.01-.26-1.83-.79-2.45-.53-.62-1.25-.93-2.17-.93s-1.62,.31-2.18,.92-.84,1.51-.84,2.71c0,.95,.24,1.76,.72,2.41,.48,.66,1.27,.98,2.35,.98s1.77-.37,2.23-1.11Z"/><path d="M314.22,74.78h1.37l4.29,6.96v-6.96h1.11v8.61h-1.31l-4.36-6.95v6.95h-1.11v-8.61Z"/><path d="M329.33,75.02c.84,.45,1.36,1.24,1.55,2.36h-1.15c-.14-.63-.42-1.09-.86-1.37-.43-.29-.98-.43-1.64-.43-.78,0-1.44,.3-1.97,.9-.53,.6-.8,1.49-.8,2.67,0,1.02,.22,1.86,.66,2.5,.44,.64,1.16,.96,2.15,.96,.76,0,1.39-.23,1.89-.68,.5-.45,.76-1.18,.77-2.19h-2.7v-.97h3.78v4.61h-.75l-.28-1.11c-.39,.43-.73,.73-1.03,.9-.5,.29-1.14,.43-1.92,.43-1,0-1.87-.33-2.59-.99-.79-.83-1.18-1.97-1.18-3.41s.39-2.59,1.16-3.44c.73-.81,1.68-1.22,2.84-1.22,.8,0,1.49,.16,2.07,.47Z"/><path d="M332.92,74.78h6.25v1.06h-5.11v2.61h4.72v1h-4.72v2.92h5.2v1.03h-6.34v-8.61Z"/><path d="M341.44,80.61c.03,.49,.14,.89,.33,1.19,.37,.57,1.03,.86,1.97,.86,.42,0,.81-.06,1.15-.19,.67-.24,1.01-.68,1.01-1.3,0-.47-.14-.8-.43-1-.29-.2-.74-.37-1.35-.51l-1.13-.26c-.74-.17-1.26-.36-1.57-.57-.53-.36-.8-.9-.8-1.61,0-.77,.26-1.41,.78-1.91,.52-.5,1.26-.74,2.21-.74,.88,0,1.62,.22,2.24,.65,.61,.44,.92,1.13,.92,2.09h-1.1c-.06-.46-.18-.82-.36-1.06-.34-.45-.92-.67-1.74-.67-.66,0-1.13,.14-1.42,.43-.29,.29-.43,.63-.43,1.01,0,.42,.17,.73,.51,.93,.22,.13,.73,.28,1.52,.47l1.17,.28c.56,.13,1,.31,1.31,.55,.53,.4,.8,.99,.8,1.75,0,.95-.34,1.64-1.02,2.05-.68,.41-1.46,.62-2.36,.62-1.04,0-1.86-.27-2.45-.82-.59-.54-.88-1.28-.87-2.21h1.1Z"/><path d="M355.6,74.78v1.03h-2.9v7.59h-1.18v-7.59h-2.9v-1.03h6.98Z"/><path d="M361.41,74.78h1.17v7.59h4.32v1.03h-5.49v-8.61Z"/><path d="M369.15,74.78h1.18v8.61h-1.18v-8.61Z"/><path d="M373.03,74.78h1.37l4.29,6.96v-6.96h1.11v8.61h-1.31l-4.36-6.95v6.95h-1.11v-8.61Z"/><path d="M382.5,74.78h1.14v4.22l4.31-4.22h1.63l-3.68,3.48,3.76,5.14h-1.53l-3.09-4.33-1.4,1.33v3h-1.14v-8.61Z"/><path d="M391.43,82.11h1.23v1.28h-1.23v-1.28Z"/></g><g><path class="e" d="M91.83,12.28h7.9c-2.94-5.34-5.92-8.91-7.31-10.45h-6.41c1.15,1.46,3.52,4.84,5.83,10.45Z"/><path class="d" d="M23.71,12.28c2.3-5.61,4.67-8.99,5.83-10.45h-6.4c-1.37,1.53-4.3,5.1-7.2,10.45h7.77Z"/><path class="d" d="M39.01,1.83h-7.81l-.09,.15c-1.61,2.96-3.67,6.05-5.58,10.29h9.98c1.76-6.63,3.45-10.36,3.45-10.36l.04-.09Z"/><path class="e" d="M74.78,1.83h-10.55l1.08,10.45h13.08c-1.81-6.83-3.62-10.45-3.62-10.45Z"/><path class="e" d="M79.85,12.28h10.16c-1.91-4.24-3.96-7.34-5.58-10.29l-.09-.15-7.87,.02s1.69,3.8,3.37,10.42Z"/><path class="d" d="M20.86,2.13l.15-.3h-3.9c-3.17,3.14-5.98,6.65-8.36,10.45h5.24c3.49-6.37,6.87-10.15,6.87-10.15Z"/><path class="e" d="M101.45,12.28h5.26c-2.38-3.8-5.19-7.31-8.36-10.45h-3.9s3.56,3.99,6.99,10.45Z"/><path class="d" d="M19.68,26.07c.92-4.74,2.11-8.75,3.36-12.08h-7.99c-1.72,3.42-3.37,7.46-4.59,12.08h9.22Z"/><path class="e" d="M106.89,26.07h6.09c-1.29-4.26-3.06-8.3-5.25-12.08h-5.41c1.69,3.41,3.34,7.47,4.57,12.08Z"/><path class="d" d="M35.08,13.99h-10.28c-1.33,3.25-2.54,7.16-3.43,12.08h11.42c.63-4.62,1.45-8.67,2.29-12.08Z"/><path class="e" d="M90.74,13.99h-10.47c.81,3.41,1.6,7.47,2.22,12.08h11.69c-.89-4.93-2.1-8.83-3.43-12.08Z"/><path class="e" d="M105.3,26.07c-1.25-4.62-2.92-8.66-4.67-12.08h-8.13c1.25,3.33,2.44,7.34,3.36,12.08h9.44Z"/><path class="d" d="M50.16,13.99h-13.32c-.46,2.1-1.45,6.82-2.23,12.08h14.98c.33-6.34,.49-10,.57-12.08Z"/><path class="d" d="M13.09,13.99H7.72c-2.19,3.78-3.95,7.83-5.25,12.08h5.9c1.24-4.56,2.96-8.64,4.71-12.08Z"/><path class="d" d="M32.57,27.77h-11.49c-.63,3.98-1.05,8.59-1.16,14h11.76c.03-5.06,.37-9.75,.89-14Z"/><path class="d" d="M49.08,35.48c.16-2.9,.3-5.45,.41-7.71h-15.13c-.3,2.19-.55,4.43-.7,6.58-.17,2.37-.21,4.92-.18,7.42h15.54c-.02-2.6-.02-4.87,.06-6.3Z"/><path class="e" d="M108.9,41.78h6.55c-.09-4.84-.77-9.53-1.98-14h-6.15c1.01,4.27,1.63,8.96,1.58,14Z"/><path class="d" d="M19.36,27.77H10.03c-1,4.23-1.63,8.91-1.65,14h9.59c.17-5.21,.67-9.87,1.38-14Z"/><path class="d" d="M64.28,27.77h-13.33c-.25,5-.28,12.31-.28,14h13.92c-.04-1.84-.18-9.02-.31-14Z"/><path class="e" d="M96.18,27.77c.72,4.13,1.22,8.79,1.38,14h9.84c-.02-5.09-.66-9.77-1.67-14h-9.55Z"/><path class="d" d="M6.47,41.47c-.14-4.87,.45-9.47,1.46-13.69H1.99C.78,32.25,.09,36.94,0,41.78H6.48c0-.1,0-.21-.01-.31Z"/><path class="e" d="M51.88,73.19h11.68s-.96,9.73-1.08,10.02-9.44,0-9.44,0c0,0-1.16-9.19-1.16-10.02Z"/><path class="d" d="M31.68,43.48h-11.78c-.03,4.91,.42,9.49,1.15,13.68h11.47c-.56-4.79-.81-9.36-.84-13.68Z"/><path class="d" d="M49.04,43.48h-15.53c.16,7.19,.84,13.58,.84,13.58v.1h14.7c.14-3.37,.04-8.87-.01-13.68Z"/><path class="e" d="M95.64,43.48h-12.01c0,4.32-.21,8.89-.71,13.68h11.63c.7-4.09,1.12-8.65,1.09-13.68Z"/><path class="d" d="M19.25,57.16c-1.14-6.64-1.28-11.93-1.3-13.68H8.4c.11,4.99,.74,9.56,1.68,13.68h9.17Z"/><path class="d" d="M6.55,43.48H0c.05,4.72,.66,9.3,1.78,13.68h6.39c-.81-3.99-1.37-8.5-1.62-13.68Z"/><path class="e" d="M108.87,43.48c-.17,5.15-.74,9.67-1.61,13.68h6.43c1.12-4.38,1.73-8.96,1.78-13.68h-6.59Z"/><path class="e" d="M107.39,43.48h-9.8c-.01,1.75-.16,7.03-1.3,13.68h9.39c.96-4.12,1.6-8.69,1.7-13.68Z"/><path class="e" d="M105.27,58.87h-9.28c-.75,3.9-1.83,8.17-3.43,12.43h8.05c1.73-3.46,3.4-7.62,4.66-12.43Z"/><path class="e" d="M82.74,58.87c-.44,3.83-1.07,7.8-1.91,11.87l-.18,.56h9.97c1.37-3.43,2.69-7.57,3.63-12.43h-11.51Z"/><path class="d" d="M22.98,71.3c-1.59-4.26-2.68-8.54-3.43-12.43H10.49c1.24,4.82,2.88,8.97,4.58,12.43h7.91Z"/><path class="e" d="M106.86,58.87c-1.18,4.79-2.79,8.85-4.62,12.43h5.74c2.2-3.89,3.97-8.05,5.23-12.43h-6.36Z"/><path class="e" d="M80.98,58.87h-14.81l-.62,12.43h13.19c.84-3.48,1.65-7.65,2.25-12.43Z"/><path class="d" d="M8.54,58.87H2.24c1.26,4.38,3.03,8.55,5.23,12.43h5.42c-1.74-3.54-3.24-7.59-4.36-12.43Z"/><path class="d" d="M21.37,58.87c.93,4.71,2.21,8.89,3.55,12.43h10.06c-.99-4.28-1.72-8.43-2.24-12.43h-11.37Z"/><path class="e" d="M84.35,83.29c.31-.75,2.92-4.2,5.56-10.28h-9.82l-3.39,10.42h7.61s.03-.09,.05-.14Z"/><path class="d" d="M29.28,83.43l-.11-.13c-2.27-3.23-4.08-6.74-5.53-10.29h-7.7c3.41,6.44,6.75,10.03,7.13,10.42h6.21Z"/><path class="e" d="M78.3,73.01h-13.07s-.33,6.69-1,10.42h10.62c.18-.39,1.8-4.05,3.45-10.42Z"/><path class="e" d="M99.72,73.01h-7.83c-1.45,3.56-3.26,7.06-5.53,10.29l-.11,.13h6.21c.38-.39,3.78-3.99,7.25-10.42Z"/><path class="e" d="M94.51,83.43h4.3c3.1-3.14,5.85-6.64,8.17-10.42h-5.64c-2.15,3.9-4.53,7.25-6.83,10.42Z"/><path class="d" d="M8.48,73.01c2.32,3.78,5.07,7.28,8.17,10.42h4.21c-2.52-3.14-4.96-6.46-7.09-10.42h-5.29Z"/></g><path d="M376.91,.94V0h4.78V.94h-1.83V5.61h-1.11V.94h-1.83Zm7.33-.94l1.43,4.01,1.44-4.01h1.59V5.61h-1.03V1.08l-1.55,4.52h-.9l-1.57-4.52V5.61h-1.03V0h1.6Z"/></g></g></g></svg>