<?xml version="1.0" encoding="UTF-8"?><svg id="uuid-491369f4-fd86-4c4d-b993-15ece2bb3683" xmlns="http://www.w3.org/2000/svg" viewBox="0 0 64 64"><g id="uuid-c9de2322-681f-4fff-b8f3-8be79f71c9ca"><g id="uuid-88bd3361-e043-4460-bf37-1064ecf27ef0"><g id="uuid-eb7fd878-ffc7-4505-9e3c-2f176c233e90"><g id="uuid-21043b12-4c5a-4847-a1d4-bb6cf62a5227"><path id="uuid-12366c9f-ea4f-4500-aac8-a73a78ed6283" d="m47.29,39.97c0,9.62-7.8,17.42-17.42,17.42s-17.42-7.8-17.42-17.42c0-3.31.92-6.4,2.53-9.04,0,0,2.22,4.73,6.03,3.2,1.5-.6,3.2-2.29,1.6-5.08-1.74-3-.71-7.03,3.01-8.87,4.34-2.15,4.24-7.8,4.24-7.8,0,0,6.84,4.27,4.44,9.83-1.38,3.21-1.55,7.11,1.33,7.97,3.44,1.03,5.25-3.74,5.25-3.74,3.92,3.19,6.42,8.06,6.42,13.51Z" style="fill:none; stroke:#0e185f; stroke-linecap:round; stroke-linejoin:round; stroke-width:2px;"/></g><g id="uuid-47cd21a6-9056-4313-ab97-edb189510afc"><path id="uuid-a2c8db70-4c08-419d-8e64-bca93ff6168b" d="m37.21,50.06c0,2.03-.82,3.86-2.15,5.19-1.33,1.33-3.16,2.15-5.19,2.15-4.05,0-7.34-3.28-7.34-7.33h0c-.02-1.53.31-3.34,1.23-5.43l3,.88c.11-5.8,5.5-7.84,5.5-7.84.19,1.91.69,3.76,1.71,5.42.74,1.21,1.45,2.25,2.26,3.42.7,1.01.98,2.34.97,3.56Z" style="fill:none; stroke:#0e185f; stroke-linecap:round; stroke-linejoin:round; stroke-width:2px;"/></g></g></g></g></svg>