<?xml version="1.0" encoding="UTF-8"?><svg xmlns="http://www.w3.org/2000/svg" viewBox="0 0 190.11 190.11"><defs><style>.d{fill:#4d4d4d;}.e{fill:#acb8c2;}.f{fill:#c8223c;}.g{fill:#0d588a;}.h{fill:#fefefe;}</style></defs><g id="a"/><g id="b"><g id="c"><g><circle class="d" cx="95.06" cy="95.06" r="95.06"/><g><path class="h" d="M167.09,66.89c-1.24-.24-2.61-1.07-2.72-2.45,.11-2.33,2.19-3.97,4.17-4.83,1.74-.62,3.94-.78,5.45,.5,1.12,.7,.79,2.32,.29,3.33-1.45,2.41-4.39,3.87-7.19,3.45Z"/><path class="g" d="M168.39,76.47c-.18,.71-.36,1.44-.91,1.97-.66-1.9-1.11-3.86-1.62-5.8,.3-.06,.88-.17,1.19-.23,.05,.35,.16,1.05,.21,1.4,3.55-.86,7.07-1.8,10.62-2.66,0-.48-.01-1.44-.01-1.93,.23,.12,.69,.36,.92,.48,1.01,2.64,.97,5.67,2.63,8.06,.24,1.44-2.13,1.03-3.04,1.36l-.53-.93c2.44-.43,.76-2.82,.42-4.29-1.32,.38-2.65,.73-3.98,1.09,.16,.8,.31,1.61,.48,2.41,.8,.19,1.68,.34,1.94,1.25-1.39,.41-2.8,.77-4.2,1.12-.09-.33-.27-.99-.36-1.32,.35-.08,1.02-.24,1.36-.32-.24-.9-.5-1.81-.73-2.71-1.47,.34-2.92,.7-4.38,1.05Z"/><path class="g" d="M169.69,105.25c1.46,1.26,2.76,2.7,4.32,3.83,1.73,.67,3.62,.78,5.43,1.19,.21-.82,.73-1.32,1.54-1.5-.27,1.9-.54,3.8-1.03,5.64-.24,.12-.73,.35-.97,.46-.01-.47-.04-1.41-.05-1.88-1.66-.24-3.31-.53-4.95-.9-2.07,.88-4.19,1.67-6.23,2.65-.29,.67-.77,1.15-1.46,1.42,.2-1.94,.43-3.89,.99-5.76,.25-.09,.75-.26,.99-.35,0,.37,0,1.12,0,1.49,1.34-.55,2.69-1.07,4.04-1.58-1.03-1.08-2.13-2.09-3.27-3.05-.06,.36-.16,1.06-.21,1.41-.29-.02-.86-.06-1.15-.09,.53-1.68,.09-3.99,1.66-5.15,.08,.54,.24,1.62,.32,2.16Z"/><path class="g" d="M166.84,118.43c-.32,.9-.63,1.8-.95,2.69,3.26,1.29,6.56,2.47,9.84,3.72-.04-.65,1.82-2.69,1.63-1-.78,2.09-1.04,4.74-2.94,6.15,.07-.6,.21-1.8,.28-2.4-3.19-1.42-6.53-2.43-9.74-3.81-.39,.93-.77,1.86-1.15,2.79,.41,.21,1.24,.65,1.64,.86-.82,1.94-2.8,.06-4.16-.19,.77-1.01,1.56-2.02,1.95-3.25,.85-2.53,2.23-4.96,2.2-7.71,1.15,.38,2.3,.77,3.46,1.15-.09,.34-.28,1.02-.36,1.36-.43-.09-1.27-.28-1.69-.36Z"/><path class="g" d="M166.67,69.21c-2.79-1.17-4.51-4.38-3.82-7.36,.48-2.56,2.64-4.66,5.15-5.28,4.57-1.51,9.63,3.16,8.25,7.83-.83,4.15-5.78,6.42-9.58,4.81Zm-2.3-4.76c.11,1.37,1.49,2.21,2.72,2.45,2.8,.42,5.74-1.04,7.19-3.45,.5-1,.83-2.62-.29-3.33-1.51-1.28-3.7-1.12-5.45-.5-1.98,.85-4.07,2.49-4.17,4.83Z"/><path class="g" d="M159.57,40.44c.9-.92,1.95-1.68,3.01-2.43,1.53,3.63,4.05,6.89,7.1,9.38-1.15,.55-2.76,3.24-3.89,1.24,.35-.28,1.05-.83,1.41-1.1-.65-.79-1.29-1.58-1.94-2.37-2.74,2.13-5.49,4.22-8.25,6.3,.38,.78,1.07,1.64,.26,2.47-1.3-1.55-2.62-3.11-3.54-4.93,.48,0,1.44,0,1.92-.01,2.56-2.13,5.27-4.07,7.9-6.12-.55-.76-1.09-1.51-1.63-2.27-.8,.13-1.89,1.24-2.33-.16Z"/><path class="f" d="M54.35,151.57c-13.91-10-23.96-25.27-27.41-42.06-3.76-17.54-.41-36.42,9.16-51.6,1.14,.45,2.29,.88,3.45,1.3-8.49,13.1-12.17,29.28-9.96,44.75,2.07,15.71,10.12,30.5,22.07,40.89,9.82,8.59,22.22,14.2,35.18,15.79,17.8,2.36,36.44-3.08,50.23-14.56,11.63-9.5,19.84-23.1,22.79-37.83,3.42-16.24,.23-33.6-8.36-47.77,1.18-.32,2.36-.64,3.53-.97,8.64,14.41,11.55,31.98,8.5,48.46-3.02,16.37-12.2,31.49-25.29,41.75-10.42,8.27-23.25,13.44-36.5,14.64-16.65,1.66-33.86-2.96-47.4-12.8Z"/><path class="g" d="M159.93,133.43c-.24,.29-.72,.86-.95,1.15l-.75-.36c.81-1.97,1.66-4.08,3.36-5.47-.05,.54-.16,1.62-.21,2.15,3.11,1.7,6.23,3.38,9.33,5.08,.44-.23,1.32-.67,1.76-.9-.58,1.81-1.58,3.46-2.56,5.09-1.28,.57-.73-.97-.53-1.63-3.11-1.76-6.28-3.45-9.44-5.12Z"/><path class="h" d="M157.37,140.8c1.95,.65,2.09,3.09,.7,4.38-1.26-1.01-2.55-1.99-3.84-2.96,.78-.87,1.82-2.28,3.14-1.42Z"/><path class="g" d="M157.37,140.8c-1.32-.86-2.36,.55-3.14,1.42,1.29,.97,2.57,1.95,3.84,2.96,1.39-1.29,1.25-3.73-.7-4.38Zm-4.79,3.83c-.7,.32-1.39,.63-2.1,.93,1.14-2.59,3.02-4.81,4.88-6.9,2.69-2.28,6.86,1.1,5.71,4.29,2.27,0,5.04,1.2,6.84-.7,.96,1.39-1,2.92-2.01,3.73-2.33,.12-4.65-.19-6.97-.31,1.26,1,2.54,1.98,3.82,2.95,.29-.31,.89-.93,1.19-1.24l.52,.82c-.9,1.64-2.08,3.12-3.3,4.53-.24-.12-.73-.36-.98-.48,.23-.31,.68-.94,.91-1.25-2.79-2.2-5.66-4.28-8.52-6.37Z"/><path class="g" d="M147.61,106.71l-.28-.29c.76-.69,1.53-1.36,2.37-1.97,.24-.01,.72-.03,.96-.04,.72-1.14,1.39-2.33,2.25-3.38l1.05,.44c.11-.6,.21-1.19,.31-1.78,1.45-.6,2.89-1.24,4.37-1.78-.92,1.45-1.93,2.83-2.96,4.2-.23-.14-.66-.44-.89-.58-1.17,.83-1.96,1.93-2.05,3.26h-.5c-1.54,.65-3.08,1.31-4.64,1.93Z"/><path class="g" d="M141.45,155.61c-.66,.12-1.32,.23-1.97,.34,.9-1.94,2.86-3.19,4.54-4.43l.28,.8c-.19,.28-.57,.85-.75,1.14,2.23,2.2,3.95,5,6.61,6.69,2.7,.65,5.2-3.18,3.17-5.34-1.63-1.96-3.41-3.78-5.14-5.64-.53,.19-1.61,.56-2.14,.75,.92-1.53,2.28-2.72,3.68-3.79,.76,.57,.65,1.21-.31,1.91,1.92,2.28,4.19,4.27,5.85,6.77,2.03,4.21-3.68,9.41-7.74,7.09-2.31-1.8-3.82-4.42-6.08-6.27Z"/><path class="g" d="M142.51,36.39c2.28-2.64,4.87-5.03,6.95-7.82-.29-.55-.61-1.07-.95-1.58,.11-.21,.35-.65,.46-.87,1.05,.9,2.09,1.81,3.13,2.72-.34,3.57-.87,7.11-1.3,10.67,1.72-1.86,3.42-3.73,5.1-5.64-.29-.25-.88-.76-1.19-1.02,.28-.25,.57-.51,.85-.76,1.22,1.09,2.59,2.07,3.51,3.45l-.82,.35c-.31-.21-.93-.62-1.24-.83-1.63,1.66-3.04,3.55-4.77,5.1-1.41,.72-3.01,.92-4.52,1.32,.43-3.23,.81-6.48,1.17-9.72-1.74,1.88-3.45,3.8-5.16,5.71,.45,.36,1.37,1.98,.12,1.8-1.31-1.05-3.04-2.08-3.3-3.89,.66,.33,1.31,.66,1.96,1Z"/><polygon class="h" points="142.29 111 142.04 110.67 142.39 110.49 142.58 110.77 142.29 111"/><path class="h" d="M148.4,108.41c-2.69,1.46-4.54,4.43-7.66,5.01,2.5-2.03,5.02-4.04,7.59-5.97-.18-.18-.53-.55-.72-.73,1.56-.62,3.1-1.27,4.64-1.93-1.11,1.36-1.93,3.31-3.85,3.63Z"/><path class="g" d="M140.74,113.42c3.12-.58,4.97-3.55,7.66-5.01,1.92-.33,2.74-2.28,3.85-3.63h.5c-.03,.38,0,.78,.09,1.19,.24-.6,.48-1.19,.72-1.8,1.46-.4,2.91-.83,4.36-1.26-1.1,1.47-2.37,2.79-3.68,4.06l-.18-1.09c-.96,.62-1.88,1.32-2.3,2.43-.85,.28-1.73,.46-2.62,.53-1.94,3.2-5.76,4.46-8.65,6.63l-.41-.17-.42-.19c.52-.36,1.55-1.09,2.07-1.46l-1-.23Z"/><path class="g" d="M140.75,111.34c-.04-1.15,.98-1.88,1.63-2.68,2.46-2.52,4.66-5.3,7.22-7.73,.24,.01,.74,.04,.99,.05,.66-1.37,1.36-2.74,2.06-4.09-1.35,.84-2.68,1.71-4.02,2.56,.08,.38,.14,.77,.22,1.14-2.74,3.12-6.08,5.89-8.16,9.48-.3-.55-.58-1.09-.85-1.64,1.83-.5,2.57-2.76,3.9-4.04,2.48-2.71,4.15-6.23,7.26-8.28,.87-1.1,1.22-2.51,1.8-3.78l.63-.04c.08,1.53,.11,3.07,.09,4.6,.51-.51,1.04-1.01,1.56-1.51-.26-.14-.8-.41-1.06-.55,1.58-.87,3.11-1.82,4.66-2.75-.71,1.63-1.56,3.18-2.42,4.73-.2-.15-.6-.46-.8-.62-.67,.79-1.34,1.58-2.01,2.37,.41,2.87-3.12,3.19-4.93,4.41l.88,.62c-2.4,2.06-4.62,4.35-7.06,6.38l.26,.79-.19-.28-.35,.18c-.32,.16-.97,.5-1.29,.67Z"/><path class="g" d="M140.43,116.44c2.65-1.8,5.4-3.47,8.05-5.3,.33,.04,.97,.11,1.29,.14,.57-.67,1.15-1.34,1.74-2,.39,.11,1.15,.33,1.54,.44-.1-.31-.31-.93-.41-1.24,1.65-.45,3.29-.95,4.95-1.37-1.05,1.27-2.17,2.48-3.29,3.69-.25-.13-.75-.4-1-.53-.89,.54-1.77,1.1-2.62,1.69-1.42,.28-2.87,.68-3.81,1.88-2.18,1.25-4.51,2.53-6.86,3.29,.11-.17,.32-.51,.43-.68Z"/><path class="g" d="M138.9,35.19c-2.81-1.76-5.62-3.52-8.37-5.37,.53-.09,1.59-.27,2.12-.36,2.11-2.74,3.78-5.81,5.7-8.69-.3-.41-.9-1.25-1.2-1.66,3.36,.2,5.45,3.87,8.9,4.06-.49,1.09-1.06,2.13-1.67,3.16-.31-.19-.94-.56-1.25-.75,.19-.29,.58-.88,.77-1.18-1.05-.67-2.11-1.32-3.16-1.98-.77,1.17-1.55,2.35-2.35,3.51,.72,.48,1.44,.96,2.17,1.44,.54-.45,1.98-1.42,1.89,.01-.54,1.15-1.32,2.18-2,3.26-.3-.18-.91-.54-1.22-.72,.18-.28,.51-.85,.69-1.13-.77-.5-1.54-1-2.32-1.5-.82,1.26-1.63,2.52-2.45,3.78,1.09,.69,2.18,1.37,3.28,2.04,.23-.25,.69-.75,.92-1,2.06,.24-.16,2.13-.48,3.09Z"/><path class="g" d="M140.08,107.29c-.05-1.55,1.54-2.74,2.14-4.15,.35,.08,1.06,.23,1.41,.3-1.25,1.35-2.32,2.85-3.46,4.28l-.09-.43Z"/><path class="h" d="M139.93,113.18c-.04-.22-.1-.66-.13-.88,.09-.13,.29-.4,.39-.54,.14-.11,.43-.31,.57-.41,.32-.17,.97-.5,1.29-.66-.06,1.17-1.12,2.03-2.11,2.5Z"/><path class="g" d="M138.72,109.03c-.01-.82,.35-1.44,1.08-1.86l.28,.13c-.06,.29-.19,.86-.25,1.14-.28,.15-.83,.44-1.11,.59Z"/><path class="g" d="M140.08,115.3c.06,.83-1.06,1.56-1.83,1.48-.08-.85,1.03-1.68,1.83-1.48Z"/><path class="g" d="M131.84,160.38c1.37-2.28,4.51-2.28,5.89-4.52,.71,1.12,1.4,2.25,2.07,3.4-.29,.14-.87,.44-1.15,.58-1.05-2.04-3.7-.72-4.68,.72-2.54,3.6,1.33,9.28,5.59,8.63,1.34-.24,2.28-1.28,3.11-2.28-.39-.79-1.09-2.23,.43-2.11,.58,.75,1.07,1.58,1.58,2.39-2.17,2.56-5.45,4.84-8.97,3.94-4.58-.95-6.73-7.08-3.87-10.74Z"/><path class="f" d="M56.61,41.3c-1.32-.48-2.62-1.01-3.88-1.63,11.71-8.84,26.22-14.16,40.94-14.16,17.37-.62,34.83,5.88,47.7,17.51-1.41,.4-2.82,.77-4.24,1.09-12.01-10.09-27.78-15.57-43.46-15.13-13.24,.16-26.31,4.65-37.07,12.32Z"/><path class="g" d="M138.25,116.78c.65,.55,0,1.95-.83,1.33-.7-.5,.08-1.78,.83-1.33Z"/><path class="g" d="M134.18,119.96c.17-.91,2.42-2.58,2.88-1.41-.76,.73-1.82,1.36-2.88,1.41Z"/><path class="g" d="M121.8,85.16c-1.05-.4-2.1-.8-3.15-1.22,.04-2.69,.11-5.38,.21-8.08,2.37-1.66,5-3.51,5.81-6.46,1.28-4.12-.42-8.37-.2-12.55,.24-2.74,2.74-4.37,4.83-5.76,8.28-5.49,19.11-5.18,27.16-11.1-.14,1.56-.17,3.23-1.08,4.58-1.1,1.8-3.18,2.53-5,3.35,.24,1.35,1.74,2.26,2.44,3.45-2.51,1.19-5.25,1.76-8.01,1.9,.84,1,1.66,2.01,2.45,3.04-2.6,1.17-5.38,1.91-8.2,2.3,1.27,1.24,2.49,2.54,3.6,3.93-2.61,.98-5.38,1.31-8.14,1.54,1.63,1.29,3.09,2.77,4.33,4.44-2.42,1.26-5.13,1.86-7.85,1.94,1.13,1.34,1.98,2.88,2.6,4.53-2.22,.23-4.46,.33-6.68,.09,1.11,1.96,1.91,4.1,2.05,6.38-2.25-.04-4.46-.51-6.55-1.36,.14,1.71-.09,3.42-.59,5.06Z"/><path class="g" d="M118.69,114.95c.48-.32,.95-.63,1.43-.95-1.42-.99-2.74-2.1-3.99-3.29,.42-1.73,.74-3.5,.98-5.27,.05-.35,.09-.69,.13-1.04,.93,.55,1.86,1.08,2.81,1.59,.46-2.4,.06-4.81-.67-7.11,1.12,2.09,2.81,3.84,5.06,4.65,.2-2.26-.22-4.5-.78-6.68,1.56,1.91,3.51,3.5,5.87,4.3,.11-2.43-.43-4.8-1.21-7.09,1.8,1.51,3.87,2.68,6.2,3.13,.07-2.64-.87-5.13-1.82-7.54,1.92,1.84,4.2,3.38,6.87,3.83-.21-2.65-1.21-5.15-2.64-7.36,2.06,1.8,4.54,3.08,7.32,3.25-.19-2.81-1.51-5.35-3.45-7.34,2.5,1.63,5.47,2.38,8.45,2.05-.55-2.9-2.69-4.97-5-6.59,2.27,.38,4.53,.83,6.83,.9,1.34,4.53,2.06,9.2,2.32,13.9l-.63,.04c-1.17,.79-2.3,1.63-3.42,2.47-.38,3.14-3.59,4.95-4.95,7.69-.23-.39-.45-.78-.66-1.17,.31-.8,.61-1.59,.87-2.4-1.07,.83-2.08,1.73-3.08,2.65,.35,2.02-1.63,3.46-2.49,5.12-1.41,1.73-2.18,4.14-3.93,5.45-.04-1.02,.62-1.85,1.03-2.74,1.64-3.28,3.35-6.53,4.86-9.88,2.02-.55,1.4-3.3,2.03-4.88-1.14,1.32-2.28,2.64-3.44,3.95,.26,0,.79,.01,1.05,.01-3.11,6.6-6.55,13.05-9.62,19.67-.25,.53-.5,1.05-.73,1.58-3.36-.89-7.22,.09-10.15-2.29,.53-.16,1.58-.49,2.1-.65-1.15-.71-2.35-1.35-3.56-1.97Z"/><path class="g" d="M140.74,113.42c-2.14,1.59-4.21,3.28-6.26,4.97l-.11-.52c1.12-2.22,3.57-3.96,5.08-6.1l.35,.52c.03,.22,.09,.67,.13,.88,.99-.47,2.05-1.33,2.11-2.5l.25,.33,.28-.23c1.7-1.32,3.18-2.9,4.76-4.36l.28,.29c.18,.18,.54,.55,.72,.73-2.57,1.94-5.09,3.95-7.59,5.97Z"/><path class="g" d="M133.16,118.05c-.28-.32-.57-.63-.84-.95,.39-.75,.77-1.51,1.14-2.26l.78,.43-.26-1.5c.11-.1,.33-.29,.45-.4,.03,.36,.07,1.08,.09,1.44,1.36-1.74,2.45-3.67,3.77-5.44,.49,.54,1.01,1.05,1.53,1.57-1.01,.19-1.51,1.13-2.17,1.8-1.44,1.82-3.35,3.26-4.48,5.32Z"/><path class="h" d="M131.04,118.28c3.07-6.62,6.51-13.07,9.62-19.67-.26,0-.79,0-1.05-.01,1.15-1.31,2.3-2.63,3.44-3.95-.63,1.59-.01,4.33-2.03,4.88-1.51,3.35-3.22,6.6-4.86,9.88-.41,.88-1.07,1.72-1.03,2.74,1.75-1.31,2.52-3.72,3.93-5.45,.86-1.66,2.83-3.1,2.49-5.12,1-.92,2.01-1.81,3.08-2.65-.26,.81-.56,1.61-.87,2.4,.21,.39,.43,.78,.66,1.17,1.36-2.74,4.57-4.54,4.95-7.69,1.12-.85,2.25-1.68,3.42-2.47-.57,1.27-.93,2.67-1.8,3.78-3.11,2.05-4.78,5.57-7.26,8.28-1.33,1.28-2.07,3.53-3.9,4.04,.06-.28,.19-.85,.25-1.14l.09,.43c1.15-1.43,2.22-2.93,3.46-4.28-.35-.07-1.06-.23-1.41-.3-.6,1.41-2.19,2.6-2.14,4.15l-.28-.13c-.73,.42-1.09,1.04-1.08,1.86,.28-.14,.83-.44,1.11-.59,.28,.55,.56,1.1,.85,1.64,2.08-3.6,5.42-6.36,8.16-9.48-.08-.38-.14-.76-.22-1.14,1.34-.85,2.67-1.72,4.02-2.56-.7,1.35-1.39,2.71-2.06,4.09-.24-.01-.74-.04-.98-.05-2.55,2.42-4.76,5.2-7.22,7.73-.65,.8-1.66,1.53-1.63,2.68-.14,.1-.43,.31-.57,.41-.1,.14-.29,.41-.39,.54l-.35-.52c-1.51,2.14-3.97,3.88-5.08,6.1-.08,.09-.23,.29-.31,.39-.87,.73-1.82,.53-2.75,.14l-.26-.12Zm1.28-1.19c.28,.32,.56,.63,.84,.95,1.14-2.06,3.04-3.5,4.48-5.32,.66-.66,1.16-1.61,2.17-1.8-.51-.52-1.04-1.04-1.53-1.58-1.32,1.77-2.4,3.7-3.77,5.44-.02-.36-.07-1.07-.09-1.44-.11,.1-.33,.3-.45,.4l.26,1.5-.78-.43c-.37,.76-.75,1.51-1.14,2.27Z"/><path class="h" d="M128.35,122.6c-.48,.01-1.45,.04-1.93,.04,.02-.21,.06-.63,.08-.84,1.13,.43,2.28,.83,3.41,1.25-.8,1-1.5,2.18-2.75,2.68,.46-1.02,.89-2.05,1.19-3.13Z"/><path class="h" d="M122.7,133.74c2.1-1.35,2.23-4.19,3.86-5.98l.32,.23c-.77,2.05-2.07,3.9-2.42,6.09-.36,2.02-1.39,3.85-2.43,5.58-.7-.24-1.41-.48-2.11-.71,.94-1.73,1.81-3.5,2.78-5.21Z"/><path class="g" d="M119.59,167.08c-.8,.14-1.56,.05-2.11-.58,2.86-1.48,6.22-1.98,8.68-4.17,.46,.99,2.27,3.51,.31,3.59-.22-.28-.66-.82-.88-1.09-1.11,.43-2.22,.86-3.33,1.31,.53,1.37,1.09,2.72,1.74,4.04,.74-.36,1.48-.72,2.22-1.07-.13-.88,.22-1.51,1.03-1.86,.62,1.47,1.23,2.96,1.36,4.56-.46-.31-1.38-.92-1.84-1.22-.79,.28-1.58,.57-2.35,.87,.5,1.45,1.07,2.87,1.69,4.27,1.12-.47,2.24-.93,3.36-1.41-.28-.97,.13-1.64,.97-2.05,.35,.97,.7,1.95,1,2.94-2.96,1.02-5.77,2.42-8.77,3.3l-.64-.6c.36-.24,1.07-.75,1.42-1-1.28-3.29-2.6-6.56-3.85-9.86Z"/><path class="h" d="M120.06,128.05c.24-.1,.75-.3,.99-.4-.21,.25-.65,.77-.87,1.02l-.3-.14,.17-.48Z"/><path class="g" d="M116.05,22.39c1.2-3.39,2.67-6.7,3.82-10.11-.43-.26-1.29-.8-1.72-1.06,1.37-1,2.83,.4,4.19,.73,.21,3.34,.75,6.65,.9,9.99,2.37-2.27,4.64-4.63,6.98-6.92,1.34,.71,3.54,.64,3.89,2.44-.5-.08-1.5-.25-2-.34-1.22,3.37-2.52,6.71-3.88,10.03,.82,.3,1.34,.87,1.59,1.71-2.11-.78-5.16-.9-6.26-3.11,.51,.09,1.53,.29,2.04,.38,.9-2.31,1.81-4.62,2.64-6.96-2.31,2.33-4.6,4.68-7.07,6.83-.43-3.14-.55-6.31-1.03-9.45-1.12,1.98-1.75,4.17-2.62,6.26,.62,.51,1.14,1.12,1.54,1.81-1.64-.35-3.3-.82-4.76-1.66-.02-.26-.06-.78-.08-1.04,.61,.15,1.22,.3,1.83,.45Z"/><path class="e" d="M115.3,131.07c1.37-.73,3.16-.73,4.09-2.15l-2.18,.75c.13-.4,.39-1.19,.52-1.58,1.24-.24,2.52-.69,3.19-1.87,.14,.47,.19,.95,.14,1.44-.24,.09-.75,.3-.99,.4l-.17,.48,.3,.14c.22-.25,.65-.77,.87-1.02,.72-.29,1.44-.55,2.18-.77-.55-.29-1.1-.58-1.61-.93,1.16-.12,2.34-.33,3.33-.99-.13,.31-.37,.94-.5,1.25l1.47-.1c-.6,1.8-1.95,3.19-3.39,4.36-1.66,1.35-2.74,3.22-3.97,4.93-.72-.35-1.43-.7-2.15-1.04,1.8-1.66,3.27-3.73,5.47-4.9,.88-.46,1.5-1.25,2.08-2.04-2.5,1.38-4.61,3.36-7.16,4.68-1.56,.77-2.78,2.04-4,3.25-.63-.55-1.27-1.1-1.91-1.65,1.5-.83,2.9-1.81,4.4-2.64Z"/><path class="h" d="M116.57,129.52c-1.38,1.03-2.82,1.98-4.29,2.89-.43-.3-1.3-.91-1.73-1.22,2.17-1.01,4.32-2.05,6.47-3.09-.03,.69-.04,1.38-.06,2.08l-.4-.65Z"/><path class="g" d="M99.23,96.94c-1.29,0-2.42-.79-3.56-1.28-.04-1.95-.04-3.9,0-5.86,7.05,.06,14.14,.77,21.02,2.35-.04,.66-.09,1.32-.14,1.98-1.4,.74-2.61,1.8-4.06,2.44-2.83,.75-4.79-2.45-7.59-2.06-2.1,.25-3.72,1.78-5.67,2.43Z"/><path class="g" d="M99.35,104.99c-1.33,.13-2.48-.7-3.65-1.19-.06-1.86-.07-3.72-.08-5.59,1.66,.54,3.55,1.29,5.23,.4,1.66-.67,3.18-2.22,5.08-1.88,2.01,.72,3.77,2.31,6.01,2.22,1.72-.2,3.09-1.34,4.43-2.33-.1,1.91-.15,3.82-.23,5.72-1.22,.8-2.32,1.81-3.68,2.37-2.59,.71-4.38-2.05-6.86-2.09-2.37-.14-4.13,1.7-6.26,2.37Z"/><path class="h" d="M114.48,81.06c.01,.72,0,1.42,0,2.13-.43-.04-1.3-.13-1.74-.18-.02-.4-.08-1.21-.11-1.61,.62-.11,1.24-.23,1.85-.35Z"/><path class="h" d="M113.02,77.4c-.21,.28-.62,.86-.82,1.15-.33,.04-1,.11-1.34,.14-.14-.53-.28-1.05-.41-1.57,.26-.11,.77-.34,1.02-.45,.51,.24,1.04,.48,1.56,.72Z"/><path class="h" d="M111.96,87.58c-.43-.04-1.29-.12-1.72-.16-.01-.42-.04-1.27-.05-1.69,.55-.08,1.09-.13,1.64-.18,.35,.63,.15,1.35,.13,2.03Z"/><path class="g" d="M114.06,170.66c.06-2.38-3.78-2.41-3.91-.16,.68,1.88,3.12,1.87,4.64,2.77,2.5,.85,3.57,4.33,1.78,6.35-1.6,1.87-4.31,1.26-6.4,2.1,0-1.36-1.68-3.6,.36-4.08,.13,1.92,2.23,2.54,3.73,1.62,1.07-.39,1.15-1.98,.23-2.58-1.58-1.1-3.56-1.39-5.19-2.4-2-1.43-1.95-5,.31-6.17,1.53-.68,3.23-.86,4.8-1.46,.07,1.25,1.51,3.51-.34,4Z"/><path class="h" d="M110.08,81.15c-.28,.07-.84,.21-1.12,.28,.1,.26,.31,.76,.41,1.01-.53-.1-1.06-.19-1.6-.25-.25-.53-.5-1.06-.75-1.59,.48,.03,.95-.05,1.4-.25,.55,.26,1.1,.53,1.66,.8Z"/><path class="h" d="M107.31,76.24c-.23,.68-.45,1.36-.67,2.04-.21-.19-.62-.58-.82-.78-.14,.21-.42,.63-.57,.83-.02-.53-.07-1.58-.09-2.11,.71-.01,1.42,0,2.14,.01Z"/><path class="h" d="M106.51,86.67c-.33,.06-.97,.18-1.29,.24,.01-.66-.25-1.17-.8-1.52,.41-.23,1.22-.68,1.64-.91,.07,.27,.21,.8,.28,1.07,.26-.09,.79-.26,1.05-.35-.36,.46-.65,.94-.89,1.47Z"/><path class="g" d="M108.33,10.26c-.9-.16-1.78-.35-2.69-.41-.63,.46-.91,2.33-1.91,1.15,0-1.32,.38-2.6,1-3.77,.35,.31,1.05,.95,1.4,1.27,2.67,.28,5.3,.83,7.95,1.22,.36-.12,1.08-.35,1.44-.47,.12,1.37,.62,3.84-1.4,3.95,0-.51,0-1.54,0-2.06-1-.09-2-.2-2.99-.3-.58,3.41-1.07,6.85-1.74,10.24,.77,.38,1.88,.43,2.08,1.49-2.25-.24-4.56-.39-6.7-1.14-.13-.2-.4-.6-.53-.8,.58,.02,1.76,.05,2.35,.07,.62-3.48,1.24-6.96,1.77-10.45Z"/><path class="h" d="M104.2,80.03c-.09,.41-.27,1.25-.36,1.67-.6,0-1.2,.03-1.8,.06,.51-.55,.15-1.13-.14-1.68,.76-.06,1.53-.12,2.3-.05Z"/><path class="h" d="M101.23,75.36c.08,.65,.14,1.31,.21,1.96-.62,.03-1.25,.05-1.87,.08,.23-.49,.21-.98-.03-1.47,.56-.19,1.12-.38,1.69-.57Z"/><path class="h" d="M100.84,84.1c.2,.53,.43,1.05,.6,1.59-.44,.6-1.22,.78-1.81,1.17,.05-.65,.09-1.31,.14-1.96,.26-.2,.8-.61,1.07-.81Z"/><path class="h" d="M97.04,81.93c.04-.9,.12-1.89-.83-2.35,.32,.11,.95,.33,1.26,.45,.06-.28,.19-.85,.25-1.12,.31,.29,.92,.87,1.23,1.17-.15,.53-.3,1.06-.45,1.59-.6-.58-1.11-.51-1.46,.26Z"/><path class="g" d="M95.63,106.3c1.22,.36,2.45,.94,3.76,.85,2.1-.39,3.71-2.03,5.79-2.45,2.19,.18,3.79,2.19,6.03,2.23,1.78,.25,3.26-.87,4.74-1.65-.37,2.48-.69,5.22-2.41,7.18-2.28,1.73-4.64-.61-6.78-1.38-2.78-1.04-5.06,1.41-7.52,2.22-1.31,0-2.42-.76-3.55-1.27-.06-1.91-.06-3.81-.06-5.72Z"/><path class="g" d="M110.65,115.33c-4.75,2.59-10.51,2.77-15.04,5.82,.03-2.21,.03-4.42,0-6.63,2.57,1.42,5.47,.73,7.74-.9,2.54-1.74,4.95,.9,7.29,1.7Z"/><path class="g" d="M111.96,87.58c.02-.68,.22-1.4-.13-2.03-.55,.04-1.09,.1-1.64,.18,.01,.43,.04,1.27,.05,1.69,.43,.04,1.29,.12,1.72,.16Zm2.52-4.39c.01-.71,.02-1.42,0-2.13-.62,.11-1.23,.23-1.85,.35,.03,.4,.08,1.21,.11,1.61,.44,.04,1.31,.13,1.74,.18Zm-2.28-4.65c.21-.29,.62-.87,.82-1.15-.52-.24-1.04-.48-1.56-.72-.25,.11-.76,.33-1.02,.45,.14,.52,.28,1.04,.41,1.57,.33-.04,1-.11,1.34-.14Zm-3.23,2.89c.28-.07,.83-.21,1.12-.28-.55-.27-1.1-.53-1.66-.8-.45,.2-.92,.28-1.4,.25,.25,.53,.5,1.05,.75,1.59,.54,.06,1.07,.15,1.6,.25-.1-.25-.31-.75-.41-1.01Zm-7.52-4.11c-.07-.65-.14-1.31-.21-1.96-.57,.19-1.13,.38-1.69,.57,.24,.49,.26,.98,.03,1.47,.62-.03,1.25-.06,1.87-.08Zm2.39,4.37c.09-.42,.28-1.26,.36-1.67-.77-.07-1.54-.01-2.3,.05,.29,.55,.65,1.12,.14,1.68,.6-.03,1.2-.05,1.8-.06Zm1.37,5.22c.32-.06,.97-.18,1.29-.24,.23-.53,.53-1.01,.88-1.47-.26,.09-.79,.26-1.05,.35-.07-.26-.21-.8-.28-1.07-.41,.23-1.23,.68-1.64,.91,.55,.36,.81,.87,.8,1.52Zm.61-9.41c.21,.19,.62,.58,.82,.78,.21-.68,.44-1.36,.67-2.04-.72-.02-1.43-.03-2.14-.01,.02,.53,.07,1.58,.09,2.11,.14-.21,.43-.63,.57-.83Zm-7.32,4.16c.15-.53,.3-1.06,.45-1.59-.31-.3-.92-.88-1.23-1.17-.06,.28-.19,.84-.25,1.12-.31-.11-.94-.34-1.26-.45,.95,.46,.87,1.44,.83,2.35,.35-.77,.86-.84,1.46-.26Zm1.12,5.2c.59-.4,1.37-.58,1.81-1.17-.17-.55-.4-1.07-.6-1.59-.27,.2-.8,.61-1.07,.81-.05,.65-.09,1.31-.14,1.96Zm-3.11-10.88c-.71-.23-1.11-.75-1.32-1.43-.06,.83-.52,1.26-1.39,1.31,.26,.53,.51,1.05,.77,1.59,.19-.14,.58-.41,.78-.55l.42,.85c.07-.66,.07-1.39,.75-1.76Zm-2.31,10.27c.46,0,1.39,0,1.85,.01-.03-.61,.18-1.12,.64-1.51-.57-.12-1.07-.36-1.51-.75-.38,.23-1.14,.7-1.52,.93,.24,.08,.74,.23,.99,.31-.11,.25-.34,.75-.45,1.01Zm-4.02-9.8c.24-.08,.73-.21,.97-.29-.57-.29-1.12-.59-1.68-.89-.32,.46-.75,.73-1.29,.85,.16,.31,.48,.94,.65,1.26,.45,.02,1.35,.08,1.8,.11-.11-.26-.34-.78-.45-1.04Zm.75,10.29c-.26-.84-.25-1.75,.77-1.98-.72,.08-1.36-.08-1.92-.51-.22,.16-.65,.47-.87,.63,.14,.43,.28,.87,.41,1.3,.58,.04,1.12,.23,1.6,.56Zm.94-5.59c.51,.19,1.01,.38,1.52,.57-.19-.83,.06-1.47,.76-1.93-.62,.05-1.23,.04-1.47-.65-.29,.24-.89,.72-1.19,.96,.13,.35,.26,.7,.38,1.05Zm-6.63,5.62c.18-.34,.53-1.01,.72-1.35-.46-.25-.91-.51-1.36-.76-.51,.34-1.02,.68-1.53,1.02h.99c-.06,.26-.19,.76-.26,1.02,.36,.01,1.09,.05,1.45,.07Zm1.44-6.18c-.06,.24-.17,.72-.23,.96,.62,.06,1.24,.13,1.87,.19-.13-.51-.12-1.02,.04-1.52-.32-.13-.96-.37-1.28-.49-.51,.23-1.02,.46-1.53,.7,.28,.04,.83,.12,1.12,.16Zm-6.83-1.97c-.55-.44-.6-.95-.18-1.53-.57-.19-1.12-.4-1.68-.6l-.05,.92c-.26-.08-.8-.24-1.07-.32,.45,.47,.9,.95,1.34,1.44,.55,.02,1.09,.06,1.64,.09Zm.53,8.93c-.03-.46-.08-1.4-.11-1.86-.62-.02-1.34-.33-1.86,.14,.03,.55,.08,1.09,.14,1.64,.46,.02,1.37,.06,1.83,.08Zm.88-5.04c.47-.3,.97-.45,1.51-.22,.05-.41,.14-1.26,.19-1.68-.8-.11-1.59-.02-2.38,.09,.49,.51,.71,1.11,.67,1.81Zm2.28-5.6c-.1,.24-.3,.73-.41,.97,.69,.02,1.37,.04,2.06,.09-.57-.6-.09-1.29,.14-1.9-.53,.18-1.02,.08-1.44-.31-.51,.4-1.02,.8-1.52,1.2l1.17-.06Zm33.25,13.96c-14.28-2.93-29.11-2.98-43.38,.01-.45-5.2-.52-10.41-.76-15.62,3.23-.63,6.48-1.18,9.75-1.6,6.63-.84,13.32-1.14,19.98-.51,2.76,.18,5.5,.49,8.22,.9,2.3,.35,4.58,.77,6.85,1.25,.01,5.2-.56,10.37-.66,15.56Zm-40.79-7.83c.53,0,1.59,0,2.12,.01-.21-.18-.65-.52-.87-.69,.19-.21,.58-.62,.77-.83-.68-.19-1.37-.38-2.05-.58,0,.7,0,1.39,.02,2.08Z"/><path class="h" d="M94.71,9.07c1.68,0,3.3,1.47,2.56,3.25-.26,1.46-1.79,1.71-3.03,1.81-.01-1.68-.01-3.35,0-5.01,.16-.03,.31-.04,.47-.04Z"/><path class="h" d="M95.2,74.56c.21,.68,.62,1.2,1.32,1.43-.68,.37-.68,1.1-.75,1.76l-.42-.85c-.19,.14-.58,.41-.78,.55-.26-.53-.51-1.06-.77-1.59,.87-.04,1.34-.48,1.39-1.31Z"/><path class="h" d="M94.21,86.26c.11-.26,.34-.76,.45-1.01-.24-.08-.74-.23-.99-.31,.38-.23,1.14-.7,1.52-.93,.43,.38,.94,.63,1.51,.75-.46,.4-.67,.9-.64,1.51-.46,0-1.39-.01-1.85-.01Z"/><path class="g" d="M97.27,12.31c.73-1.77-.88-3.25-2.56-3.25v-1.15c1.12,0,2.25,.03,3.36,.17,3.17,1.02,2.84,6.16-.36,6.98,.95,1.59,1.95,3.16,2.99,4.69,.48,.13,1.44,.4,1.91,.53-1.05,1.29-2.94,.74-4.37,.65-1.56-1.74-2.52-3.92-3.93-5.76l-.06-1.05c1.24-.09,2.76-.35,3.03-1.81Z"/><path class="g" d="M75.25,110.2c-.24-.7-.47-1.41-.65-2.13-.17-.72-.28-1.46-.3-2.2-.24-4.61-.77-9.21-.67-13.84,6.86-1.41,13.86-2.24,20.86-2.23-.01,5.03,.05,10.07-.03,15.1-1.33-.92-2.37-2.15-3.22-3.52-1.07-.88-2.28-1.59-3.41-2.41-.61,.88-1.6,1.22-2.56,1.52-1.07,1.67-2.62,2.87-4.2,4.01-1,1.36-1.85,2.87-3.18,3.96-.26-.18-.78-.53-1.05-.71-.53,.81-1.05,1.62-1.59,2.44Z"/><path class="h" d="M93.4,81.73c-.51-.19-1.01-.38-1.52-.57-.13-.35-.26-.7-.38-1.05,.3-.24,.9-.72,1.19-.96,.24,.68,.85,.7,1.47,.65-.7,.46-.95,1.1-.76,1.93Z"/><path class="g" d="M94.22,19.92c.33,.01,1,.03,1.34,.04v1.09c-1.88,0-3.77,0-5.64,0,0-.28,0-.82,0-1.09,.37-.02,1.12-.06,1.49-.08,0-3.64,0-7.28,0-10.92-.36,0-1.08,0-1.44,0-.02-.26-.05-.78-.07-1.04,1.6,.05,3.21-.03,4.81-.03v1.15c-.15,0-.31,.01-.46,.04,0,1.67,0,3.34,0,5.01l.06,1.05c-.07,1.58-.08,3.16-.08,4.74Z"/><path class="h" d="M89.17,170.22c5.15-.97,7.17,6.53,3.65,9.47-1.04,1.21-2.72,.84-4.12,.97,.28-3.48,.29-6.97,.47-10.44Z"/><path class="h" d="M91.16,76.17c-.24,.08-.73,.21-.97,.29,.11,.26,.34,.78,.45,1.04-.45-.03-1.35-.08-1.8-.11-.16-.32-.48-.95-.65-1.26,.55-.11,.97-.39,1.29-.85,.55,.3,1.11,.6,1.68,.89Z"/><path class="h" d="M91.71,84.77c-1.02,.23-1.03,1.14-.77,1.98-.48-.33-1.02-.51-1.6-.56-.14-.43-.28-.87-.41-1.3,.22-.16,.65-.47,.87-.63,.56,.43,1.2,.59,1.92,.51Z"/><path class="g" d="M94.46,57.6c-1.05,.42-2.12,.8-3.19,1.19-.67-.4-1.33-.78-2-1.17,1.71-.19,3.51-.67,5.18-.01Z"/><path class="h" d="M88.33,81.75c-.63-.07-1.25-.13-1.87-.19,.06-.24,.17-.72,.23-.96-.28-.04-.84-.11-1.12-.16,.51-.23,1.02-.46,1.53-.7,.32,.12,.96,.36,1.28,.49-.16,.5-.18,1.01-.04,1.52Z"/><path class="g" d="M85.88,180.62c.4-3.58,.24-7.19,.4-10.79-.35-.01-1.05-.04-1.39-.06v-1.09c3.66,.27,8.11-.75,10.95,2.2,3.41,3.21,1.78,9.8-2.79,10.94-3,.45-6.08,.22-9.07-.2,.51-.55,1.14-.87,1.9-1Zm6.93-.93c3.52-2.94,1.5-10.44-3.65-9.47-.18,3.48-.19,6.97-.47,10.44,1.41-.13,3.09,.23,4.12-.97Z"/><path class="h" d="M85.96,85.43c-.18,.34-.54,1.01-.72,1.35-.36-.02-1.09-.06-1.45-.07,.07-.26,.2-.76,.26-1.02h-.99c.51-.34,1.02-.68,1.53-1.02,.45,.25,.9,.51,1.36,.76Z"/><path class="h" d="M83.14,77.89c.11-.24,.31-.73,.41-.97l-1.17,.06c.5-.4,1-.8,1.52-1.2,.43,.38,.91,.48,1.44,.31-.23,.61-.7,1.29-.14,1.9-.69-.04-1.37-.07-2.06-.09Z"/><path class="h" d="M89.28,57.61c.67,.39,1.33,.78,2,1.17,1.07-.38,2.13-.77,3.19-1.19-1.67-.66-3.47-.18-5.18,.01Zm13.1,15.55c-6.66-.63-13.35-.33-19.98,.51l-.17-1.32c1.7-.23,3.41-.42,5.12-.57,1.1-1.56,2.36-2.99,3.87-4.18,1.25-.87,1.46-2.66,.74-3.94-1.16-2.65-5.17-3.4-7.11-1.21,.16-1.21-.48-2.81,.67-3.67,.95-.83,2.27-.99,3.43-1.39,.06-.26,.19-.78,.25-1.04,2.64-1.19,5.87-1.3,8.61-.41,2.22,1.63,4.31,3.67,7.27,3.73-1.27,.7-2.65,1.16-4.07,1.39,.99,3.5,1.2,7.14,1.69,10.72,2.72,.17,5.41,.62,8.1,1l-.2,1.28c-2.72-.41-5.47-.72-8.22-.9Z"/><path class="h" d="M82.78,82.3c-.54-.23-1.04-.08-1.51,.22,.04-.7-.18-1.3-.67-1.81,.78-.11,1.58-.2,2.38-.09-.05,.42-.14,1.26-.19,1.68Z"/><path class="h" d="M82.48,16.62c-1.09,.15-2.18,.31-3.26,.48,.26-1.51,.54-3.02,.8-4.53,.87,1.32,1.68,2.68,2.47,4.05Z"/><path class="h" d="M80.29,85.69c.03,.46,.08,1.4,.11,1.86-.46-.02-1.37-.06-1.83-.08-.07-.55-.11-1.09-.14-1.64,.53-.47,1.24-.16,1.86-.14Z"/><path class="h" d="M78.22,78.53c-.44-.49-.88-.97-1.34-1.44,.26,.08,.8,.24,1.07,.32l.05-.92c.56,.2,1.12,.4,1.68,.6-.43,.58-.37,1.09,.18,1.53-.55-.04-1.09-.08-1.64-.09Z"/><path class="g" d="M82.48,16.62c-.78-1.37-1.6-2.72-2.47-4.05-.26,1.51-.54,3.02-.8,4.53,1.09-.17,2.18-.33,3.26-.48Zm-5.87,5.07c.98-4.3,1.85-8.62,2.81-12.93,.37-.04,1.12-.13,1.49-.18,2.62,4.15,4.61,8.79,8.02,12.36-1.82,.43-3.67,.75-5.54,.83,.36-.57,.77-1.09,1.25-1.56-.41-.75-.83-1.49-1.24-2.25-1.55,.19-3.09,.46-4.63,.73-.2,.99-.41,1.98-.63,2.96,.48,0,1.44,.03,1.92,.03-.77,1.85-3.25,1.11-4.81,1.58,.29-.67,.74-1.2,1.36-1.59Z"/><path class="h" d="M78.13,83.06c-.53,0-1.59-.01-2.12-.01-.02-.7-.03-1.39-.03-2.08,.68,.19,1.37,.39,2.05,.58-.19,.21-.58,.62-.77,.83,.22,.17,.65,.51,.87,.69Z"/><path class="g" d="M79.32,115.1c-1.7-1.01-2.8-2.7-3.78-4.36,6.18-.1,12.36,.1,18.54-.11,.13,.52,.21,1.05,.29,1.58,.36,2.87,.02,5.83-.13,8.71-4.45-3.11-10.27-3.09-14.91-5.82Z"/><path class="h" d="M94.07,110.63c-6.18,.21-12.36,0-18.54,.11l-1.44-.1c-.24-.77-.45-1.55-.62-2.34l1.13-.23c.18,.72,.4,1.43,.65,2.13,.53-.82,1.06-1.63,1.59-2.44,.26,.18,.78,.53,1.05,.71,1.34-1.09,2.18-2.6,3.18-3.96,1.58-1.14,3.13-2.34,4.2-4.01,.96-.31,1.95-.65,2.56-1.52,1.12,.82,2.33,1.52,3.41,2.41,.85,1.36,1.89,2.59,3.22,3.52l1.17,1.4c0,1.91,0,3.81,.06,5.72l-1.32,.19c-.07-.53-.16-1.06-.29-1.58Z"/><path class="g" d="M71.76,167.33c-.64-.57-1.88-.72-1.9-1.75,1.47-.22,2.89,.34,4.3,.66,1.41,3.27,2.55,6.64,4.04,9.88,.5-2.5,1.1-4.97,1.7-7.45-.38-.03-1.15-.11-1.53-.14,.08-.3,.24-.92,.32-1.22,1.49,.7,4.2,.13,4.62,2.13-.5-.04-1.49-.13-1.98-.16-.88,3.96-1.86,7.9-2.82,11.85-.38-.06-1.13-.19-1.51-.25-1.56-3.47-2.69-7.12-4.42-10.52-.5,2.5-1.12,4.96-1.69,7.44,.82,.21,1.36,.71,1.62,1.49-1.68-.15-3.36-.47-4.96-1.01-.44-1.23,1.85-.49,1.97-1.52,.8-3.13,1.47-6.28,2.23-9.41Z"/><path class="g" d="M34.1,44.74c-.21-1.71,2.2-2.1,3.32-2.88-1.91-1.64-2.85-4.1-2.43-6.61,2.89,1.87,5.86,3.64,9.11,4.83,6.62,2.68,14.32,3.97,19.27,9.58,1.87,1.84,2.08,4.73,1.25,7.12-.94,2.83-2.2,5.82-1.39,8.85,.93,4.24,4.37,7.33,7.93,9.49,.13,2.96,.29,5.91,.55,8.86-1,.41-2,.81-3.01,1.2-.5-1.64-.72-3.36-.58-5.08-2.09,.84-4.31,1.31-6.56,1.36,.14-2.27,.94-4.42,2.05-6.38-2.22,.24-4.46,.14-6.68-.09,.61-1.63,1.45-3.17,2.59-4.49-2.72-.15-5.43-.69-7.84-1.98,1.26-1.66,2.72-3.17,4.37-4.43-2.72-.23-5.46-.58-8.05-1.52,1.04-1.34,2.13-2.63,3.24-3.9-2.67-.6-5.45-1.04-7.88-2.39,.64-1.1,1.52-2.03,2.44-2.89-2.83,.01-5.56-.81-8.1-2.01,.83-1.09,1.71-2.16,2.64-3.17-2.32-.64-4.52-1.74-6.24-3.44Z"/><path class="h" d="M69.93,18.98c-1.71-1.25-1.93-3.48-2.58-5.34,1.17-.17,2.91-.56,3.39,.92,1.07,1.52,.5,3.27-.81,4.42Z"/><path class="g" d="M69.93,18.98c1.31-1.15,1.88-2.9,.81-4.42-.48-1.48-2.22-1.09-3.39-.92,.65,1.86,.87,4.09,2.58,5.34Zm-4.58-5.99c2.03-.57,4.14-1.78,6.3-1.09,2.26,.82,3.02,3.89,1.72,5.82-.83,1.42-2.51,1.89-3.97,2.36,.45,1.22,.87,2.46,1.25,3.7,.9-.19,1.68,0,2.35,.58-2.13,.79-4.26,1.71-6.55,1.9,.41-.6,.92-1.13,1.51-1.58-1.04-3.37-2.26-6.69-3.3-10.07-.48,.03-1.46,.1-1.95,.14,.21-1.29,1.65-1.34,2.63-1.76Z"/><path class="g" d="M76.07,73.22c-3.92-.74-7.34-3.82-8.76-7.51-1.82-4.88,2.39-9.53,.97-14.42-.4-2.48-2.37-4.16-4.09-5.79,19.24-12.27,45.68-11.57,64.28,1.63-2.81,1.63-6.1,3.32-7.19,6.61-1.03,3.99,1.05,8,.48,12.03-.32,3.41-2.84,6.56-6.11,7.59-1.62-.13-3.23-.35-4.85-.58-2.69-.39-5.38-.83-8.1-1-.49-3.58-.71-7.22-1.69-10.72,1.42-.23,2.8-.7,4.07-1.39-2.96-.06-5.05-2.1-7.27-3.73-2.74-.89-5.97-.78-8.61,.41-.06,.26-.19,.78-.25,1.04-1.16,.4-2.48,.56-3.43,1.39-1.14,.86-.51,2.46-.67,3.67,1.95-2.18,5.95-1.44,7.11,1.21,.72,1.28,.51,3.07-.74,3.94-1.51,1.19-2.77,2.62-3.87,4.18-1.71,.15-3.42,.35-5.12,.57-2.06,.26-4.11,.56-6.16,.86Z"/><path class="h" d="M72.6,136.78c-.84-.31-1.68-.62-2.52-.93-.62-3.11-2.05-6.09-4.34-8.32-.87-.96-2.39-1.76-1.63-3.35,4.34,2.87,7.33,7.56,8.49,12.6Z"/><path class="e" d="M62.29,122.42c.87-.41,1.16-.16,.9,.75-.87,.41-1.17,.16-.9-.75Z"/><path class="h" d="M62.13,165.49c-.07,1.48-.16,2.97-.24,4.46-1.01-.42-2.01-.86-3.01-1.31,1.04-1.1,2.12-2.15,3.26-3.15Z"/><path class="h" d="M59.47,127.15c-1-.41-1.69-1.21-2.13-2.18-.13-.2-.31-.43-.48-.69l.26-.16c.51-.04,1.52-.14,2.03-.18-.5,.64-.66,1.32-.5,2.05,.41,.02,1.24,.06,1.64,.07,.12,.86,.6,1.39,1.45,1.58,1.62-.72,.87-2.1-.69-1.86,.15-.21,.44-.64,.59-.86-1.1-.04-1.47-.99-1.88-1.84,.38-.03,1.13-.09,1.51-.12,.7,1.83,2.78,3.78,1.11,5.69-1.04-.35-2.08-.74-2.9-1.51Z"/><path class="h" d="M95.62,114.53c.03,2.21,.03,4.42,0,6.63,4.54-3.05,10.29-3.23,15.04-5.82-2.34-.8-4.76-3.44-7.29-1.7-2.28,1.63-5.17,2.32-7.74,.9Zm-36.6,7.95c-.46-.09-1.37-.28-1.83-.36-.02,.5-.06,1.5-.09,2l-.26,.16c-.44-.63-.89-1.38-.8-1.97,.07-.38,.36-.68,1.05-.84-.47-.32-.94-.63-1.4-.95,.25-1.5,1.32-1.11,2.3-.72l-.99,.21c.29,.52,.58,1.03,.87,1.54,1.22-1.14,2.72-2.09,4.46-1.83,2.7,.18,5.35-.61,7.56-2.17-.51-.16-1.54-.47-2.05-.63,1.17-.7,2.38-1.34,3.6-1.96-.53-.42-1.07-.84-1.6-1.25,1.59-.77,2.99-1.83,4.24-3.08l1.44,.1c.99,1.66,2.08,3.35,3.78,4.36,4.64,2.73,10.46,2.72,14.91,5.82,.15-2.88,.5-5.84,.13-8.71l1.32-.2c1.14,.52,2.25,1.28,3.55,1.27,2.46-.81,4.74-3.25,7.52-2.22,2.15,.77,4.5,3.11,6.78,1.38,1.72-1.96,2.04-4.7,2.41-7.18l1.15,.16c-.24,1.77-.56,3.53-.98,5.27,1.26,1.19,2.57,2.3,3.99,3.29-.48,.32-.95,.63-1.43,.95,1.21,.62,2.4,1.26,3.56,1.97-.52,.16-1.57,.49-2.1,.65,2.92,2.38,6.78,1.4,10.15,2.29,.24-.53,.48-1.05,.73-1.58l.26,.12c-.08,.87-.29,1.71-.66,2.5-1.64-1.22-3.66-1.04-5.6-.83-.6,.76-1.15,1.58-1.84,2.26-2.09-.55-4.18-1.11-6.26-1.68,.08,.52,.25,1.54,.33,2.05-1.38-.78-2.76-1.56-4.17-2.26,.06,.48,.17,1.43,.23,1.91-2.3-1.21-4.96-3.22-7.49-1.32,1.68,1.86,2.83,4.1,3.55,6.48-.68-.13-2.05-.36-2.74-.49,.33,1.56,.63,3.11,.91,4.68-1.04-.43-2.07-.88-3.09-1.33,0,1.66-.06,3.31-.27,4.96-1.04-.8-2.06-1.63-3.06-2.47-.32,1.66-.73,3.29-1.27,4.89-.97-.94-1.89-1.91-2.8-2.91-.59,1.63-1.36,3.19-2.27,4.67-1.03-1.4-1.81-2.95-2.47-4.54-.75,.98-1.59,1.88-2.48,2.74-.54-1.59-.97-3.21-1.31-4.86-.99,.85-2.02,1.63-3.09,2.37-.18-1.61-.26-3.25-.2-4.86-1,.44-2,.88-3.01,1.32,.16-1.57,.43-3.13,.83-4.65-.91,.15-1.83,.29-2.74,.43,.76-2.46,2.11-4.66,3.62-6.73-2.62-1.39-4.97,.58-7.27,1.63,.11-.5,.34-1.5,.45-2-1.41,.74-2.79,1.53-4.17,2.32,.04-.5,.11-1.48,.15-1.98-1.89,.68-3.78,1.44-5.78,1.72-.79-.38-.97-1.36-1.44-2.02-2.24-.27-4.6-.44-6.72,.51-.05,.52-.1,1.04-.15,1.56Z"/><path class="g" d="M56.77,29.99c-1.42-3.23-3.24-6.27-4.74-9.46-.46,.12-1.37,.36-1.83,.48-.13-1.37,1.42-1.63,2.28-2.23,2.05-.94,4.03-2.05,5.8-3.41,.58,1.1,1.78,2.33,.98,3.64-.57-.41-1.14-.83-1.7-1.25-.95,.56-1.91,1.12-2.87,1.67,.64,1.26,1.27,2.52,1.93,3.77,.77-.4,1.53-.8,2.3-1.2-.49-1.04-.22-1.65,.8-1.83,.78,1.34,1.77,2.74,1.59,4.37-.64-.36-1.28-.73-1.91-1.12-.71,.35-1.42,.7-2.13,1.05,.7,1.34,1.39,2.7,2.07,4.05,1.14-.58,2.27-1.15,3.4-1.73-.48-.88-.32-1.64,.61-2.11,.47,.9,.93,1.81,1.39,2.72-2.84,1.58-5.75,3.01-8.64,4.48-.08-.26-.23-.78-.31-1.04,.24-.21,.74-.63,.99-.83Z"/><path class="g" d="M58.87,168.64c1,.45,2,.88,3.01,1.31,.08-1.49,.18-2.97,.24-4.46-1.14,1-2.22,2.05-3.26,3.15Zm-2.06,4.41c-1.63,.54-3.72-.71-4.62-2.08h1.76c3.4-2.84,6.43-6.11,9.72-9.07,.31,.13,.94,.39,1.26,.51-.16,2.91-.22,5.83-.44,8.74-.09,2.04-.64,4.2,.43,6.1-1.83-.55-3.58-1.34-5.22-2.31,.55-.59,1.2-.72,1.95-.37,.02-.99,.05-1.96,.09-2.94-1.4-.68-2.82-1.32-4.26-1.9-.63,.66-1.27,1.33-1.9,2,.31,.33,.92,.98,1.22,1.31Z"/><path class="g" d="M55.27,110.22c-.79,1.9-1.65,3.77-2.43,5.68-.19-2.21,1-4.12,2.43-5.68Z"/><path class="h" d="M54.92,122.18c-.06,1.19-1.24,1.21-2.11,1.44,.02-.68-.72-1.57-.11-2.15,.23-.48,.67-.61,1.09-.52,.57,.12,1.12,.63,1.14,1.22h0Z"/><path class="h" d="M51.78,120.87c-.83,.23-1.41-.73-1.12-1.36,.09-.18,.26-.34,.51-.42,.55-.23,1.02,.1,1.23,.53,.24,.5,.13,1.14-.62,1.24Z"/><path class="g" d="M50.77,170.53c-2.5-1.63-5-3.25-7.45-4.95-1.46-.87,.77-1.53,1.39-.68,1.94-2.9,4.05-5.71,5.76-8.75-.21-.48-.64-1.44-.85-1.93,2,.92,4.5,1.86,5.42,4.03-.5-.14-1.51-.43-2.01-.58-1.91,2.94-3.92,5.83-5.81,8.79,1.02,.66,2.03,1.37,3.11,1.93,.35-.29,1.04-.85,1.37-1.14,1.04,1.21-.42,2.23-.92,3.27Z"/><path class="g" d="M50.72,116.23c-.92-2.41-.65-5.17,.68-7.37-.43,2.43-.66,4.89-.68,7.37Z"/><path class="h" d="M51.03,123.15c-1.05,2.77-2.03,5.59-2.3,8.56-.7-3.04,.25-6.25,2.3-8.56Z"/><path class="h" d="M52.84,115.9c.78-1.91,1.64-3.78,2.43-5.68-1.42,1.56-2.62,3.47-2.43,5.68Zm.2,3.63c-.2-1.43,.18-3.05-.7-4.31-1.01,.58-1.58,1.68-2.3,2.55-.52-.26-1.03-.53-1.54-.79,.4-.58,.8-1.17,1.19-1.75-.28-1.35-.35-2.73-.27-4.1l.08-.02c.02,.08,.04,.16,.07,.24,.24-2.27,1.72-4.06,3.35-5.52,.04,1.66,.05,3.32,.05,4.98,1.42-1.31,3.01-2.42,4.82-3.11-.21,3.42-1.24,7.29-4.65,8.84,.78,.8,2.91,1.42,1.98,2.81-.4,.3-.82,.43-1.26,.4-.26-.02-.54-.09-.82-.22Zm-2.32-3.31c.02-2.47,.26-4.93,.68-7.37-1.34,2.2-1.61,4.96-.68,7.37Z"/><path class="h" d="M44.88,127.22c.77-2.4,2.17-4.7,4.44-5.92-1.49,1.97-2.93,3.97-4.44,5.92Z"/><path class="h" d="M50.57,33.07c-.21,1.47-1.53,2.31-2.56,3.19-2.07-2.91-4.36-5.67-6.21-8.73,1.32-.53,2.65-1.76,4.15-1.17,2.88,.71,5.09,3.75,4.62,6.72Z"/><path class="h" d="M47.65,119.58c-.2-1.84,2.29-1.24,2.03-.16-.01,.06-.03,.11-.06,.16-.28,.24-.82,.72-1.1,.95l-.47-1.05c-.13,.06-.24,.11-.37,.18l-.04-.08Z"/><path class="g" d="M45.97,113.85c-.26-2.16-.32-4.37,.36-6.47,.43,2.09,.13,4.24,.19,6.36l-.55,.11Z"/><path class="h" d="M45.45,117.41c-2.19,.4-4.34,1.02-6.52,1.45,1.74-1.01,3.73-1.39,5.73-1.51-.26-.27-.79-.79-1.05-1.05,.16-.5,.31-.99,.45-1.49,.6,.26,1.2,.52,1.8,.77-.29,.58-.58,1.15-.87,1.73,.51,0,1.54-.03,2.06-.04,.18,.78,.36,1.55,.6,2.31l.04,.08c-.26,.12-.53,.24-.79,.37-1.98,.11-3.7,1.15-5.48,1.91,1.52-1.64,3.67-2.42,5.88-2.5-.6-.69-1.14-1.44-1.85-2.02Z"/><path class="g" d="M45.95,26.35c-1.51-.59-2.84,.65-4.15,1.17,1.85,3.06,4.15,5.82,6.21,8.73,1.04-.88,2.35-1.72,2.56-3.19,.47-2.97-1.74-6.01-4.62-6.72Zm-6.51,3.02c-.59,.26-1.19,.51-1.78,.76-.34-1.12,.78-1.57,1.42-2.15,1.71-1.19,3.29-2.62,5.22-3.46,2.05-.55,4.45-.44,6.19,.88,2.93,2.11,3.62,6.82,1.24,9.58-1.5,1.54-3.34,2.69-5.11,3.87-2.67-2.94-4.82-6.29-7.17-9.47Z"/><path class="h" d="M41.79,109.15c.8-.5,2.01,.58,1.27,1.36-.39,.53-.97,.44-1.36,.13-.33-.27-.52-.7-.35-1.07,.08-.16,.22-.3,.45-.42Z"/><path class="h" d="M44.02,100.7c-1.64,1.69-1.15,4.56-2.87,5.99-.33-3.31,1.34-6.68,4.41-8.09,.44,1.93,.77,4.06-.13,5.91-.88,1.69-2.42,2.89-3.81,4.14,.05-.44,.14-1.32,.19-1.76,1.41-1.74,1.52-4.12,2.21-6.18Z"/><path class="h" d="M46.33,107.38c-.68,2.1-.62,4.31-.36,6.47l.55-.11c-.06-2.12,.24-4.27-.19-6.36Zm-3.55,6.03c-1.39-2.27-4.22-2.57-6.4-3.73,1.8,.06,3.38,.8,4.91,1.65,.7,.38,1.37,.79,2.06,1.17,.52-.52,1.01-1.07,1.51-1.61-.13-2.57,1-4.95,2.77-6.75,1.71,2,1.16,4.67,1.85,6.99l-.08,.02c-.26,.16-.79,.47-1.05,.63-.43,1.07-1.03,2.07-1.64,3.06-.75-.83-1.51-1.67-2.28-2.47-.56,.34-1.12,.7-1.66,1.06Z"/><path class="g" d="M127.17,125.73c1.25-.5,1.95-1.68,2.75-2.68-1.14-.42-2.28-.82-3.41-1.25-.02,.21-.06,.63-.08,.84,.48,0,1.44-.03,1.93-.04-.3,1.08-.73,2.11-1.19,3.13Zm-16.61,5.46c.43,.31,1.29,.92,1.73,1.22,1.46-.9,2.91-1.86,4.29-2.89l.4,.65c.02-.7,.04-1.39,.06-2.08-2.15,1.05-4.31,2.08-6.47,3.09Zm4.74-.13c-1.49,.83-2.9,1.81-4.39,2.64,.63,.55,1.27,1.1,1.91,1.65,1.22-1.21,2.44-2.47,4-3.25,2.55-1.32,4.66-3.3,7.16-4.68-.58,.79-1.19,1.58-2.08,2.04-2.2,1.17-3.68,3.24-5.47,4.9,.72,.35,1.43,.69,2.15,1.04,1.24-1.71,2.32-3.58,3.97-4.93,1.44-1.17,2.79-2.56,3.39-4.36l-1.47,.1c.13-.31,.37-.94,.5-1.25-.99,.67-2.17,.87-3.33,.99,.51,.35,1.06,.63,1.61,.93-.74,.22-1.47,.48-2.18,.77,.05-.49,0-.97-.14-1.44-.67,1.18-1.95,1.63-3.19,1.87-.13,.4-.39,1.19-.52,1.58l2.18-.75c-.94,1.41-2.73,1.42-4.09,2.15Zm-51.19-6.88c-.77,1.59,.76,2.39,1.63,3.35,2.3,2.23,3.73,5.21,4.34,8.32,.84,.31,1.68,.62,2.52,.93-1.15-5.04-4.15-9.72-8.49-12.6Zm-.93-1.01c.26-.91-.03-1.16-.9-.75-.28,.92,.03,1.17,.9,.75Zm-12.16-.02c-2.05,2.32-3,5.52-2.3,8.56,.27-2.98,1.25-5.79,2.3-8.56Zm-1.71-1.86c-2.27,1.23-3.67,3.52-4.44,5.92,1.51-1.96,2.95-3.95,4.44-5.92Zm-5.33,2.11c-1.33-.48-2.84,.33-4.22,.37,.26-.68,.56-1.36,.91-2.01l.75,.16c1.78-.75,3.5-1.8,5.48-1.91,.26-.13,.53-.25,.79-.37,.13-.06,.24-.12,.37-.18l.47,1.05c.28-.24,.82-.72,1.1-.96,.03-.06,.04-.11,.06-.16l.97,.1c-.29,.62,.29,1.58,1.12,1.36,.75-.11,.86-.75,.62-1.24l.64-.09c.28,.13,.55,.21,.82,.22l-.07,1.19c-.43-.09-.86,.04-1.09,.52-.61,.58,.13,1.47,.11,2.15,.87-.23,2.05-.24,2.11-1.44l1.13,.13c-.09,.59,.36,1.34,.8,1.97,.18,.26,.35,.49,.48,.69,.45,.97,1.13,1.77,2.13,2.18,.82,.77,1.86,1.15,2.9,1.51,1.67-1.91-.41-3.87-1.11-5.69-.38,.03-1.13,.09-1.51,.12,.41,.85,.78,1.8,1.88,1.84-.15,.22-.44,.65-.59,.86,1.56-.24,2.31,1.14,.69,1.86-.85-.19-1.33-.72-1.45-1.58-.41-.02-1.23-.06-1.64-.07-.17-.73,0-1.41,.5-2.05-.51,.04-1.52,.14-2.03,.18,.03-.5,.07-1.5,.09-2,.46,.09,1.37,.27,1.83,.36,.04-.53,.09-1.05,.14-1.56,2.11-.95,4.48-.79,6.72-.52,.48,.66,.65,1.64,1.44,2.02,2-.28,3.89-1.04,5.78-1.72-.04,.5-.11,1.48-.15,1.98,1.38-.78,2.76-1.58,4.17-2.32-.11,.5-.34,1.5-.45,2,2.3-1.05,4.65-3.02,7.27-1.63-1.51,2.07-2.86,4.27-3.62,6.73,.91-.14,1.83-.28,2.74-.43-.4,1.52-.67,3.08-.83,4.65,1.01-.43,2.01-.88,3.01-1.32-.06,1.62,.02,3.25,.2,4.86,1.07-.73,2.11-1.52,3.09-2.37,.34,1.64,.77,3.27,1.31,4.86,.89-.85,1.73-1.76,2.48-2.74,.66,1.59,1.44,3.14,2.47,4.54,.91-1.48,1.68-3.04,2.27-4.67,.91,.99,1.83,1.97,2.8,2.91,.53-1.6,.95-3.24,1.27-4.89,1,.84,2.03,1.66,3.06,2.47,.21-1.64,.28-3.3,.27-4.96,1.03,.45,2.06,.9,3.09,1.33-.28-1.56-.58-3.12-.91-4.68,.68,.13,2.05,.36,2.74,.49-.72-2.39-1.88-4.63-3.55-6.48,2.53-1.9,5.19,.11,7.49,1.32-.06-.48-.17-1.43-.23-1.91,1.41,.7,2.79,1.48,4.17,2.26-.08-.52-.25-1.54-.33-2.05,2.08,.57,4.17,1.12,6.26,1.68,.69-.68,1.24-1.5,1.84-2.26,1.94-.21,3.95-.39,5.6,.83,.37-.79,.59-1.63,.66-2.5,.93,.39,1.88,.58,2.75-.14v.53c-.89,.88-2.57,1.26-2.81,2.62,.64,.28,1.11,.72,1.39,1.33-.43,1.1-1.5,.82-2.42,.72,.4,.58,.61,1.21,.61,1.88-.48,.01-1.43,.04-1.91,.06,.25,2.35-2.62,1.51-2.44-.41-.07,.92-.07,1.85,.09,2.77-1.63,1.79-1.76,4.63-3.86,5.98-.97,1.71-1.85,3.48-2.78,5.21,.7,.23,1.41,.47,2.11,.71,1.04-1.73,2.07-3.56,2.43-5.58,.35-2.19,1.66-4.05,2.42-6.09,2.08-.48,3.97-1.81,5.19-3.54,1.19-.94,1.31-2.3,.73-3.61,.21-.3,.64-.91,.85-1.21l-.03,1.78c4.83-2.36,9.63-4.76,14.37-7.29,.14,.21,.41,.62,.55,.82,.75-.77,1.53-1.61,2.72-1.03l-.11-.96c1.67-.49,3.39-.77,5.12-1.02-1.26,1.24-2.6,2.38-3.96,3.51l-.41-.88c-.69,.33-1.37,.66-2.07,.99-4.73,12.8-14.12,23.81-26.02,30.48-12.59,7.19-27.92,9.3-42.01,6.01-11.75-2.67-22.57-9.18-30.51-18.24-.9-.72,.41-1.68,.58-2.48,1.11-1.73,.4-3.78,0-5.6,.29,3.27-.65,6.53-2.93,8.92-1.49-1.84-1.72-4.23-1.77-6.51-1.09,.34-2.17,.7-3.25,1.06-.62-1.93,.72-3.92,.06-5.76Z"/><path class="h" d="M38.61,113.48c1.67,.21,3.41,.28,4.96,1.02-1.68-.12-3.33-.51-4.98-.81l.03-.21Z"/><path class="g" d="M36.12,157.79c.85,.85,1.71,1.68,2.57,2.52,.78-.18,1.73-1.15,2.3,.06-.66,.71-1.31,1.42-1.96,2.13-2.4-2.4-5.59-4.25-7.2-7.3,.68,.26,1.37,.53,2.05,.81,2.38-2.6,4.74-5.2,7.17-7.75-.33-.62-.67-1.25-.99-1.88,3.33,.89,4.9,4.68,8.18,5.83-.79,.87-1.57,1.76-2.43,2.57-.2-.23-.6-.68-.8-.92l.66-1.22c-.88-.79-1.75-1.59-2.63-2.38-.99,1.07-1.95,2.15-2.89,3.26,1.02,.87,2.1,2.23,3.37,.83,1.12,1.75-1.57,2.77-2.28,4.1-.95-.59-.59-1.5-.25-2.34-.62-.49-1.22-1.01-1.91-1.4-1.09,.91-2.01,2.01-2.97,3.06Z"/><path class="h" d="M169.07,106.92c1.14,.96,2.24,1.97,3.27,3.05-1.36,.51-2.7,1.04-4.04,1.58,0-.37,0-1.12,0-1.49-.24,.09-.74,.26-.99,.35-.56,1.87-.79,3.82-.99,5.76,.68-.28,1.17-.75,1.46-1.42,2.03-.99,4.15-1.77,6.23-2.65,1.64,.36,3.29,.65,4.95,.9,.01,.47,.04,1.41,.05,1.88,.24-.11,.72-.34,.97-.46,.49-1.84,.76-3.75,1.03-5.64-.82,.18-1.33,.68-1.54,1.5-1.81-.41-3.7-.52-5.43-1.19-1.56-1.13-2.86-2.57-4.32-3.83-.08-.54-.24-1.62-.32-2.16-1.57,1.17-1.13,3.48-1.66,5.15,.29,.03,.86,.07,1.15,.09,.05-.35,.16-1.05,.21-1.41Zm-6.22-45.07c-.69,2.97,1.02,6.19,3.82,7.36,3.8,1.61,8.75-.66,9.58-4.81,1.37-4.67-3.68-9.34-8.25-7.83-2.5,.62-4.66,2.72-5.15,5.28Zm4.41,11.97c-.05-.35-.16-1.05-.21-1.4-.3,.06-.89,.17-1.19,.23,.51,1.94,.96,3.9,1.62,5.8,.55-.53,.73-1.26,.91-1.97,1.46-.36,2.91-.72,4.38-1.05,.24,.9,.49,1.81,.73,2.71-.34,.08-1.02,.24-1.36,.32,.09,.33,.27,1,.36,1.32,1.4-.35,2.81-.7,4.2-1.12-.27-.91-1.15-1.05-1.94-1.25-.16-.8-.32-1.61-.48-2.41,1.32-.36,2.65-.71,3.98-1.09,.34,1.46,2.01,3.86-.42,4.29l.53,.93c.91-.33,3.28,.08,3.04-1.36-1.66-2.38-1.62-5.42-2.63-8.06-.23-.12-.69-.36-.92-.48,0,.48,0,1.44,.01,1.93-3.55,.87-7.07,1.8-10.62,2.66Zm-10-19.89c.82-.83,.12-1.68-.26-2.47,2.76-2.08,5.51-4.17,8.25-6.3,.65,.79,1.29,1.58,1.94,2.37-.35,.27-1.05,.82-1.41,1.1,1.13,2,2.74-.69,3.89-1.24-3.04-2.49-5.57-5.75-7.1-9.38-1.05,.75-2.1,1.51-3.01,2.43,.44,1.39,1.53,.29,2.33,.16,.54,.76,1.09,1.51,1.63,2.27-2.62,2.05-5.33,3.99-7.9,6.12-.48,0-1.44,.01-1.92,.01,.92,1.82,2.24,3.38,3.54,4.93Zm8.18,73.52c-.41-.21-1.23-.65-1.64-.86,.38-.94,.77-1.86,1.15-2.79,3.21,1.37,6.55,2.39,9.74,3.81-.07,.6-.21,1.8-.28,2.4,1.9-1.41,2.16-4.06,2.94-6.15,.19-1.69-1.68,.35-1.63,1-3.28-1.25-6.58-2.43-9.84-3.72,.32-.9,.63-1.8,.95-2.69,.42,.09,1.26,.27,1.69,.36,.09-.34,.28-1.02,.36-1.36-1.15-.38-2.3-.77-3.46-1.15,.03,2.75-1.34,5.18-2.2,7.71-.39,1.23-1.19,2.24-1.95,3.25,1.36,.26,3.34,2.13,4.16,.19Zm5.27,8.54c-3.11-1.71-6.23-3.38-9.33-5.08,.06-.53,.16-1.61,.21-2.15-1.69,1.39-2.55,3.5-3.36,5.47l.75,.36c.24-.29,.72-.86,.95-1.15,3.16,1.67,6.33,3.36,9.44,5.12-.19,.66-.75,2.2,.53,1.63,.98-1.63,1.98-3.28,2.56-5.09-.44,.23-1.32,.67-1.76,.9Zm-20.23,9.57c.7-.3,1.4-.61,2.1-.93,2.86,2.09,5.73,4.17,8.52,6.37-.23,.31-.68,.94-.91,1.25,.24,.12,.73,.36,.98,.48,1.22-1.41,2.4-2.89,3.3-4.53l-.52-.82c-.29,.31-.89,.94-1.19,1.24-1.29-.97-2.57-1.94-3.82-2.95,2.32,.12,4.64,.43,6.97,.31,1.01-.82,2.97-2.34,2.01-3.73-1.8,1.9-4.57,.7-6.84,.7,1.15-3.19-3.01-6.58-5.71-4.29-1.86,2.1-3.74,4.31-4.88,6.9Zm-9.94-110.18c.26,1.81,1.99,2.84,3.3,3.89,1.26,.18,.33-1.44-.12-1.8,1.71-1.91,3.41-3.83,5.16-5.71-.36,3.25-.73,6.49-1.17,9.72,1.51-.4,3.11-.61,4.52-1.32,1.73-1.55,3.14-3.43,4.77-5.1,.31,.21,.92,.62,1.24,.83l.82-.35c-.92-1.38-2.28-2.37-3.51-3.45-.28,.25-.56,.51-.85,.76,.3,.26,.89,.77,1.19,1.02-1.68,1.9-3.38,3.78-5.1,5.64,.43-3.56,.96-7.1,1.3-10.67-1.04-.91-2.08-1.82-3.13-2.72-.12,.22-.35,.65-.46,.87,.35,.51,.67,1.04,.95,1.58-2.08,2.79-4.67,5.18-6.95,7.82-.65-.35-1.3-.68-1.96-1Zm-1.07,120.56c.65-.11,1.31-.22,1.97-.34,2.26,1.85,3.77,4.47,6.08,6.27,4.06,2.32,9.77-2.87,7.74-7.09-1.66-2.49-3.93-4.49-5.85-6.77,.96-.71,1.07-1.34,.31-1.91-1.41,1.07-2.77,2.26-3.68,3.79,.53-.19,1.61-.56,2.14-.75,1.73,1.86,3.51,3.68,5.14,5.64,2.03,2.16-.47,5.99-3.17,5.34-2.66-1.69-4.38-4.49-6.61-6.69,.19-.29,.57-.85,.75-1.14l-.28-.8c-1.68,1.24-3.63,2.49-4.54,4.43Zm.95-39.51c-.11,.17-.32,.52-.43,.68,2.35-.76,4.68-2.04,6.86-3.3,.94-1.2,2.38-1.6,3.81-1.88,.85-.59,1.73-1.15,2.62-1.69,.25,.13,.75,.4,1,.53,1.12-1.21,2.24-2.42,3.29-3.69-1.66,.42-3.3,.92-4.95,1.37,.1,.31,.31,.94,.41,1.24-.38-.11-1.15-.33-1.54-.44-.58,.66-1.17,1.32-1.74,2-.32-.04-.97-.11-1.29-.14-2.64,1.83-5.39,3.5-8.05,5.3Zm-8.59,43.94c-2.87,3.67-.72,9.8,3.87,10.74,3.52,.9,6.8-1.38,8.97-3.94-.5-.81-1-1.63-1.58-2.39-1.53-.12-.82,1.32-.43,2.11-.83,1-1.77,2.04-3.11,2.28-4.26,.65-8.12-5.03-5.59-8.63,.99-1.43,3.63-2.76,4.68-.72,.29-.14,.87-.44,1.15-.58-.67-1.14-1.36-2.28-2.07-3.39-1.38,2.23-4.52,2.24-5.89,4.52Zm5.22-41.83c-.46-1.17-2.71,.5-2.88,1.41,1.06-.06,2.12-.68,2.88-1.41Zm-6.52-88.73c2.75,1.85,5.55,3.61,8.37,5.37,.32-.96,2.55-2.85,.48-3.09-.23,.25-.69,.75-.92,1-1.1-.67-2.2-1.35-3.28-2.04,.82-1.26,1.63-2.52,2.45-3.78,.77,.5,1.54,1,2.32,1.5-.18,.28-.51,.85-.69,1.13,.31,.18,.92,.54,1.22,.72,.68-1.08,1.46-2.1,2-3.26,.09-1.44-1.35-.46-1.89-.01-.73-.48-1.45-.95-2.17-1.44,.8-1.16,1.58-2.33,2.35-3.51,1.05,.65,2.1,1.31,3.16,1.98-.19,.29-.58,.88-.77,1.18,.31,.19,.94,.56,1.25,.75,.61-1.02,1.18-2.07,1.67-3.16-3.45-.19-5.54-3.86-8.9-4.06,.3,.41,.9,1.25,1.2,1.66-1.92,2.88-3.58,5.96-5.7,8.69-.53,.09-1.59,.28-2.12,.36Zm-12.39-18.6c.43,.26,1.29,.8,1.72,1.06-1.15,3.41-2.62,6.72-3.82,10.11-.61-.15-1.22-.3-1.83-.45,.02,.26,.06,.78,.08,1.04,1.47,.84,3.12,1.32,4.76,1.66-.41-.69-.92-1.3-1.54-1.81,.87-2.09,1.5-4.29,2.62-6.26,.48,3.13,.6,6.31,1.03,9.45,2.47-2.15,4.76-4.5,7.07-6.83-.83,2.34-1.74,4.65-2.64,6.96-.51-.09-1.53-.29-2.04-.38,1.1,2.21,4.14,2.32,6.26,3.11-.24-.84-.77-1.41-1.59-1.71,1.36-3.32,2.66-6.66,3.88-10.03,.5,.09,1.5,.26,2,.34-.35-1.8-2.55-1.73-3.89-2.44-2.34,2.3-4.61,4.66-6.98,6.92-.16-3.35-.7-6.65-.9-9.99-1.36-.33-2.81-1.73-4.19-.73Zm.71,64.64c-.09,2.69-.16,5.38-.21,8.08,1.05,.41,2.1,.82,3.15,1.22,.5-1.64,.73-3.35,.59-5.06,2.08,.85,4.29,1.32,6.55,1.36-.14-2.27-.94-4.42-2.05-6.38,2.22,.23,4.46,.14,6.68-.09-.62-1.64-1.47-3.18-2.6-4.53,2.72-.08,5.43-.68,7.85-1.94-1.24-1.66-2.7-3.15-4.33-4.44,2.76-.24,5.53-.56,8.14-1.54-1.11-1.39-2.32-2.69-3.6-3.93,2.82-.39,5.6-1.14,8.2-2.3-.8-1.03-1.61-2.04-2.45-3.04,2.77-.14,5.5-.71,8.01-1.9-.69-1.19-2.2-2.1-2.44-3.45,1.83-.82,3.9-1.54,5-3.35,.91-1.35,.94-3.02,1.08-4.58-8.05,5.92-18.88,5.61-27.16,11.1-2.08,1.39-4.58,3.02-4.83,5.76-.22,4.19,1.48,8.43,.2,12.55-.8,2.96-3.43,4.8-5.81,6.46Zm.73,91.22c1.25,3.3,2.57,6.57,3.85,9.86-.36,.25-1.07,.75-1.42,1l.64,.6c3-.88,5.82-2.28,8.77-3.3-.31-.99-.65-1.97-1-2.94-.84,.41-1.24,1.08-.97,2.05-1.12,.48-2.24,.94-3.36,1.41-.63-1.4-1.2-2.82-1.69-4.27,.78-.3,1.56-.58,2.35-.87,.46,.31,1.38,.92,1.84,1.22-.13-1.61-.74-3.09-1.36-4.56-.81,.35-1.16,.98-1.03,1.86-.74,.35-1.48,.71-2.22,1.07-.65-1.32-1.21-2.67-1.74-4.04,1.1-.45,2.22-.88,3.33-1.31,.23,.27,.66,.81,.88,1.09,1.96-.08,.15-2.61-.31-3.59-2.46,2.19-5.82,2.69-8.68,4.17,.55,.63,1.31,.72,2.11,.58Zm-4.79,6.2c-1.53-.9-3.97-.9-4.64-2.77,.13-2.25,3.97-2.22,3.91,.16,1.85-.49,.41-2.75,.34-4-1.57,.6-3.26,.78-4.8,1.46-2.25,1.17-2.31,4.74-.31,6.17,1.63,1,3.61,1.29,5.19,2.4,.92,.6,.84,2.19-.23,2.58-1.49,.92-3.6,.3-3.73-1.62-2.03,.48-.35,2.72-.36,4.08,2.1-.84,4.8-.23,6.4-2.1,1.8-2.02,.73-5.49-1.78-6.35ZM104.74,21.44c2.14,.75,4.46,.9,6.7,1.14-.2-1.07-1.31-1.11-2.08-1.49,.67-3.39,1.16-6.83,1.74-10.24,.99,.09,1.99,.2,2.99,.3,0,.51,0,1.54,0,2.06,2.01-.11,1.52-2.57,1.4-3.95-.36,.12-1.08,.35-1.44,.47-2.65-.4-5.28-.95-7.95-1.22-.35-.31-1.05-.95-1.4-1.27-.62,1.16-.99,2.45-1,3.77,1,1.19,1.27-.69,1.91-1.15,.91,.06,1.8,.26,2.69,.41-.53,3.49-1.15,6.97-1.77,10.45-.59-.02-1.76-.05-2.35-.07,.13,.2,.4,.6,.53,.8Zm-9.05,82.36c1.17,.49,2.32,1.31,3.65,1.19,2.13-.68,3.89-2.52,6.26-2.37,2.48,.04,4.27,2.8,6.86,2.09,1.36-.56,2.46-1.56,3.68-2.37,.08-1.91,.13-3.82,.23-5.72-1.34,.99-2.71,2.13-4.43,2.33-2.25,.09-4-1.51-6.01-2.22-1.91-.34-3.43,1.21-5.08,1.88-1.68,.9-3.57,.14-5.23-.4,0,1.86,.01,3.72,.07,5.58Zm21.01-11.66c-6.88-1.58-13.97-2.29-21.02-2.35-.05,1.96-.05,3.91,0,5.86,1.15,.5,2.27,1.27,3.56,1.28,1.96-.65,3.58-2.18,5.67-2.43,2.8-.39,4.76,2.81,7.59,2.06,1.45-.64,2.66-1.7,4.06-2.44,.05-.66,.09-1.32,.14-1.98ZM95.56,19.96c-.33,0-1-.03-1.34-.04,0-1.58,0-3.16,.08-4.74,1.42,1.85,2.38,4.02,3.93,5.76,1.43,.09,3.32,.64,4.37-.65-.48-.13-1.43-.4-1.91-.53-1.04-1.54-2.04-3.1-2.99-4.69,3.2-.82,3.53-5.96,.36-6.98-1.12-.14-2.25-.17-3.37-.17-1.61,0-3.21,.08-4.81,.03,.02,.26,.05,.78,.07,1.04,.36,0,1.08,0,1.44,0,.01,3.64,0,7.28,0,10.92-.37,.02-1.12,.06-1.49,.08,0,.27,0,.81,0,1.09,1.88,0,3.76,0,5.64,0,0-.27,0-.81,0-1.09Zm-9.28,149.87c-.16,3.6,0,7.2-.4,10.79-.76,.13-1.39,.45-1.9,1,2.99,.42,6.07,.65,9.07,.2,4.57-1.14,6.19-7.73,2.79-10.94-2.83-2.95-7.29-1.93-10.95-2.2v1.09c.34,.02,1.04,.05,1.39,.06ZM75.25,23.28c1.56-.47,4.04,.26,4.81-1.58-.48,0-1.44-.03-1.92-.03,.23-.99,.43-1.98,.63-2.96,1.54-.27,3.08-.53,4.63-.73,.41,.75,.82,1.5,1.24,2.25-.48,.47-.89,.99-1.25,1.56,1.87-.09,3.72-.41,5.54-.83-3.41-3.58-5.4-8.22-8.02-12.36-.37,.04-1.12,.13-1.49,.18-.95,4.31-1.83,8.63-2.81,12.93-.62,.4-1.07,.93-1.36,1.59Zm-7.94,42.43c1.42,3.68,4.84,6.77,8.76,7.51,2.05-.3,4.1-.6,6.16-.86l.17,1.32c-3.27,.42-6.52,.97-9.75,1.6,.24,5.2,.31,10.42,.76,15.62,14.27-2.99,29.1-2.94,43.38-.01,.1-5.19,.67-10.37,.66-15.56-2.27-.48-4.56-.9-6.85-1.25l.2-1.28c1.62,.23,3.23,.45,4.85,.58,3.26-1.02,5.79-4.17,6.11-7.59,.57-4.03-1.51-8.04-.48-12.03,1.09-3.3,4.39-4.98,7.19-6.61-18.6-13.2-45.04-13.9-64.28-1.63,1.72,1.63,3.7,3.31,4.09,5.79,1.42,4.89-2.79,9.54-.97,14.42Zm2.55,99.87c.01,1.03,1.26,1.19,1.9,1.75-.76,3.13-1.43,6.29-2.23,9.41-.13,1.03-2.41,.29-1.97,1.52,1.61,.54,3.28,.86,4.96,1.01-.26-.79-.8-1.28-1.62-1.49,.56-2.48,1.19-4.95,1.69-7.44,1.73,3.39,2.86,7.05,4.42,10.52,.38,.06,1.13,.19,1.51,.25,.95-3.95,1.93-7.89,2.82-11.85,.5,.04,1.49,.12,1.98,.16-.42-2-3.13-1.42-4.62-2.13-.08,.31-.24,.92-.32,1.22,.38,.04,1.15,.11,1.53,.14-.6,2.48-1.21,4.95-1.7,7.45-1.49-3.24-2.63-6.61-4.04-9.88-1.41-.32-2.82-.88-4.3-.66ZM64.67,14.62c1.04,3.38,2.25,6.7,3.3,10.07-.59,.45-1.09,.97-1.51,1.58,2.29-.18,4.42-1.1,6.55-1.9-.67-.58-1.44-.77-2.35-.58-.38-1.24-.8-2.48-1.25-3.7,1.46-.47,3.14-.94,3.97-2.36,1.3-1.93,.54-5-1.72-5.82-2.16-.69-4.27,.52-6.3,1.09-.98,.42-2.42,.48-2.63,1.76,.48-.04,1.46-.11,1.94-.14Zm-11.94,25.05c1.26,.62,2.56,1.14,3.88,1.63,10.76-7.67,23.83-12.16,37.07-12.32,15.68-.44,31.44,5.05,43.46,15.13,1.42-.32,2.84-.68,4.24-1.09-12.88-11.63-30.34-18.13-47.7-17.51-14.72,0-29.23,5.32-40.94,14.16Zm-.53,131.31c.9,1.37,2.99,2.62,4.62,2.08-.3-.33-.92-.98-1.22-1.31,.63-.66,1.27-1.33,1.9-2,1.44,.58,2.86,1.22,4.26,1.9-.04,.98-.07,1.95-.09,2.94-.75-.35-1.41-.22-1.95,.37,1.64,.97,3.38,1.76,5.22,2.31-1.07-1.9-.53-4.06-.43-6.1,.22-2.91,.28-5.83,.44-8.74-.31-.13-.94-.38-1.26-.52-3.3,2.96-6.32,6.23-9.72,9.07-.44,0-1.32,0-1.76,0Zm-2-149.97c.46-.12,1.37-.36,1.83-.48,1.5,3.19,3.31,6.24,4.74,9.46-.25,.21-.75,.62-.99,.83,.08,.26,.23,.78,.31,1.04,2.89-1.47,5.8-2.9,8.64-4.48-.46-.91-.92-1.81-1.39-2.72-.93,.47-1.09,1.22-.61,2.11-1.13,.58-2.27,1.15-3.4,1.73-.68-1.36-1.37-2.71-2.07-4.05,.71-.35,1.42-.7,2.13-1.05,.63,.38,1.27,.76,1.91,1.12,.18-1.63-.81-3.03-1.59-4.37-1.02,.18-1.29,.78-.8,1.83-.77,.4-1.53,.8-2.3,1.2-.65-1.25-1.29-2.51-1.93-3.77,.96-.55,1.92-1.11,2.87-1.67,.57,.41,1.13,.83,1.7,1.25,.8-1.31-.4-2.54-.98-3.64-1.77,1.37-3.75,2.47-5.8,3.41-.86,.61-2.41,.86-2.28,2.23Zm-6.88,144.58c2.45,1.7,4.95,3.31,7.45,4.95,.5-1.04,1.96-2.06,.92-3.27-.34,.29-1.03,.85-1.37,1.14-1.09-.56-2.09-1.27-3.11-1.93,1.89-2.96,3.9-5.85,5.81-8.79,.51,.14,1.51,.43,2.01,.58-.92-2.17-3.41-3.11-5.42-4.03,.21,.48,.64,1.44,.85,1.93-1.71,3.04-3.82,5.85-5.76,8.75-.62-.85-2.85-.18-1.39,.68ZM37.65,30.13c.6-.25,1.19-.5,1.78-.76,2.35,3.18,4.51,6.53,7.17,9.47,1.78-1.18,3.61-2.33,5.11-3.87,2.37-2.76,1.69-7.46-1.24-9.58-1.74-1.32-4.14-1.42-6.19-.88-1.93,.84-3.5,2.28-5.22,3.46-.64,.58-1.76,1.03-1.43,2.15Zm14,114.73c-11.95-10.39-20.01-25.17-22.07-40.89-2.21-15.47,1.47-31.65,9.96-44.75-1.15-.42-2.3-.85-3.45-1.3-9.56,15.18-12.92,34.06-9.16,51.6,3.46,16.8,13.5,32.06,27.41,42.06,13.54,9.85,30.75,14.47,47.4,12.8,13.25-1.21,26.08-6.38,36.5-14.64,13.09-10.26,22.27-25.38,25.29-41.75,3.05-16.48,.14-34.05-8.5-48.46-1.17,.33-2.35,.65-3.53,.97,8.59,14.17,11.78,31.52,8.36,47.77-2.95,14.73-11.17,28.32-22.79,37.83-13.79,11.48-32.43,16.92-50.23,14.56-12.96-1.58-25.36-7.2-35.18-15.79ZM31.85,51.55c-1.26,1.39,.65,3.32,2.11,2.15,1.2-1.41-.73-3.45-2.11-2.15Zm6.85,108.76c-.87-.84-1.72-1.68-2.57-2.52,.96-1.05,1.88-2.15,2.97-3.06,.69,.39,1.29,.91,1.91,1.4-.34,.84-.7,1.75,.25,2.34,.72-1.34,3.41-2.35,2.28-4.11-1.27,1.41-2.35,.04-3.37-.83,.94-1.11,1.9-2.19,2.89-3.26,.88,.79,1.74,1.59,2.63,2.38l-.66,1.22c.2,.23,.6,.69,.8,.92,.86-.82,1.64-1.7,2.43-2.57-3.29-1.15-4.85-4.94-8.18-5.83,.32,.63,.65,1.26,.99,1.88-2.43,2.55-4.79,5.15-7.17,7.74-.68-.28-1.36-.55-2.05-.81,1.61,3.05,4.79,4.9,7.2,7.3,.65-.71,1.31-1.42,1.96-2.13-.57-1.21-1.53-.24-2.3-.06Zm-4.56-53.94c1.2,.97,2.84,1.1,4.12,1.94,.09,.06,.17,.11,.25,.18-1.78-.01-3.58,.03-5.32,.46,1.02,1.79,2.68,3.13,4.71,3.57-1.32,.32-2.64,.7-3.94,1.13,1.83,2.04,4.53,2.72,7.14,3.11-1.48,.65-3.17,1.16-4.12,2.59,1.62,.37,3.27,.71,4.95,.63-.49,.55-.9,1.16-1.26,1.8-.35,.65-.65,1.32-.91,2.01,1.38-.04,2.89-.85,4.22-.37,.65,1.83-.68,3.82-.06,5.75,1.08-.36,2.16-.72,3.25-1.06,.05,2.28,.28,4.67,1.77,6.52,2.28-2.4,3.23-5.66,2.93-8.92,.4,1.82,1.1,3.87,0,5.6-.18,.8-1.49,1.76-.58,2.48,7.93,9.06,18.76,15.56,30.51,18.24,14.1,3.29,29.42,1.19,42.01-6.01,11.91-6.67,21.29-17.68,26.02-30.48,.69-.33,1.37-.66,2.07-.99l.41,.88c1.36-1.12,2.7-2.27,3.96-3.51-1.73,.25-3.45,.53-5.11,1.02l.11,.96c-1.19-.58-1.97,.26-2.72,1.03-.14-.2-.41-.61-.55-.82-4.74,2.54-9.55,4.93-14.37,7.29l.03-1.78c-.21,.3-.64,.91-.85,1.21,.58,1.32,.46,2.68-.73,3.62-1.22,1.73-3.11,3.06-5.19,3.54l-.32-.23c-.16-.92-.16-1.84-.09-2.77-.18,1.93,2.69,2.76,2.44,.41,.48-.02,1.44-.05,1.91-.06,0-.68-.21-1.31-.61-1.88,.92,.1,2,.38,2.42-.72-.28-.61-.75-1.05-1.39-1.33,.23-1.36,1.91-1.75,2.8-2.62v-.53c.09-.1,.25-.29,.32-.39l.11,.52c2.05-1.69,4.12-3.38,6.26-4.97l1,.23c-.52,.36-1.55,1.09-2.07,1.46l.42,.19c-.8-.2-1.91,.63-1.83,1.48-.75-.45-1.54,.83-.83,1.33,.83,.62,1.48-.78,.83-1.33,.77,.08,1.89-.65,1.83-1.48l.41,.17c2.89-2.17,6.72-3.43,8.65-6.63,.89-.06,1.77-.25,2.62-.53,.42-1.1,1.34-1.81,2.3-2.43l.18,1.09c1.31-1.27,2.58-2.59,3.68-4.06-1.46,.43-2.9,.87-4.36,1.26-.24,.6-.48,1.2-.72,1.8-.09-.41-.12-.81-.09-1.19,.09-1.34,.88-2.43,2.05-3.26,.23,.14,.66,.44,.89,.58,1.03-1.37,2.04-2.76,2.96-4.2-1.48,.55-2.92,1.18-4.37,1.78-.1,.6-.21,1.19-.31,1.78l-1.05-.44c-.86,1.05-1.53,2.24-2.25,3.38-.24,.01-.72,.03-.96,.04-.83,.6-1.61,1.27-2.37,1.97-1.58,1.46-3.06,3.03-4.76,4.36l-.26-.78c2.44-2.03,4.66-4.31,7.06-6.38l-.88-.62c1.81-1.22,5.33-1.54,4.93-4.41,.68-.79,1.35-1.58,2.01-2.37,.2,.15,.6,.46,.8,.62,.86-1.55,1.71-3.11,2.42-4.73-1.54,.93-3.08,1.88-4.66,2.75,.26,.14,.8,.41,1.06,.55-.53,.5-1.05,1-1.56,1.51,.02-1.53-.01-3.07-.09-4.6-.25-4.7-.98-9.38-2.32-13.9-2.3-.08-4.57-.52-6.83-.9,2.31,1.62,4.46,3.69,5,6.59-2.98,.33-5.95-.42-8.45-2.05,1.95,1.99,3.26,4.53,3.45,7.34-2.78-.17-5.25-1.45-7.32-3.25,1.43,2.22,2.44,4.71,2.64,7.36-2.67-.45-4.95-2-6.87-3.83,.95,2.42,1.89,4.9,1.82,7.54-2.33-.45-4.41-1.62-6.2-3.13,.78,2.28,1.32,4.66,1.21,7.09-2.37-.8-4.31-2.39-5.87-4.3,.56,2.18,.99,4.42,.78,6.68-2.26-.82-3.95-2.56-5.06-4.65,.73,2.3,1.13,4.71,.67,7.11-.95-.52-1.88-1.05-2.81-1.59-.04,.35-.08,.69-.13,1.04l-1.15-.16c-1.48,.78-2.97,1.9-4.74,1.65-2.24-.04-3.84-2.05-6.03-2.23-2.08,.43-3.7,2.07-5.79,2.45-1.31,.09-2.54-.49-3.76-.85l-1.17-1.4c.08-5.03,.02-10.07,.03-15.1-7,0-14,.83-20.86,2.23-.1,4.62,.43,9.23,.67,13.84,.02,.74,.13,1.48,.3,2.2l-1.13,.23c-.28-1.28-.46-2.58-.56-3.89-.92,.47-1.85,.92-2.79,1.35-.26-2.32,.09-4.63,.7-6.87-1.2,1.94-2.64,3.84-4.85,4.68-.34-2.39,0-4.78,.65-7.08-1.43,2.15-3.35,3.97-5.82,4.86-.09-2.47,.24-4.92,.97-7.27-1.79,1.53-3.86,2.77-6.23,3.1,.15-2.59,.95-5.07,1.82-7.48-1.88,1.9-4.38,2.99-6.97,3.51,.62-2.38,1.62-4.61,2.65-6.83-2.22,1.32-4.51,2.71-7.16,2.84,.59-2.6,1.78-4.99,3.38-7.1-2.44,1.48-5.21,2.42-8.1,2.22,.75-2.62,2.42-4.78,4.36-6.64-2.09,.49-4.24,.68-6.38,.63-1.64,5.2-2.31,10.65-2.53,16.08-1.05-.63-2.09-1.28-3.13-1.93,.39,2,.46,4.05,1.01,6.01,.52,1.9,2.88,2.74,2.88,4.86-1.73-.65-3.53-1.08-5.38-1.07,.5,1.45,.98,3.03,2.16,4.1Zm-.03-61.63c1.72,1.7,3.92,2.8,6.24,3.44-.93,1.01-1.8,2.08-2.64,3.17,2.54,1.2,5.27,2.03,8.1,2.01-.92,.87-1.8,1.8-2.44,2.89,2.42,1.35,5.2,1.8,7.88,2.39-1.12,1.27-2.21,2.57-3.24,3.9,2.59,.94,5.32,1.29,8.05,1.52-1.66,1.26-3.12,2.77-4.37,4.43,2.42,1.29,5.13,1.83,7.84,1.98-1.14,1.32-1.98,2.86-2.59,4.49,2.22,.23,4.46,.33,6.68,.09-1.11,1.96-1.91,4.11-2.05,6.38,2.25-.04,4.47-.51,6.56-1.36-.14,1.72,.08,3.43,.58,5.08,1.01-.39,2.01-.78,3.01-1.2-.26-2.95-.42-5.91-.55-8.86-3.56-2.16-7-5.25-7.93-9.49-.82-3.03,.45-6.02,1.39-8.85,.83-2.38,.62-5.28-1.25-7.12-4.95-5.62-12.65-6.9-19.27-9.58-3.25-1.19-6.22-2.96-9.11-4.83-.41,2.51,.53,4.97,2.43,6.61-1.12,.79-3.53,1.17-3.32,2.88Zm-13.14,10.74c-2.15-.43-1.22-2.79-.02-3.74,.58,.21,1.15,.42,1.72,.63,.16-.28,.46-.85,.62-1.14-1.09-.66-2.21-1.27-3.43-1.66-.26,1.97-2.18,3.39-1.9,5.47,.04,2.47,3.15,4.12,5.29,2.97,1.89-.54,3.7-2.65,5.74-1.66,1.55,1.87-1.31,5.05-3.3,3.26-1.15,1.88,1.87,2.22,3,2.98,.3-2.16,2.7-3.41,2.47-5.71,.09-2.35-2.41-4.24-4.65-3.7-1.98,.44-3.6,1.79-5.55,2.3Zm3.03,12.16c.34,.1,1.02,.31,1.37,.42,1.67,.13,1.87-2.38,.5-2.92-.64,.04-1.26,.18-1.87,.41v2.09Zm-4.83,71.77c1.18,1.21,1.77,3.38,3.65,3.61-.26-.68-.51-1.34-.78-2.01,1.93-1.4,3.87-2.79,5.76-4.23-1.34,3.01-2.99,5.88-4.42,8.86,3.08-.51,6.12-1.16,9.16-1.83,.12-.03,.24-.05,.36-.07-1.81,1.49-3.64,2.98-5.67,4.15-.67-.43-1.4-.68-2.18-.74,1.29,1.92,2.3,4.3,4.44,5.41-.15-.54-.46-1.61-.61-2.15,2.86-2.13,5.76-4.21,8.64-6.31,.56,.68,1.15,1.49,2.08,.77-.85-1.22-1.73-2.41-2.67-3.55-1.56,.37-3.13,.72-4.7,1.04-1.57,.33-3.14,.64-4.72,.94,1.45-3.02,3.13-5.92,4.5-8.98-.92-1.02-1.47-2.74-3.06-2.81,.25,.65,.51,1.31,.78,1.97-2.88,2.15-5.82,4.21-8.71,6.33-.43-.46-.86-.93-1.29-1.39-.14,.25-.41,.75-.55,1Zm-7.15-18.03l.73,.12c.03-.45,.08-1.32,.09-1.77,3.46-.78,6.9-1.62,10.32-2.52,.27,.83,.82,1.31,1.64,1.42-.66-2.02-.23-4.9-2.27-6.14,.02,.51,.06,1.52,.08,2.02-1.49,.31-2.97,.66-4.45,1-.24-.97-.48-1.95-.72-2.93-.23-.98-.46-1.96-.68-2.94,1.67-.03,4.11-2.07,5.13,.09l.69,.13c-.14-2.09-.84-4.09-1.43-6.08-.74,.44-.7,1.27-.75,2.03-3.47,.82-6.92,1.75-10.41,2.52-.19-.86-.7-1.29-1.54-1.27,.43,1.82,.73,3.68,1.36,5.45,.21,.11,.64,.35,.85,.46,.03-.44,.07-1.31,.09-1.75,1.46-.6,3.03-.85,4.55-1.2,.23,.97,.46,1.93,.7,2.9,.23,.99,.47,1.97,.71,2.95-1.44,.38-2.87,.75-4.32,1.08-.48-.61-1.07-1.07-1.78-1.38,.33,1.96,.68,3.94,1.39,5.8Zm10.11-53.26c-2.63-1.1-5.44-1.7-8.16-2.55,.04-.51,.13-1.52,.16-2.03-1.29,.3-1.37,1.68-1.73,2.7-.12,.85-.95,2.23,.46,2.52,.16-.44,.49-1.31,.65-1.74,2.69,1.07,5.72,1.34,8.23,2.84,2.14,1.52,1.09,4.69-.84,5.89-3.14-.63-6.18-1.64-9.23-2.58,.01-.5,.04-1.49,.06-1.99-1.83,1.46-1.96,4.17-2.26,6.35,.55-.5,1.08-1.01,1.61-1.52,2.62,.68,5.16,1.69,7.82,2.22,5.2,.92,7.81-7.81,3.23-10.11Zm-7.8,58.56c-.8,3.66,2.18,7.6,5.96,7.68,3.97,.51,8.03-3.03,7.53-7.12,.16-4.21-4.64-7.31-8.49-5.96-2.47,.71-4.59,2.79-5,5.39Zm63.06,59.07c-20.13-3.85-38.82-14.73-52.18-30.26C8.54,136.44,.37,110.31,3.17,85.18c2.17-20.13,11.1-39.54,25.27-54.02C43.07,15.64,63.33,5.63,84.51,3.24c20.42-2.4,41.57,2.32,59.04,13.16,16.77,10.26,30.01,26.06,37.31,44.32,6.14,15.21,8.06,32.09,5.56,48.29-2.86,18.92-11.79,36.87-25.22,50.5-14.35,14.87-33.88,24.64-54.39,27.18-9.77,1.33-19.74,.92-29.42-.96Z"/><path class="h" d="M40.65,102.41c-.11,.28-.33,.85-.44,1.14-.36-.11-1.09-.31-1.46-.41,.09-.6,.24-1.17,.45-1.75,.57,.16,1.05,.5,1.45,1.02Z"/><path class="h" d="M40.23,93.86c-.51,1.08-.94,2.2-1.36,3.32-.23-.28-.66-.85-.89-1.13,.83-1.84,2.03-3.53,3.82-4.57,1.05,3.28,.55,7.09-1.93,9.61-.18-1.12-.36-2.24-.55-3.36,.35-1.28,.71-2.56,.92-3.87Z"/><path class="h" d="M35.27,95.07c1.88,1.37,3.69,3.35,3.77,5.78-1.37-1.77-2.47-3.89-3.77-5.78Z"/><path class="h" d="M39.44,107.17c-1.64-1.5-3.68-2.45-5.45-3.77,2.73,.5,5.06,2.24,6.53,4.57-.06,.27-.16,.81-.21,1.07-.29-.18-.85-.53-1.14-.72,.07-.29,.21-.87,.27-1.15Z"/><path class="g" d="M43.57,114.5c-1.55-.74-3.29-.81-4.96-1.02l-.03,.21c1.66,.3,3.3,.69,4.98,.81Zm-2.47,2.25c-2.6-.38-5.31-1.07-7.14-3.11,1.29-.43,2.61-.81,3.94-1.13-2.03-.45-3.69-1.78-4.71-3.57,1.74-.43,3.53-.47,5.32-.46-.08-.06-.16-.12-.25-.18h.92c.28,.19,.85,.55,1.14,.73l1.04,.52c-.17,.36,.03,.8,.35,1.07l-.4,.71c-1.53-.85-3.11-1.59-4.91-1.65,2.18,1.15,5.01,1.46,6.4,3.73,.55-.36,1.1-.72,1.66-1.06,.78,.8,1.53,1.64,2.28,2.47,.61-.99,1.21-1.98,1.64-3.06,.26-.16,.79-.47,1.05-.63-.08,1.37,0,2.75,.27,4.1-.4,.58-.79,1.17-1.19,1.75,.51,.26,1.03,.53,1.54,.79,.72-.88,1.29-1.98,2.3-2.55,.87,1.25,.5,2.87,.7,4.31l-.64,.09c-.21-.43-.68-.76-1.23-.53-.26,.08-.43,.24-.51,.42l-.97-.1c.26-1.08-2.23-1.68-2.03,.16-.24-.76-.43-1.53-.6-2.31-.51,.01-1.54,.04-2.06,.04,.29-.58,.58-1.15,.87-1.73-.6-.26-1.2-.52-1.8-.77-.14,.5-.29,1-.45,1.49,.26,.26,.79,.79,1.05,1.05-2,.12-3.99,.49-5.73,1.51,2.18-.43,4.33-1.05,6.52-1.45,.71,.58,1.25,1.33,1.85,2.02-2.21,.08-4.36,.85-5.88,2.5l-.75-.16c.35-.64,.77-1.25,1.26-1.8-1.68,.08-3.33-.26-4.95-.63,.95-1.42,2.63-1.94,4.12-2.58Z"/><path class="g" d="M45.55,98.6c-3.06,1.41-4.74,4.78-4.41,8.09,1.72-1.42,1.23-4.3,2.87-5.99-.69,2.07-.8,4.44-2.21,6.18-.05,.44-.14,1.32-.19,1.76,1.39-1.25,2.92-2.45,3.81-4.14,.9-1.85,.57-3.98,.13-5.91Zm-6.68-1.42c.41-1.12,.84-2.24,1.36-3.32-.21,1.31-.57,2.59-.92,3.87,.19,1.12,.38,2.23,.55,3.36,2.49-2.52,2.99-6.33,1.93-9.61-1.78,1.04-2.98,2.73-3.82,4.58,.23,.28,.66,.85,.89,1.13Zm.18,3.67c-.08-2.44-1.9-4.41-3.77-5.78,1.3,1.89,2.4,4.01,3.77,5.78Zm1.61,1.56c-.4-.52-.88-.86-1.45-1.02-.21,.57-.35,1.15-.45,1.75,.36,.11,1.09,.31,1.46,.41,.11-.28,.33-.85,.44-1.14Zm-6.67,.99c1.78,1.32,3.81,2.27,5.45,3.77-.06,.29-.2,.87-.27,1.15h-.92c-1.27-.85-2.91-.98-4.12-1.95-1.18-1.07-1.66-2.65-2.16-4.1,1.85-.01,3.65,.42,5.38,1.07,0-2.13-2.36-2.97-2.88-4.86-.55-1.96-.62-4.01-1.01-6.01,1.04,.65,2.08,1.3,3.13,1.93,.22-5.43,.89-10.88,2.53-16.08,2.15,.05,4.29-.14,6.38-.63-1.93,1.86-3.6,4.02-4.36,6.64,2.89,.2,5.66-.74,8.1-2.22-1.6,2.11-2.79,4.51-3.38,7.1,2.65-.13,4.95-1.51,7.16-2.84-1.04,2.22-2.04,4.45-2.65,6.83,2.59-.52,5.09-1.61,6.97-3.51-.87,2.42-1.67,4.9-1.82,7.48,2.37-.33,4.44-1.57,6.23-3.1-.73,2.35-1.05,4.81-.97,7.27,2.47-.89,4.39-2.71,5.82-4.86-.65,2.3-.99,4.7-.65,7.08,2.21-.84,3.65-2.74,4.85-4.68-.61,2.24-.95,4.55-.7,6.87,.94-.43,1.87-.88,2.79-1.35,.09,1.31,.28,2.61,.56,3.89,.17,.79,.38,1.57,.62,2.34-1.24,1.25-2.65,2.32-4.24,3.08,.53,.41,1.07,.83,1.6,1.25-1.22,.62-2.43,1.26-3.6,1.96,.51,.16,1.54,.48,2.05,.63-2.2,1.56-4.86,2.34-7.56,2.16-1.74-.26-3.24,.69-4.46,1.83-.29-.52-.58-1.03-.87-1.54l.99-.21c-.98-.4-2.05-.78-2.3,.72,.46,.31,.93,.63,1.4,.95-.68,.16-.98,.46-1.05,.84l-1.13-.13h0c-.02-.6-.57-1.12-1.14-1.24l.07-1.19c.44,.03,.86-.1,1.26-.4,.94-1.38-1.19-2-1.98-2.81,3.41-1.55,4.44-5.42,4.65-8.84-1.81,.68-3.4,1.8-4.82,3.11,0-1.66-.01-3.32-.05-4.98-1.63,1.46-3.11,3.25-3.35,5.52-.03-.08-.05-.16-.07-.24-.69-2.32-.14-4.98-1.85-6.98-1.78,1.81-2.9,4.19-2.77,6.75-.5,.54-.99,1.09-1.51,1.61-.69-.38-1.37-.78-2.06-1.17l.4-.71c.4,.31,.97,.4,1.36-.13,.74-.77-.46-1.85-1.27-1.36-.23,.11-.37,.26-.45,.41l-1.04-.52c.05-.26,.16-.8,.21-1.07-1.47-2.33-3.8-4.06-6.53-4.57Z"/><path class="g" d="M31.85,51.55c1.37-1.3,3.31,.75,2.11,2.15-1.46,1.17-3.37-.77-2.11-2.15Z"/><path class="g" d="M27.21,147.88c2.03-1.17,3.87-2.67,5.67-4.15-.12,.03-.24,.05-.36,.07l-.31-1.46c1.57-.33,3.14-.67,4.7-1.04,.94,1.14,1.83,2.33,2.67,3.55-.93,.73-1.52-.08-2.08-.77-2.88,2.1-5.79,4.18-8.64,6.31,.15,.54,.46,1.61,.61,2.15-2.13-1.11-3.15-3.49-4.44-5.41,.78,.06,1.51,.31,2.18,.74Z"/><path class="g" d="M25.86,65.14c1.37,.54,1.17,3.04-.5,2.92-.35-.11-1.03-.32-1.37-.42v-2.09c.61-.23,1.23-.36,1.87-.41Z"/><path class="h" d="M26.2,125.94c.16,4.73-7.71,8.09-10.31,3.66-.21-2.4,1.91-4.31,3.93-5.22,2.05-.9,5.54-1.03,6.38,1.56Z"/><path class="g" d="M24.79,118.63c-.82-.12-1.37-.59-1.64-1.42-3.42,.9-6.87,1.75-10.32,2.52-.02,.45-.07,1.32-.09,1.77l-.73-.12c-.72-1.86-1.06-3.85-1.39-5.81,.71,.31,1.3,.77,1.78,1.38,1.44-.33,2.88-.7,4.32-1.08-.24-.98-.48-1.97-.71-2.95l1.44-.35c.23,.98,.47,1.96,.72,2.93,1.48-.35,2.96-.69,4.45-1-.02-.5-.06-1.51-.08-2.02,2.04,1.25,1.61,4.12,2.27,6.15Z"/><path class="g" d="M22.03,141.01c.27,.66,.53,1.33,.78,2.01-1.88-.23-2.47-2.4-3.65-3.61,.14-.25,.41-.75,.55-1,.43,.46,.86,.93,1.29,1.39,2.89-2.12,5.83-4.19,8.71-6.33-.27-.65-.53-1.31-.78-1.97,1.59,.07,2.14,1.78,3.06,2.81-1.37,3.06-3.05,5.96-4.5,8.98,1.58-.3,3.15-.6,4.72-.94l.31,1.46c-3.04,.67-6.08,1.32-9.16,1.83,1.43-2.97,3.08-5.84,4.42-8.86-1.9,1.44-3.83,2.83-5.76,4.23Z"/><path class="g" d="M23.28,51.23c-.16,.28-.46,.85-.62,1.14-.57-.21-1.14-.42-1.72-.63-1.2,.95-2.13,3.31,.02,3.74,1.95-.51,3.58-1.86,5.55-2.3,2.24-.53,4.74,1.36,4.65,3.7,.23,2.3-2.17,3.55-2.47,5.71-1.13-.76-4.15-1.1-3-2.98,1.98,1.8,4.85-1.39,3.3-3.26-2.04-.99-3.85,1.12-5.74,1.66-2.14,1.15-5.25-.51-5.29-2.97-.28-2.08,1.64-3.5,1.9-5.47,1.22,.38,2.34,1,3.43,1.66Z"/><path class="g" d="M16,112.93c-.24-.97-.47-1.93-.7-2.9-1.53,.35-3.09,.6-4.55,1.2-.02,.44-.06,1.31-.09,1.75-.21-.11-.64-.35-.85-.46-.63-1.77-.93-3.63-1.36-5.45,.84-.01,1.36,.41,1.54,1.27,3.49-.77,6.94-1.7,10.41-2.52,.05-.75,.01-1.59,.75-2.03,.59,1.99,1.29,3.98,1.43,6.07l-.69-.13c-1.02-2.16-3.46-.12-5.13-.09,.22,.98,.45,1.96,.68,2.94l-1.44,.35Z"/><path class="g" d="M26.2,125.94c-.84-2.59-4.33-2.46-6.38-1.56-2.01,.91-4.14,2.81-3.93,5.22,2.6,4.43,10.48,1.07,10.31-3.66Zm-5.92,8.41c-3.78-.08-6.77-4.02-5.96-7.68,.41-2.6,2.53-4.68,5-5.39,3.85-1.35,8.65,1.75,8.49,5.96,.5,4.09-3.56,7.63-7.53,7.12Z"/><path class="g" d="M13.96,65.56c2.72,.85,5.53,1.44,8.16,2.55,4.58,2.3,1.96,11.03-3.23,10.11-2.66-.52-5.2-1.54-7.82-2.22-.53,.51-1.06,1.02-1.61,1.52,.29-2.18,.43-4.89,2.26-6.35-.01,.5-.04,1.49-.06,1.99,3.06,.94,6.09,1.95,9.23,2.58,1.93-1.2,2.98-4.37,.84-5.89-2.51-1.49-5.54-1.76-8.23-2.84-.16,.43-.49,1.3-.65,1.74-1.41-.29-.58-1.67-.46-2.52,.36-1.03,.44-2.4,1.73-2.7-.04,.51-.13,1.53-.16,2.03Z"/></g></g></g></g></svg>