<?xml version="1.0" encoding="UTF-8"?><svg id="uuid-2862a1c6-0532-489f-9bd1-1692e8f67f35" xmlns="http://www.w3.org/2000/svg" viewBox="0 0 64 64"><path d="m36.02,54.5H13.14c-.63,0-1.14-.51-1.14-1.14V10.64c0-.63.51-1.14,1.14-1.14h27.26c.63,0,1.14.51,1.14,1.14v27.88" style="fill:none; stroke:#0e185f; stroke-linecap:round; stroke-linejoin:round; stroke-width:2px;"/><polyline points="36.02 54.5 15.17 54.5 15.17 12.67 38.37 12.67 38.37 38.55" style="fill:none; stroke:#0e185f; stroke-linecap:round; stroke-linejoin:round; stroke-width:2px;"/><circle cx="33.5" cy="32.65" r="1.67" style="fill:none; stroke:#0e185f; stroke-linecap:round; stroke-linejoin:round; stroke-width:2px;"/><line x1="31.84" y1="32.65" x2="27.67" y2="32.65" style="fill:none; stroke:#0e185f; stroke-linecap:round; stroke-linejoin:round; stroke-width:2px;"/><path d="m50.63,38.53h-15.27c-.75,0-1.37.61-1.37,1.37v13.24c0,.75.61,1.37,1.37,1.37h15.27c.75,0,1.37-.61,1.37-1.37v-13.24c0-.75-.61-1.37-1.37-1.37Z" style="fill:none; stroke:#0e185f; stroke-linecap:round; stroke-linejoin:round; stroke-width:2px;"/><path d="m45.53,38.53h-5.06v6.89l2.53-1.41,2.53,1.41v-6.89Z" style="fill:none; stroke:#0e185f; stroke-linecap:round; stroke-linejoin:round; stroke-width:2px;"/></svg>