<?xml version="1.0" encoding="UTF-8"?><svg xmlns="http://www.w3.org/2000/svg" viewBox="0 0 176.79 175.01"><defs><style>.d{fill:#012d9a;}</style></defs><g id="a"/><g id="b"><g id="c"><g><path class="d" d="M68.3,81.9c10.91-2.48,19.05-12.23,19.05-23.89,0-13.53-10.97-24.5-24.5-24.5-4.99,0-9.63,1.5-13.51,4.06h0c-24.3,13.38-25.47,45.48-25.47,45.48,0,43.67,29.75,58.12,29.75,58.12-26.11-46.99,11.3-58.35,14.68-59.26Z"/><path class="d" d="M93.8,107.53c-7.66-8.15-20.19-10.24-30.25-4.33-11.67,6.85-15.57,21.87-8.72,33.54,2.53,4.3,6.17,7.55,10.34,9.59h0c23.85,14.19,52.12-1.06,52.12-1.06,37.65-22.12,35.05-55.09,35.05-55.09-27.3,46.31-56.03,19.81-58.54,17.36Z"/><path class="d" d="M102.56,72.91c-3.3,10.69,1.07,22.61,11.17,28.44,11.72,6.76,26.71,2.74,33.47-8.98,2.5-4.32,3.52-9.09,3.23-13.73h.01c.55-27.74-26.67-44.79-26.67-44.79-37.82-21.82-65.21-3.27-65.21-3.27,53.75,.87,44.89,38.94,44,42.33Z"/><g><path d="M12.69,105.38l-6.31,1.78c-2.37,.67-3.08,2.01-2.68,3.43,.44,1.56,1.77,2.29,4.11,1.63l6.31-1.78,.39,1.39-6.22,1.76c-3.27,.92-5.08-.42-5.73-2.72-.62-2.18,.15-4.17,3.46-5.1l6.26-1.77,.39,1.39Z"/><path d="M5.52,119.3l10.06-4.57,.65,1.43-3.63,5.52c-.85,1.27-1.64,2.34-2.46,3.28l.04,.04c1.29-.73,2.5-1.31,4.07-2.03l4.21-1.91,.56,1.22-10.06,4.57-.6-1.31,3.65-5.51c.8-1.21,1.65-2.4,2.51-3.39l-.04-.04c-1.23,.65-2.44,1.22-4.11,1.97l-4.3,1.95-.56-1.22Z"/><path d="M21.42,126.35l-9.51,5.63-.73-1.24,9.51-5.63,.73,1.24Z"/><path d="M23.41,131.61l-1.96-2.73,.98-.71,4.78,6.64-.98,.71-1.97-2.74-7.98,5.75-.84-1.17,7.98-5.75Z"/><path d="M28.03,144.48l-2.88-3.16-2.94,2.68,3.22,3.54-.88,.81-4.2-4.6,8.17-7.44,4.03,4.42-.88,.81-3.06-3.36-2.58,2.35,2.88,3.16-.87,.8Z"/><path d="M34.41,142.84c.76,.45,1.61,1.04,2.48,1.77,1.57,1.32,2.36,2.64,2.53,3.94,.18,1.33-.2,2.68-1.36,4.05-1.16,1.38-2.55,2.14-3.99,2.26-1.47,.11-3.13-.56-4.77-1.95-.79-.67-1.4-1.24-1.9-1.77l7-8.3Zm-5.21,8.39c.24,.27,.63,.62,1.06,.98,2.34,1.98,4.7,1.73,6.62-.55,1.69-1.98,1.63-4.2-.67-6.15-.56-.48-1.03-.78-1.37-.97l-5.64,6.68Z"/><path d="M42.6,160.44c.36,.67,1,1.39,1.86,1.88,1.27,.72,2.39,.46,2.94-.51,.5-.89,.28-1.7-.74-2.92-1.25-1.46-1.75-2.83-1-4.17,.85-1.5,2.72-1.91,4.59-.86,.97,.55,1.57,1.19,1.85,1.66l-.91,.82c-.2-.35-.69-.99-1.56-1.48-1.31-.74-2.26-.24-2.63,.42-.51,.9-.17,1.67,.87,2.94,1.27,1.55,1.65,2.79,.85,4.2-.84,1.49-2.65,2.17-4.93,.89-.93-.52-1.78-1.38-2.1-2.01l.92-.86Z"/><path d="M56.58,158.52l-3.1-1.31,.47-1.12,7.54,3.18-.47,1.12-3.11-1.31-3.82,9.07-1.33-.56,3.82-9.07Z"/><path d="M61.8,167.3l-2.09,3.01-1.41-.42,6.76-9.52,1.63,.48,.47,11.67-1.46-.43-.14-3.67-3.76-1.11Zm3.81-.03l-.15-3.36c-.03-.76,0-1.44,.02-2.1h-.03c-.34,.56-.69,1.17-1.1,1.75l-1.95,2.76,3.21,.95Z"/><path d="M73.28,163.65l-3.31-.59,.21-1.19,8.05,1.45-.21,1.19-3.32-.6-1.74,9.68-1.42-.26,1.74-9.68Z"/><path d="M85.55,169.71l-4.27-.28-.26,3.98,4.78,.31-.08,1.19-6.22-.41,.73-11.03,5.97,.39-.08,1.19-4.53-.3-.23,3.48,4.27,.28-.08,1.18Z"/><path d="M89.31,173.19c.66,.38,1.59,.65,2.57,.61,1.46-.06,2.27-.87,2.23-1.99-.05-1.02-.66-1.6-2.18-2.09-1.83-.58-2.99-1.48-3.05-3.02-.08-1.72,1.29-3.06,3.44-3.15,1.11-.05,1.96,.18,2.45,.43l-.34,1.18c-.35-.2-1.1-.48-2.1-.43-1.51,.07-2.04,.99-2.01,1.75,.05,1.03,.74,1.51,2.29,2.03,1.9,.64,2.87,1.5,2.94,3.12,.08,1.7-1.1,3.25-3.71,3.36-1.06,.05-2.24-.23-2.85-.6l.32-1.21Z"/><path d="M112.7,165.83c.87,3.68-.91,6.19-3.65,6.84-2.86,.67-5.36-1.08-6.13-4.33-.81-3.41,.77-6.14,3.64-6.82,2.95-.7,5.38,1.1,6.14,4.31Zm-8.32,2.13c.55,2.31,2.28,4.08,4.48,3.56,2.2-.52,2.97-2.84,2.39-5.28-.51-2.15-2.15-4.12-4.47-3.58-2.31,.55-2.96,2.96-2.4,5.3Z"/><path d="M113.83,159.68l5.56-2.12,.43,1.12-4.21,1.61,1.31,3.43,3.89-1.48,.42,1.1-3.89,1.48,1.78,4.67-1.35,.51-3.93-10.32Z"/><path d="M131.38,159.96l.83,3.57-1.26,.77-2.52-11.4,1.46-.89,8.97,7.48-1.3,.79-2.81-2.36-3.35,2.04Zm2.53-2.84l-2.59-2.15c-.59-.49-1.07-.96-1.54-1.42l-.03,.02c.19,.63,.41,1.31,.56,2l.74,3.29,2.86-1.74Z"/><path d="M146,147.55c-1.06-1.12-2.34-2.49-3.22-3.53l-.03,.02c.53,1.23,1.09,2.58,1.65,4.1l1.97,5.35-.83,.7-4.78-2.85c-1.42-.86-2.65-1.66-3.74-2.46l-.03,.02c.86,1.07,1.99,2.53,2.99,3.87l2.84,3.81-1.04,.88-6.55-8.93,1.39-1.18,4.89,2.86c1.23,.74,2.29,1.44,3.26,2.12l.03-.02c-.5-1.04-.98-2.22-1.5-3.6l-1.95-5.35,1.39-1.18,7.66,7.99-1.08,.91-3.33-3.53Z"/><path d="M153.34,139.21l-2.83,3.21,2.98,2.64,3.17-3.59,.9,.79-4.13,4.67-8.28-7.32,3.96-4.48,.9,.79-3.01,3.4,2.62,2.31,2.83-3.21,.88,.78Z"/><path d="M150.99,132.98c.3-.67,.82-1.59,1.37-2.38,.87-1.25,1.68-1.91,2.56-2.12,.71-.17,1.52,0,2.23,.49,1.19,.82,1.46,2.13,1.13,3.29l.04,.03c.72-.52,1.65-.49,2.75-.05,1.47,.58,2.5,.97,2.98,1.02l-.84,1.21c-.37-.04-1.28-.37-2.58-.91-1.44-.6-2.26-.42-3.03,.61l-.76,1.11,3.94,2.72-.81,1.17-8.97-6.2Zm4.95,1.69l.83-1.2c.87-1.25,.73-2.52-.31-3.24-1.17-.81-2.27-.32-3.13,.92-.39,.57-.62,.99-.71,1.23l3.32,2.29Z"/><path d="M156.83,123.56l9.64,5.4-.7,1.26-9.64-5.4,.7-1.26Z"/><path d="M171.32,117.86c.04,.57-.15,1.65-.68,2.89-1.24,2.86-3.98,4.21-7.31,2.75-3.19-1.39-4.39-4.47-3.02-7.61,.54-1.25,1.17-1.94,1.5-2.21l.92,.8c-.45,.38-.94,1-1.3,1.85-1.03,2.38-.2,4.62,2.46,5.77,2.5,1.09,4.7,.35,5.76-2.1,.35-.81,.54-1.7,.51-2.33l1.16,.2Z"/><path d="M170.1,111.49l3.04,2.04-.39,1.42-9.64-6.59,.46-1.64,11.65-.68-.41,1.47-3.66,.21-1.05,3.77Zm-.1-3.8l-3.36,.21c-.76,.04-1.44,.03-2.1,.01v.03c.56,.33,1.18,.67,1.77,1.07l2.79,1.9,.89-3.22Z"/></g><g><path d="M.45,96.05c-.19-.86-.34-1.89-.4-3.02-.11-2.05,.31-3.53,1.15-4.54,.85-1.04,2.1-1.68,3.88-1.77,1.8-.09,3.3,.4,4.37,1.37,1.09,.99,1.73,2.67,1.84,4.81,.05,1.03,.05,1.87,0,2.59l-10.84,.56Zm9.68-1.93c.03-.36,.02-.89,0-1.44-.16-3.06-1.94-4.61-4.92-4.46-2.6,.12-4.18,1.68-4.03,4.69,.04,.74,.13,1.29,.23,1.66l8.72-.45Z"/><path d="M6.31,77.93l-.34,4.27,3.97,.32,.38-4.77,1.19,.1-.5,6.21-11.02-.88,.48-5.97,1.19,.1-.36,4.53,3.48,.28,.34-4.27,1.18,.09Z"/><path d="M1.17,73.26c.02-.7,.11-1.6,.33-2.73,.28-1.38,.8-2.33,1.51-2.86,.63-.47,1.49-.69,2.46-.49,.98,.2,1.69,.64,2.15,1.3,.63,.91,.8,2.18,.52,3.55-.08,.42-.18,.8-.32,1.11l4.34,.88-.28,1.4-10.7-2.16Zm5.5-.34c.14-.29,.25-.67,.35-1.13,.34-1.69-.29-2.88-1.75-3.18-1.45-.29-2.34,.6-2.65,2.12-.12,.61-.17,1.09-.15,1.34l4.21,.85Z"/><path d="M10.75,64.88l2.95,2.16-.46,1.4-9.35-7,.53-1.62,11.67-.18-.47,1.45-3.67,.05-1.21,3.73Zm.06-3.81l-3.36,.06c-.76,.01-1.44-.04-2.1-.08v.03c.55,.35,1.15,.72,1.72,1.15l2.71,2.02,1.03-3.18Z"/><path d="M7.16,52.97c.19-.71,.56-1.7,.98-2.57,.66-1.37,1.36-2.15,2.19-2.49,.68-.28,1.5-.25,2.28,.13,1.3,.62,1.78,1.87,1.64,3.07l.04,.02c.63-.63,1.56-.74,2.7-.49,1.55,.34,2.62,.56,3.1,.54l-.64,1.33c-.37,.02-1.32-.16-2.69-.49-1.52-.36-2.3-.06-2.9,1.08l-.58,1.21,4.32,2.07-.62,1.29-9.83-4.71Zm5.15,.89l.63-1.32c.66-1.37,.32-2.61-.82-3.15-1.29-.62-2.29,.05-2.95,1.41-.3,.62-.46,1.07-.51,1.32l3.64,1.74Z"/><path d="M14.15,42.11l-1.81,2.83-1.02-.65,4.4-6.89,1.02,.65-1.82,2.85,8.29,5.29-.78,1.22-8.29-5.29Z"/><path d="M28.43,31.68c-1.22-.95-2.7-2.1-3.72-2.99l-.02,.02c.71,1.13,1.47,2.38,2.26,3.8l2.77,4.98-.71,.82-5.16-2.08c-1.53-.63-2.88-1.23-4.07-1.86l-.02,.02c1.02,.93,2.35,2.19,3.55,3.36l3.39,3.32-.89,1.03-7.85-7.82,1.19-1.38,5.27,2.07c1.33,.54,2.48,1.07,3.54,1.59l.02-.02c-.65-.95-1.31-2.04-2.04-3.33l-2.75-4.99,1.19-1.38,8.8,6.71-.92,1.07-3.84-2.98Z"/><path d="M36.2,24.16l-3.24,2.8,2.6,3.01,3.62-3.13,.78,.91-4.71,4.07-7.22-8.36,4.53-3.91,.78,.91-3.44,2.97,2.28,2.64,3.24-2.8,.77,.89Z"/><path d="M41.87,26.25l-6.09-9.22,1.31-.87,6.02,2.72c1.38,.64,2.57,1.25,3.62,1.91l.03-.04c-.92-1.16-1.69-2.26-2.64-3.7l-2.55-3.86,1.12-.74,6.09,9.22-1.2,.8-6.02-2.74c-1.32-.6-2.63-1.25-3.74-1.95l-.03,.04c.84,1.12,1.58,2.22,2.59,3.75l2.6,3.94-1.12,.74Z"/><path d="M49.03,10.49l-3.02,1.48-.53-1.09,7.35-3.59,.53,1.09-3.03,1.48,4.32,8.84-1.3,.63-4.32-8.84Z"/><path d="M70.92,7.12c1,3.65-.69,6.22-3.41,6.97-2.83,.78-5.39-.88-6.28-4.11-.93-3.38,.55-6.17,3.4-6.95,2.92-.8,5.42,.91,6.29,4.09Zm-8.24,2.43c.63,2.29,2.42,3.99,4.6,3.4,2.18-.6,2.86-2.94,2.2-5.36-.59-2.13-2.3-4.04-4.59-3.42-2.29,.63-2.85,3.06-2.21,5.38Z"/><path d="M73.28,1.28l5.9-.81,.16,1.19-4.47,.61,.5,3.64,4.13-.57,.16,1.17-4.13,.57,.68,4.95-1.43,.2-1.51-10.95Z"/><path d="M89.17,1.27l-3.36-.06,.02-1.21,8.18,.15-.02,1.21-3.38-.06-.18,9.84-1.44-.03,.18-9.84Z"/><path d="M97.08,.57c.73-.03,1.79,0,2.74,.13,1.51,.2,2.46,.63,3.05,1.32,.47,.56,.7,1.35,.58,2.21-.19,1.43-1.23,2.27-2.42,2.51v.05c.78,.4,1.18,1.25,1.29,2.42,.15,1.58,.27,2.67,.44,3.12l-1.46-.2c-.14-.35-.26-1.31-.37-2.71-.12-1.55-.65-2.2-1.93-2.42l-1.33-.18-.63,4.75-1.41-.19,1.44-10.81Zm.75,5.18l1.45,.19c1.51,.2,2.58-.5,2.75-1.75,.19-1.41-.75-2.17-2.25-2.37-.68-.09-1.16-.11-1.41-.07l-.53,4Z"/><path d="M107.61,9.89l-2.01,3.06-1.42-.38,6.5-9.7,1.65,.44,.79,11.65-1.47-.39-.24-3.66-3.78-1.01Zm3.8-.14l-.24-3.36c-.05-.76-.04-1.44-.03-2.1h-.03c-.32,.57-.66,1.19-1.06,1.78l-1.87,2.81,3.23,.86Z"/><path d="M115.13,15.7l4.33-10.17,1.45,.62,1.05,6.52c.23,1.51,.38,2.83,.4,4.07h.05c.46-1.4,.95-2.65,1.63-4.24l1.81-4.25,1.24,.53-4.33,10.17-1.33-.56-1.03-6.53c-.23-1.43-.41-2.88-.44-4.2h-.05c-.47,1.31-.98,2.54-1.69,4.23l-1.85,4.34-1.24-.53Z"/><path d="M126.18,18.81c.34,.68,.98,1.41,1.83,1.91,1.26,.74,2.38,.51,2.95-.45,.51-.88,.31-1.7-.69-2.93-1.22-1.48-1.7-2.86-.92-4.19,.87-1.48,2.75-1.86,4.6-.78,.96,.56,1.55,1.21,1.82,1.7l-.93,.8c-.19-.36-.67-1-1.53-1.51-1.3-.76-2.25-.28-2.63,.37-.52,.89-.2,1.67,.81,2.95,1.25,1.57,1.59,2.82,.77,4.22-.86,1.47-2.69,2.12-4.94,.8-.92-.54-1.76-1.41-2.07-2.05l.93-.84Z"/><path d="M139.43,16.22c.62,.32,1.4,.79,2.31,1.48,1.12,.85,1.75,1.73,1.92,2.6,.15,.77-.03,1.64-.62,2.43-.6,.8-1.31,1.25-2.1,1.37-1.1,.18-2.31-.23-3.43-1.07-.34-.26-.64-.51-.86-.77l-2.67,3.53-1.14-.86,6.59-8.71Zm-2.08,5.11c.2,.25,.49,.52,.87,.8,1.37,1.04,2.72,.99,3.62-.2,.89-1.18,.48-2.37-.76-3.31-.5-.38-.91-.62-1.14-.72l-2.59,3.43Z"/><path d="M150.82,33.27c-2.67,2.68-5.74,2.49-7.74,.5-2.08-2.07-1.91-5.12,.45-7.49,2.47-2.49,5.63-2.59,7.72-.5,2.15,2.14,1.9,5.15-.42,7.49Zm-6.2-5.94c-1.68,1.68-2.26,4.08-.66,5.68,1.6,1.6,3.98,1.02,5.75-.75,1.56-1.57,2.37-4,.68-5.68-1.68-1.68-4.07-.95-5.77,.75Z"/><path d="M157,32.55c.54,.49,1.25,1.27,1.84,2.04,.92,1.21,1.29,2.19,1.22,3.09-.06,.73-.47,1.45-1.16,1.97-1.15,.87-2.47,.73-3.48,.05l-.04,.03c.27,.84-.05,1.72-.8,2.63-1.01,1.22-1.7,2.07-1.9,2.51l-.89-1.17c.15-.34,.75-1.1,1.66-2.17,1.02-1.18,1.1-2.01,.36-3.07l-.81-1.07-3.81,2.9-.86-1.14,8.68-6.6Zm-3.14,4.18l.88,1.16c.92,1.21,2.17,1.48,3.18,.71,1.14-.86,1.01-2.06,.09-3.26-.42-.55-.74-.9-.95-1.05l-3.21,2.44Z"/><path d="M163.48,43.73l-1.7-2.9,1.05-.61,4.13,7.06-1.05,.61-1.7-2.92-8.49,4.96-.73-1.25,8.49-4.96Z"/><path d="M161.58,53.62l-3.64,.36-.6-1.35,11.63-1.03,.69,1.56-8.57,7.93-.62-1.39,2.7-2.49-1.59-3.58Zm2.49,2.87l2.46-2.29c.56-.52,1.09-.93,1.61-1.34v-.03c-.66,.11-1.36,.24-2.07,.3l-3.36,.31,1.36,3.06Z"/><path d="M171.34,61.07l-1.01-3.21,1.16-.36,2.45,7.8-1.16,.36-1.01-3.22-9.38,2.95-.43-1.38,9.38-2.95Z"/><path d="M174.85,69.51l-10.8,2.37-.31-1.41,10.8-2.37,.31,1.41Z"/><path d="M171.36,83.69c-3.77,.4-6.03-1.68-6.33-4.49-.31-2.92,1.74-5.18,5.07-5.53,3.49-.37,6,1.54,6.31,4.47,.32,3.02-1.77,5.2-5.05,5.55Zm-1.07-8.52c-2.36,.25-4.33,1.75-4.09,4,.24,2.25,2.44,3.3,4.94,3.04,2.2-.23,4.36-1.62,4.11-3.98-.25-2.36-2.56-3.3-4.96-3.05Z"/><path d="M165.75,86.65l11.04,.5-.07,1.57-5.74,3.27c-1.33,.74-2.52,1.35-3.68,1.8v.05c1.49-.06,2.84-.04,4.56,.04l4.62,.21-.06,1.34-11.04-.5,.07-1.44,5.76-3.25c1.26-.71,2.56-1.39,3.78-1.88v-.05c-1.41,.02-2.74-.03-4.57-.11l-4.72-.21,.06-1.34Z"/></g></g></g></g></svg>