<?xml version="1.0" encoding="UTF-8"?>
<svg id="Layer_1" data-name="Layer 1" xmlns="http://www.w3.org/2000/svg" viewBox="0 0 64 64">
  <defs>
    <style>
      .cls-1 {
        fill: none;
        stroke: #000;
        stroke-linecap: round;
        stroke-linejoin: round;
        stroke-width: 2px;
      }
    </style>
  </defs>
  <g>
    <line class="cls-1" x1="24.19" y1="44" x2="51.17" y2="54.26"/>
    <path class="cls-1" d="m2.91,42.24h24.22c.2,0,.39-.03.58-.09.44-.14.81-.44,1.05-.83.17-.28.27-.61.27-.97V12.03c0-1.04-.84-1.89-1.89-1.89H2.91"/>
    <path class="cls-1" d="m24.19,42.24v3.29c0,1.14-.92,2.06-2.06,2.06h-3.2"/>
    <polyline class="cls-1" points="2.91 42.24 2.91 47.59 6.91 47.59"/>
    <circle class="cls-1" cx="12.81" cy="48.05" r="5.81"/>
    <ellipse class="cls-1" cx="12.81" cy="48.05" rx="2.23" ry="2.24" transform="translate(-30.22 23.13) rotate(-45)"/>
  </g>
  <g id="g1218">
    <g id="g1220">
      <g id="g1222">
        <g id="g1228">
          <path id="path1230" class="cls-1" d="m54.15,47.48c1.56.56,2.37,2.28,1.8,3.84s-2.28,2.37-3.84,1.8-2.37-2.28-1.8-3.84,2.28-2.37,3.84-1.8Z"/>
        </g>
        <g id="g1232">
          <path id="path1234" class="cls-1" d="m35.37,40.71c1.56.56,2.37,2.28,1.8,3.84s-2.28,2.37-3.84,1.8-2.37-2.28-1.8-3.84,2.28-2.37,3.84-1.8Z"/>
        </g>
        <g id="g1236">
          <path id="path1238" class="cls-1" d="m31.53,42.51l-1.26-.46c-.9-.33-1.37-1.32-1.05-2.23l1-2.76c.26-.71.94-1.17,1.69-1.15l5.58.18,6.69-3.14c.8-.37,1.71-.42,2.54-.12l8.15,2.94c1.32.48,2.4,1.46,3,2.73l3.02,6.43c.24.5.26,1.08.07,1.6l-1.4,3.87c-.39,1.09-1.59,1.65-2.68,1.26l-.93-.34"/>
        </g>
        <g id="g1240">
          <path id="path1242" class="cls-1" d="m37.18,44.55l13.14,4.74"/>
        </g>
        <g id="g1244">
          <path id="path1246" class="cls-1" d="m37.49,36.1l13.81,4.98c1.95.7,4.1-.31,4.81-2.26l.67-1.85"/>
        </g>
        <g id="g1248">
          <path id="path1250" class="cls-1" d="m48.58,33.51l-2.1,5.83"/>
        </g>
        <g id="g1252">
          <path id="path1254" class="cls-1" d="m41.82,41.2l1.67.6"/>
        </g>
      </g>
    </g>
  </g>
</svg>