<?xml version="1.0" encoding="UTF-8"?><svg id="b" xmlns="http://www.w3.org/2000/svg" xmlns:xlink="http://www.w3.org/1999/xlink" viewBox="0 0 598.84 627.66"><defs><linearGradient id="d" x1="436.16" y1="22.41" x2="484.69" y2="22.41" gradientUnits="userSpaceOnUse"><stop offset="0" stop-color="#b27f2c"/><stop offset=".21" stop-color="#e0bd60"/><stop offset=".33" stop-color="#f7dd7b"/><stop offset=".52" stop-color="#fdf1a4"/><stop offset=".73" stop-color="#f7dd7b"/><stop offset="1" stop-color="#b27f2c"/></linearGradient><linearGradient id="e" x1="362.55" y1="468" x2="404.56" y2="468" xlink:href="#d"/><linearGradient id="f" x1="362.41" y1="502.96" x2="436.64" y2="502.96" xlink:href="#d"/><linearGradient id="g" x1="411.18" y1="447.91" x2="443.23" y2="447.91" xlink:href="#d"/><linearGradient id="h" x1="411.52" y1="479" x2="483.6" y2="479" xlink:href="#d"/><linearGradient id="i" x1="451.38" y1="421.26" x2="477.38" y2="421.26" xlink:href="#d"/><linearGradient id="j" x1="454.31" y1="447.48" x2="522.99" y2="447.48" xlink:href="#d"/><linearGradient id="k" x1="483.25" y1="389.1" x2="506.4" y2="389.1" xlink:href="#d"/><linearGradient id="l" x1="490.51" y1="409.56" x2="554.51" y2="409.56" xlink:href="#d"/><linearGradient id="m" x1="507.15" y1="352.51" x2="529.81" y2="352.51" xlink:href="#d"/><linearGradient id="n" x1="519.86" y1="366.46" x2="577.85" y2="366.46" xlink:href="#d"/><linearGradient id="o" x1="522.76" y1="312.55" x2="547.33" y2="312.55" xlink:href="#d"/><linearGradient id="p" x1="542.07" y1="319.72" x2="592.72" y2="319.72" xlink:href="#d"/><linearGradient id="q" x1="529.38" y1="270.32" x2="558.92" y2="270.32" xlink:href="#d"/><linearGradient id="r" x1="556.88" y1="271.07" x2="598.84" y2="271.07" xlink:href="#d"/><linearGradient id="s" x1="527.61" y1="226.88" x2="564.73" y2="226.88" xlink:href="#d"/><linearGradient id="t" x1="564.01" y1="221.44" x2="596.63" y2="221.44" xlink:href="#d"/><linearGradient id="u" x1="518.68" y1="183.23" x2="563.81" y2="183.23" xlink:href="#d"/><linearGradient id="v" x1="562.49" y1="171.86" x2="587.71" y2="171.86" xlink:href="#d"/><linearGradient id="w" x1="502.32" y1="140.05" x2="554.72" y2="140.05" xlink:href="#d"/><linearGradient id="x" x1="548.91" y1="123.57" x2="571.71" y2="123.57" xlink:href="#d"/><linearGradient id="y" x1="478.3" y1="98.78" x2="537.1" y2="98.78" xlink:href="#d"/><linearGradient id="z" x1="523.26" y1="77.83" x2="548.01" y2="77.83" xlink:href="#d"/><linearGradient id="aa" x1="446.35" y1="60.97" x2="510.68" y2="60.97" xlink:href="#d"/><linearGradient id="ab" x1="485.35" y1="35.88" x2="516.5" y2="35.88" xlink:href="#d"/><linearGradient id="ac" x1="294.35" y1="266.83" x2="565.02" y2="266.83" xlink:href="#d"/><linearGradient id="ad" x1="114.15" x2="162.68" xlink:href="#d"/><linearGradient id="ae" x1="194.28" y1="468" x2="236.28" y2="468" xlink:href="#d"/><linearGradient id="af" x1="162.2" y1="502.96" x2="236.42" y2="502.96" xlink:href="#d"/><linearGradient id="ag" x1="155.6" y1="447.91" x2="187.66" y2="447.91" xlink:href="#d"/><linearGradient id="ah" x1="115.24" y1="479" x2="187.32" y2="479" xlink:href="#d"/><linearGradient id="ai" x1="121.46" y1="421.26" x2="147.46" y2="421.26" xlink:href="#d"/><linearGradient id="aj" x1="75.85" y1="447.48" x2="144.53" y2="447.48" xlink:href="#d"/><linearGradient id="ak" x1="92.44" y1="389.1" x2="115.59" y2="389.1" xlink:href="#d"/><linearGradient id="al" x1="44.33" y1="409.56" x2="108.33" y2="409.56" xlink:href="#d"/><linearGradient id="am" x1="69.02" y1="352.51" x2="91.68" y2="352.51" xlink:href="#d"/><linearGradient id="an" x1="20.99" y1="366.46" x2="78.98" y2="366.46" xlink:href="#d"/><linearGradient id="ao" x1="51.51" y1="312.55" x2="76.07" y2="312.55" xlink:href="#d"/><linearGradient id="ap" x1="6.11" y1="319.72" x2="56.76" y2="319.72" xlink:href="#d"/><linearGradient id="aq" x1="39.91" y1="270.32" x2="69.45" y2="270.32" xlink:href="#d"/><linearGradient id="ar" x1="0" y1="271.07" x2="41.95" y2="271.07" xlink:href="#d"/><linearGradient id="as" x1="34.11" y1="226.88" x2="71.22" y2="226.88" xlink:href="#d"/><linearGradient id="at" x1="2.2" y1="221.44" x2="34.82" y2="221.44" xlink:href="#d"/><linearGradient id="au" x1="35.03" y1="183.23" x2="80.16" y2="183.23" xlink:href="#d"/><linearGradient id="av" x1="11.12" y1="171.86" x2="36.35" y2="171.86" xlink:href="#d"/><linearGradient id="aw" x1="44.12" y1="140.05" x2="96.52" y2="140.05" xlink:href="#d"/><linearGradient id="ax" x1="27.13" y1="123.57" x2="49.92" y2="123.57" xlink:href="#d"/><linearGradient id="ay" x1="61.73" y1="98.78" x2="120.54" y2="98.78" xlink:href="#d"/><linearGradient id="az" x1="50.83" y1="77.83" x2="75.58" y2="77.83" xlink:href="#d"/><linearGradient id="ba" x1="88.16" y1="60.97" x2="152.49" y2="60.97" xlink:href="#d"/><linearGradient id="bb" x1="82.34" y1="35.88" x2="113.49" y2="35.88" xlink:href="#d"/><linearGradient id="bc" x1="33.82" y1="266.83" x2="304.49" y2="266.83" xlink:href="#d"/><linearGradient id="bd" x1="269.9" y1="502.93" x2="326.71" y2="502.93" xlink:href="#d"/><linearGradient id="be" x1="145.21" y1="151.79" x2="439.69" y2="151.79" xlink:href="#d"/><linearGradient id="bf" x1="145.21" y1="151.79" x2="439.69" y2="151.79" xlink:href="#d"/><linearGradient id="bg" x1="168.36" y1="288.34" x2="399.44" y2="375.82" xlink:href="#d"/><linearGradient id="bh" x1="172.94" y1="276.25" x2="404.02" y2="363.73" xlink:href="#d"/><linearGradient id="bi" x1="177.62" y1="263.88" x2="408.7" y2="351.36" xlink:href="#d"/><linearGradient id="bj" x1="183.46" y1="248.45" x2="414.54" y2="335.94" xlink:href="#d"/><linearGradient id="bk" x1="189.82" y1="231.66" x2="420.9" y2="319.14" xlink:href="#d"/><linearGradient id="bl" x1="237.69" y1="393.12" x2="344.29" y2="431.36" xlink:href="#d"/><linearGradient id="bm" x1="239.81" y1="387.22" x2="346.4" y2="425.46" xlink:href="#d"/><linearGradient id="bn" x1="242.29" y1="380.31" x2="348.89" y2="418.54" xlink:href="#d"/><linearGradient id="bo" x1="245.57" y1="371.16" x2="352.17" y2="409.4" xlink:href="#d"/><linearGradient id="bp" x1="248.34" y1="363.43" x2="354.94" y2="401.67" xlink:href="#d"/><linearGradient id="bq" x1="227.84" y1="420.59" x2="334.44" y2="458.83" xlink:href="#d"/><linearGradient id="br" x1="230.3" y1="413.73" x2="336.9" y2="451.97" xlink:href="#d"/><linearGradient id="bs" x1="232.57" y1="407.4" x2="339.17" y2="445.64" xlink:href="#d"/><linearGradient id="bt" x1="234.91" y1="400.88" x2="341.51" y2="439.12" xlink:href="#d"/></defs><g id="c"><path d="M468.88,13.14c13.4,12.22,15.81,31.4,15.81,31.4,0,0-19.32-.64-32.72-12.86-13.4-12.22-15.81-31.4-15.81-31.4,0,0,19.32.64,32.72,12.86Z" style="fill:url(#d);"/><path d="M374.65,463.49c-11.54,14.8-12.23,32.28-12.08,32.33-.04.22,24.21-6.56,35.09-22.88,10.89-16.12,5.58-32.82,5.74-32.77-.06.16-17.24,8.66-28.76,23.32Z" style="fill:url(#e);"/><path d="M391.63,514.74c-21.29-3.61-29.22-19.71-29.22-19.56.25.08,23.06-6.5,42.71-4.19,19.85,2.42,31.51,14.74,31.51,14.87.28.06-23.48,12.58-45,8.88Z" style="fill:url(#f);"/><path d="M416.73,445c-7.93,16.23-5.08,33.2-4.94,33.23-.02.22,21.3-10.36,28.48-27.98,7.2-17.42-.99-32.69-.84-32.67-.04.17-14.77,11.32-22.7,27.41Z" style="fill:url(#g);"/><path d="M442.72,491.65c-20.69.07-31.22-14.15-31.2-14.01.23.04,20.23-10.12,39.3-11.2,19.26-1.01,32.76,8.93,32.78,9.06.27.02-19.96,16.14-40.88,16.16Z" style="fill:url(#h);"/><path d="M453.05,420c-4.5,17.06,1.49,32.98,1.63,32.99,0,.22,18.26-13.62,21.92-31.93,3.69-18.11-6.97-31.52-6.83-31.52-.01.17-12.19,13.54-16.71,30.47Z" style="fill:url(#i);"/><path d="M486.71,460.71c-19.75,3.58-32.43-8.39-32.4-8.26.21,0,17.28-13.21,35.44-17.53,18.33-4.28,33.21,3.02,33.24,3.15.25-.02-16.32,19.08-36.28,22.64Z" style="fill:url(#j);"/><path d="M483.38,389.51c-1.26,17.34,7.47,31.73,7.6,31.72.03.22,15.11-16.35,15.42-34.78.37-18.25-12.34-29.44-12.21-29.47.01.17-9.5,15.32-10.8,32.53Z" style="fill:url(#k);"/><path d="M523.31,423.19c-18.45,6.88-32.84-2.55-32.8-2.42.2-.03,14.23-15.78,31.11-23.15,17.05-7.36,32.84-2.85,32.88-2.74.23-.06-12.54,21.4-31.2,28.31Z" style="fill:url(#l);"/><path d="M507.44,354.56c1.79,17.11,12.83,29.57,12.95,29.54.06.21,11.82-18.54,8.99-36.58-2.76-17.87-17.07-26.56-16.95-26.61.04.16-6.71,16.66-4.98,33.65Z" style="fill:url(#m);"/><path d="M552.22,380.36c-16.79,9.93-32.43,3.26-32.36,3.38.17-.06,11.07-17.83,26.31-28,15.4-10.18,31.62-8.59,31.68-8.48.21-.09-8.65,23.12-25.63,33.1Z" style="fill:url(#n);"/><path d="M524.99,316.2c4.63,16.41,17.56,26.61,17.67,26.56.09.2,8.42-20.19,2.63-37.36-5.69-17.01-21.15-23-21.05-23.06.07.16-3.8,17.55.75,33.86Z" style="fill:url(#o);"/><path d="M573.16,333.47c-14.76,12.68-31.16,8.93-31.09,9.04.16-.09,7.79-19.36,21.03-32.04,13.38-12.72,29.54-14.06,29.62-13.96.19-.12-4.62,24.21-19.56,36.97Z" style="fill:url(#p);"/><path d="M535.76,275.46c7.27,15.3,21.63,22.98,21.73,22.91.12.18,4.88-21.29-3.65-37.16-8.4-15.73-24.56-18.87-24.46-18.95.1.14-.79,18,6.38,33.2Z" style="fill:url(#q);"/><path d="M585.83,283.8c-12.34,15.09-29.04,14.33-28.95,14.42.13-.11,4.41-20.38,15.26-35.24,10.98-14.92,26.58-19.15,26.67-19.07.17-.15-.47,24.69-12.98,39.88Z" style="fill:url(#r);"/><path d="M539.52,233.39c9.69,13.8,25.03,18.78,25.12,18.7.15.16,1.23-21.86-9.83-36.04-10.91-14.06-27.28-14.29-27.19-14.38.12.13,2.33,18.01,11.9,31.72Z" style="fill:url(#s);"/><path d="M589.94,232.63c-9.55,17.11-26.04,19.34-25.93,19.42.11-.13.92-20.87,9-37.53,8.2-16.74,22.71-23.75,22.82-23.68.15-.17,3.8,24.56-5.9,41.79Z" style="fill:url(#t);"/><path d="M535.99,191.04c11.88,11.97,27.74,14.13,27.81,14.03.18.14-2.56-21.88-15.92-34.03-13.19-12.05-29.28-9.37-29.2-9.47.15.11,5.57,17.56,17.31,29.47Z" style="fill:url(#u);"/><path d="M585.19,181.23c-6.35,18.7-22.13,23.86-22,23.93.09-.15-2.68-20.85,2.24-38.89,5.03-18.14,17.93-27.74,18.05-27.69.13-.19,8.2,23.81,1.7,42.65Z" style="fill:url(#v);"/><path d="M524.92,149.46c13.85,9.84,29.74,9.14,29.8,9.04.21.11-6.47-21.36-21.91-31.17-15.25-9.74-30.55-4.23-30.49-4.34.18.09,8.91,16.67,22.6,26.47Z" style="fill:url(#w);"/><path d="M571.28,130.88c-2.76,19.81-17.3,27.77-17.15,27.81.07-.16-6.39-20.31-5.03-39.27,1.46-19.07,12.2-31,12.34-30.96.1-.21,12.73,22.45,9.84,42.42Z" style="fill:url(#x);"/><path d="M506.05,109.71c15.58,7.47,31,3.94,31.05,3.83.24.08-10.5-20.29-27.78-27.51-17.06-7.17-31.07,1.01-31.02.9.21.06,12.36,15.33,27.75,22.78Z" style="fill:url(#y);"/><path d="M547.92,82.88c1.24,20.4-11.52,30.94-11.36,30.96.05-.17-10.22-19.25-12.81-38.62-2.52-19.49,5.51-33.41,5.67-33.4.08-.22,17.38,20.48,18.5,41.06Z" style="fill:url(#z);"/><path d="M479.13,72.85c17.06,4.89,31.52-1.36,31.55-1.47.27.05-14.67-18.68-33.54-23.09-18.64-4.4-30.82,6.25-30.79,6.13.24.03,15.92,13.54,32.78,18.43Z" style="fill:url(#aa);"/><path d="M514.81,38.51c5.66,20.42-4.79,33.26-4.61,33.26.02-.17-14.15-17.67-21.12-36.89C482.17,15.53,486.93,0,487.11,0c.06-.23,22.15,17.89,27.71,38.51Z" style="fill:url(#ab);"/><path d="M294.35,501.19l.34-3.74c31.01,2.81,61.93-.65,91.89-10.27,29.19-9.37,56.22-24.17,80.33-43.99,50.04-41.12,82.31-99.8,90.87-165.22,7.01-53.58,3.41-101.32-10.68-141.9-15.14-43.58-42.09-77.68-80.12-101.36l1.99-3.19c38.78,24.14,66.26,58.9,81.69,103.31,14.29,41.14,17.94,89.46,10.86,143.63-8.68,66.38-41.43,125.91-92.21,167.64-24.48,20.12-51.93,35.14-81.57,44.66-30.44,9.78-61.86,13.29-93.38,10.43Z" style="fill:url(#ac);"/><path d="M129.96,13.14c-13.4,12.22-15.81,31.4-15.81,31.4,0,0,19.32-.64,32.72-12.86,13.4-12.22,15.81-31.4,15.81-31.4,0,0-19.32.64-32.72,12.86Z" style="fill:url(#ad);"/><path d="M224.19,463.49c11.54,14.8,12.23,32.28,12.08,32.33.04.22-24.21-6.56-35.09-22.88-10.89-16.12-5.58-32.82-5.74-32.77.06.16,17.24,8.66,28.76,23.32Z" style="fill:url(#ae);"/><path d="M207.2,514.74c21.29-3.61,29.22-19.71,29.22-19.56-.25.08-23.06-6.5-42.71-4.19-19.85,2.42-31.51,14.74-31.51,14.87-.28.06,23.48,12.58,45,8.88Z" style="fill:url(#af);"/><path d="M182.11,445c7.93,16.23,5.08,33.2,4.94,33.23.02.22-21.3-10.36-28.48-27.98-7.2-17.42.99-32.69.84-32.67.04.17,14.77,11.32,22.7,27.41Z" style="fill:url(#ag);"/><path d="M156.12,491.65c20.69.07,31.22-14.15,31.2-14.01-.23.04-20.23-10.12-39.3-11.2-19.26-1.01-32.76,8.93-32.78,9.06-.27.02,19.96,16.14,40.88,16.16Z" style="fill:url(#ah);"/><path d="M145.78,420c4.5,17.06-1.49,32.98-1.63,32.99,0,.22-18.26-13.62-21.92-31.93-3.69-18.11,6.97-31.52,6.83-31.52.01.17,12.19,13.54,16.71,30.47Z" style="fill:url(#ai);"/><path d="M112.13,460.71c19.75,3.58,32.43-8.39,32.4-8.26-.21,0-17.28-13.21-35.44-17.53-18.33-4.28-33.21,3.02-33.24,3.15-.25-.02,16.32,19.08,36.28,22.64Z" style="fill:url(#aj);"/><path d="M115.46,389.51c1.26,17.34-7.47,31.73-7.6,31.72-.03.22-15.11-16.35-15.42-34.78-.37-18.25,12.34-29.44,12.21-29.47-.01.17,9.5,15.32,10.8,32.53Z" style="fill:url(#ak);"/><path d="M75.53,423.19c18.45,6.88,32.84-2.55,32.8-2.42-.19-.03-14.23-15.78-31.11-23.15-17.05-7.36-32.84-2.85-32.88-2.74-.23-.06,12.54,21.4,31.2,28.31Z" style="fill:url(#al);"/><path d="M91.4,354.56c-1.79,17.11-12.83,29.57-12.95,29.54-.06.21-11.82-18.54-8.99-36.58,2.76-17.87,17.07-26.56,16.95-26.61-.04.16,6.71,16.66,4.98,33.65Z" style="fill:url(#am);"/><path d="M46.61,380.36c16.79,9.93,32.43,3.26,32.36,3.38-.18-.06-11.07-17.83-26.31-28-15.4-10.18-31.62-8.59-31.68-8.48-.21-.09,8.65,23.12,25.63,33.1Z" style="fill:url(#an);"/><path d="M73.85,316.2c-4.63,16.41-17.56,26.61-17.67,26.56-.09.2-8.42-20.19-2.63-37.36,5.69-17.01,21.15-23,21.05-23.06-.07.16,3.8,17.55-.75,33.86Z" style="fill:url(#ao);"/><path d="M25.67,333.47c14.76,12.68,31.16,8.93,31.09,9.04-.16-.09-7.79-19.36-21.03-32.04-13.38-12.72-29.54-14.06-29.62-13.96-.19-.12,4.62,24.21,19.56,36.97Z" style="fill:url(#ap);"/><path d="M63.07,275.46c-7.27,15.3-21.63,22.98-21.73,22.91-.12.18-4.88-21.29,3.65-37.16,8.4-15.73,24.56-18.87,24.46-18.95-.1.14.79,18-6.38,33.2Z" style="fill:url(#aq);"/><path d="M13,283.8c12.34,15.09,29.04,14.33,28.95,14.42-.13-.11-4.41-20.38-15.26-35.24C15.71,248.07.11,243.83.02,243.92c-.17-.15.47,24.69,12.98,39.88Z" style="fill:url(#ar);"/><path d="M59.32,233.39c-9.69,13.8-25.03,18.78-25.12,18.7-.15.16-1.23-21.86,9.83-36.04,10.91-14.06,27.28-14.29,27.19-14.38-.12.13-2.33,18.01-11.9,31.72Z" style="fill:url(#as);"/><path d="M8.9,232.63c9.55,17.11,26.04,19.34,25.93,19.42-.11-.13-.92-20.87-9-37.53-8.2-16.74-22.71-23.75-22.82-23.68-.15-.17-3.8,24.56,5.9,41.79Z" style="fill:url(#at);"/><path d="M62.85,191.04c-11.88,11.97-27.74,14.13-27.81,14.03-.18.14,2.56-21.88,15.92-34.03,13.19-12.05,29.28-9.37,29.2-9.47-.15.11-5.57,17.56-17.31,29.47Z" style="fill:url(#au);"/><path d="M13.65,181.23c6.35,18.7,22.13,23.86,22,23.93-.09-.15,2.68-20.85-2.24-38.89-5.03-18.14-17.93-27.74-18.05-27.69-.13-.19-8.2,23.81-1.7,42.65Z" style="fill:url(#av);"/><path d="M73.92,149.46c-13.85,9.84-29.74,9.14-29.8,9.04-.21.11,6.47-21.36,21.91-31.17,15.25-9.74,30.55-4.23,30.49-4.34-.18.09-8.91,16.67-22.6,26.47Z" style="fill:url(#aw);"/><path d="M27.56,130.88c2.76,19.81,17.29,27.77,17.15,27.81-.07-.16,6.39-20.31,5.03-39.27-1.46-19.07-12.2-31-12.34-30.96-.1-.21-12.73,22.45-9.84,42.42Z" style="fill:url(#ax);"/><path d="M92.79,109.71c-15.58,7.47-31,3.94-31.05,3.83-.24.08,10.5-20.29,27.78-27.51,17.06-7.17,31.07,1.01,31.02.9-.21.06-12.36,15.33-27.75,22.78Z" style="fill:url(#ay);"/><path d="M50.92,82.88c-1.24,20.4,11.52,30.94,11.36,30.96-.05-.17,10.22-19.25,12.81-38.62,2.52-19.49-5.51-33.41-5.67-33.4-.08-.22-17.38,20.48-18.5,41.06Z" style="fill:url(#az);"/><path d="M119.71,72.85c-17.06,4.89-31.52-1.36-31.55-1.47-.27.05,14.67-18.68,33.54-23.09,18.64-4.4,30.82,6.25,30.79,6.13-.24.03-15.92,13.54-32.78,18.43Z" style="fill:url(#ba);"/><path d="M84.02,38.51c-5.66,20.42,4.79,33.26,4.61,33.26-.02-.17,14.15-17.67,21.12-36.89C116.66,15.53,111.91,0,111.73,0c-.06-.23-22.15,17.89-27.71,38.51Z" style="fill:url(#bb);"/><path d="M304.49,501.19l-.34-3.74c-31.01,2.81-61.93-.65-91.89-10.27-29.19-9.37-56.22-24.17-80.33-43.99-50.04-41.12-82.31-99.8-90.87-165.22-7.01-53.58-3.41-101.32,10.68-141.9,15.14-43.58,42.09-77.68,80.12-101.36l-1.99-3.19c-38.78,24.14-66.26,58.9-81.69,103.31-14.29,41.14-17.94,89.46-10.86,143.63,8.68,66.38,41.43,125.91,92.21,167.64,24.48,20.12,51.93,35.14,81.57,44.66,30.44,9.78,61.86,13.29,93.38,10.43Z" style="fill:url(#bc);"/><polygon points="298.3 482.04 269.9 502.93 298.3 523.82 326.71 502.93 298.3 482.04" style="fill:url(#bd);"/><path d="M258.68,73.42v94.7h20.75v27.59h-20.75v33.33h-32.45v-33.33h-75.5l-5.52-24.06,84.77-98.23h28.7ZM226.23,120l-41.06,48.12h41.06v-48.12Z" style="fill:url(#be);"/><path d="M370.82,231.7c-41.28,0-68.43-34.66-68.43-79.69s27.59-80.13,68.87-80.13,68.43,34.66,68.43,79.69-27.59,80.13-68.87,80.13ZM370.82,102.56c-20.53,0-33.55,20.53-33.55,49.01s13.47,49.45,34,49.45,33.55-20.75,33.55-49.01-13.47-49.45-34-49.45Z" style="fill:url(#bf);"/><path d="M205.27,321.24l-15.94-53.65h13.18l9.51,36.57h.23l9.52-36.57h12.04l-15.94,53.65v26.6h-12.61v-26.6Z" style="fill:url(#bg);"/><path d="M251.49,301.41h17.31v11.46h-17.31v23.5h21.78v11.46h-34.39v-80.25h34.39v11.46h-21.78v22.35Z" style="fill:url(#bh);"/><path d="M321.89,347.84h-12.73l-2.18-14.56h-15.48l-2.18,14.56h-11.58l12.84-80.25h18.46l12.84,80.25ZM293.11,322.39h12.15l-5.96-40.58h-.23l-5.96,40.58Z" style="fill:url(#bi);"/><path d="M354.11,347.84c-.69-2.06-1.14-3.32-1.14-9.86v-12.61c0-7.45-2.52-10.2-8.25-10.2h-4.36v32.67h-12.61v-80.25h19.03c13.07,0,18.69,6.08,18.69,18.46v6.31c0,8.25-2.63,13.53-8.25,16.16v.23c6.31,2.63,8.37,8.6,8.37,16.97v12.38c0,3.9.11,6.76,1.37,9.74h-12.84ZM340.36,279.06v24.65h4.93c4.7,0,7.57-2.06,7.57-8.48v-7.91c0-5.73-1.95-8.25-6.42-8.25h-6.08Z" style="fill:url(#bj);"/><path d="M390.81,266.68c12.27,0,18.57,7.34,18.57,20.18v2.52h-11.92v-3.32c0-5.73-2.29-7.91-6.3-7.91s-6.31,2.18-6.31,7.91,2.52,10.2,10.77,17.42c10.55,9.29,13.87,15.94,13.87,25.11,0,12.84-6.42,20.18-18.8,20.18s-18.8-7.34-18.8-20.18v-4.93h11.92v5.73c0,5.73,2.52,7.8,6.53,7.8s6.53-2.06,6.53-7.8-2.52-10.2-10.77-17.42c-10.55-9.28-13.87-15.94-13.87-25.11,0-12.84,6.3-20.18,18.57-20.18Z" style="fill:url(#bk);"/><path d="M59.5,608.02h-22.28v-35.59h22.02v4.33h-17.02v10.89h13.33v4.33h-13.33v11.71h17.29v4.33Z" style="fill:#fff;"/><path d="M80.27,594.4l10.37,13.62h-5.52l-7.7-10.54-7.84,10.54h-5.64l10.66-13.54-10.28-13.39h5.64l7.52,10.34,7.44-10.34h5.35l-9.99,13.3Z" style="fill:#fff;"/><path d="M99.01,606.73c-2.03-1.15-3.63-2.78-4.78-4.89-1.15-2.11-1.73-4.55-1.73-7.32s.6-5.3,1.79-7.41c1.19-2.11,2.79-3.73,4.79-4.87,2-1.13,4.22-1.7,6.64-1.7s4.53.41,6.2,1.23c1.67.82,3.25,2.13,4.72,3.91l-3.31,2.88c-1.18-1.47-2.31-2.49-3.4-3.05-1.08-.56-2.48-.84-4.18-.84-1.51,0-2.9.4-4.15,1.21-1.26.8-2.26,1.95-3.01,3.44-.75,1.49-1.12,3.22-1.12,5.2,0,2.07.35,3.84,1.05,5.32s1.68,2.58,2.95,3.33c1.27.75,2.75,1.12,4.43,1.12s3.13-.32,4.4-.96c1.27-.64,2.37-1.6,3.3-2.88l3.34,2.67c-1.41,1.78-2.99,3.12-4.72,4.01-1.73.89-3.84,1.34-6.32,1.34s-4.85-.58-6.88-1.73Z" style="fill:#fff;"/><path d="M145.43,595.79h-20.54c.23,2.75,1.18,4.85,2.85,6.3,1.67,1.45,3.78,2.18,6.33,2.18,1.45,0,2.84-.24,4.15-.73,1.32-.48,2.44-1.17,3.37-2.06l2.73,3.08c-1.3,1.26-2.82,2.22-4.56,2.89s-3.68,1-5.81,1c-2.58,0-4.91-.57-7-1.7s-3.74-2.75-4.95-4.87c-1.21-2.11-1.82-4.57-1.82-7.38s.57-5.21,1.7-7.32,2.7-3.75,4.69-4.91c1.99-1.16,4.23-1.74,6.71-1.74s4.58.55,6.44,1.64c1.85,1.09,3.28,2.62,4.28,4.58,1.01,1.96,1.51,4.19,1.51,6.71,0,.76-.03,1.53-.09,2.32ZM127.93,586.57c-1.46,1.29-2.41,3.05-2.83,5.27h15.95c-.19-2.32-.98-4.11-2.35-5.34s-3.21-1.86-5.49-1.86c-2.05,0-3.81.64-5.27,1.93Z" style="fill:#fff;"/><path d="M157.63,608.02h-4.79v-38.29h4.79v38.29Z" style="fill:#fff;"/><path d="M172.42,608.02h-4.79v-38.29h4.79v38.29Z" style="fill:#fff;"/><path d="M204.98,595.79h-20.54c.23,2.75,1.18,4.85,2.85,6.3,1.67,1.45,3.78,2.18,6.33,2.18,1.45,0,2.84-.24,4.15-.73,1.32-.48,2.44-1.17,3.37-2.06l2.73,3.08c-1.3,1.26-2.82,2.22-4.56,2.89s-3.68,1-5.81,1c-2.58,0-4.91-.57-7-1.7s-3.74-2.75-4.95-4.87c-1.21-2.11-1.82-4.57-1.82-7.38s.57-5.21,1.7-7.32,2.7-3.75,4.69-4.91c1.99-1.16,4.23-1.74,6.71-1.74s4.58.55,6.44,1.64c1.85,1.09,3.28,2.62,4.28,4.58,1.01,1.96,1.51,4.19,1.51,6.71,0,.76-.03,1.53-.09,2.32ZM187.48,586.57c-1.46,1.29-2.41,3.05-2.83,5.27h15.95c-.19-2.32-.98-4.11-2.35-5.34s-3.21-1.86-5.49-1.86c-2.05,0-3.81.64-5.27,1.93Z" style="fill:#fff;"/><path d="M211.46,608.02v-26.93h4.15l.17,4.65h.09c.93-1.63,2.13-2.9,3.6-3.82,1.47-.92,3.15-1.38,5.03-1.38,1.99,0,3.77.41,5.32,1.23,1.55.82,2.76,2.03,3.63,3.63s1.31,3.51,1.31,5.74v16.88h-4.82v-15.77c0-2.48-.56-4.35-1.69-5.62-1.12-1.27-2.69-1.9-4.71-1.9-1.22,0-2.39.33-3.5.99s-2.02,1.66-2.73,3.01c-.71,1.35-1.06,2.99-1.06,4.92v14.38h-4.79Z" style="fill:#fff;"/><path d="M247.37,606.73c-2.03-1.15-3.63-2.78-4.78-4.89-1.15-2.11-1.73-4.55-1.73-7.32s.6-5.3,1.79-7.41c1.19-2.11,2.79-3.73,4.79-4.87,2-1.13,4.22-1.7,6.64-1.7s4.53.41,6.2,1.23c1.67.82,3.25,2.13,4.72,3.91l-3.31,2.88c-1.18-1.47-2.31-2.49-3.4-3.05-1.08-.56-2.48-.84-4.18-.84-1.51,0-2.9.4-4.15,1.21-1.26.8-2.26,1.95-3.01,3.44-.75,1.49-1.12,3.22-1.12,5.2,0,2.07.35,3.84,1.05,5.32s1.68,2.58,2.95,3.33c1.27.75,2.75,1.12,4.43,1.12s3.13-.32,4.4-.96c1.27-.64,2.37-1.6,3.3-2.88l3.34,2.67c-1.41,1.78-2.99,3.12-4.72,4.01-1.73.89-3.84,1.34-6.32,1.34s-4.85-.58-6.88-1.73Z" style="fill:#fff;"/><path d="M293.79,595.79h-20.54c.23,2.75,1.18,4.85,2.85,6.3,1.67,1.45,3.78,2.18,6.33,2.18,1.45,0,2.84-.24,4.15-.73,1.32-.48,2.44-1.17,3.37-2.06l2.73,3.08c-1.3,1.26-2.82,2.22-4.56,2.89s-3.68,1-5.81,1c-2.58,0-4.91-.57-7-1.7s-3.74-2.75-4.95-4.87c-1.21-2.11-1.82-4.57-1.82-7.38s.57-5.21,1.7-7.32,2.7-3.75,4.69-4.91c1.99-1.16,4.23-1.74,6.71-1.74s4.58.55,6.44,1.64c1.85,1.09,3.28,2.62,4.28,4.58,1.01,1.96,1.51,4.19,1.51,6.71,0,.76-.03,1.53-.09,2.32ZM276.29,586.57c-1.46,1.29-2.41,3.05-2.83,5.27h15.95c-.19-2.32-.98-4.11-2.35-5.34s-3.21-1.86-5.49-1.86c-2.05,0-3.81.64-5.27,1.93Z" style="fill:#fff;"/><path d="M320.58,608.02v-35.59h11.47c3.68,0,6.86.7,9.53,2.09,2.67,1.39,4.71,3.42,6.13,6.09s2.12,5.85,2.12,9.57-.71,6.94-2.14,9.62c-1.42,2.67-3.47,4.71-6.14,6.12-2.67,1.4-5.84,2.11-9.5,2.11h-11.47ZM332.26,603.7c4.05,0,7.15-1.13,9.31-3.4,2.16-2.27,3.24-5.64,3.24-10.11s-1.08-7.71-3.24-9.99c-2.16-2.29-5.26-3.43-9.31-3.43h-6.68v26.93h6.68Z" style="fill:#fff;"/><path d="M380.04,595.79h-20.54c.23,2.75,1.18,4.85,2.85,6.3,1.67,1.45,3.78,2.18,6.33,2.18,1.45,0,2.84-.24,4.15-.73s2.44-1.17,3.37-2.06l2.73,3.08c-1.3,1.26-2.82,2.22-4.56,2.89s-3.68,1-5.81,1c-2.58,0-4.91-.57-7-1.7s-3.74-2.75-4.95-4.87c-1.21-2.11-1.82-4.57-1.82-7.38s.57-5.21,1.7-7.32,2.7-3.75,4.69-4.91c2-1.16,4.23-1.74,6.71-1.74s4.58.55,6.43,1.64c1.85,1.09,3.28,2.62,4.29,4.58s1.51,4.19,1.51,6.71c0,.76-.03,1.53-.09,2.32ZM362.54,586.57c-1.46,1.29-2.41,3.05-2.83,5.27h15.95c-.19-2.32-.98-4.11-2.35-5.34s-3.21-1.86-5.49-1.86c-2.05,0-3.81.64-5.27,1.93Z" style="fill:#fff;"/><path d="M392.24,608.02h-4.79v-38.29h4.79v38.29Z" style="fill:#fff;"/><path d="M402.18,574.53c-.62-.58-.93-1.4-.93-2.47s.31-1.87.92-2.47c.61-.6,1.46-.9,2.54-.9,1.03,0,1.85.31,2.47.93.62.62.93,1.43.93,2.44s-.31,1.86-.92,2.46c-.61.59-1.44.89-2.48.89s-1.91-.29-2.53-.87ZM407.09,608.02h-4.79v-26.93h4.79v26.93Z" style="fill:#fff;"/><path d="M429.11,608.2h-4.68l-10.87-27.1h5.08l8.08,21.79h.2l8.13-21.79h4.97l-10.92,27.1Z" style="fill:#fff;"/><path d="M467.63,595.79h-20.54c.23,2.75,1.18,4.85,2.85,6.3,1.67,1.45,3.78,2.18,6.33,2.18,1.45,0,2.84-.24,4.15-.73s2.44-1.17,3.37-2.06l2.73,3.08c-1.3,1.26-2.82,2.22-4.56,2.89s-3.68,1-5.81,1c-2.58,0-4.91-.57-7-1.7s-3.74-2.75-4.95-4.87c-1.21-2.11-1.82-4.57-1.82-7.38s.57-5.21,1.7-7.32,2.7-3.75,4.69-4.91c2-1.16,4.23-1.74,6.71-1.74s4.58.55,6.43,1.64c1.85,1.09,3.28,2.62,4.29,4.58s1.51,4.19,1.51,6.71c0,.76-.03,1.53-.09,2.32ZM450.13,586.57c-1.46,1.29-2.41,3.05-2.83,5.27h15.95c-.19-2.32-.98-4.11-2.35-5.34s-3.21-1.86-5.49-1.86c-2.05,0-3.81.64-5.27,1.93Z" style="fill:#fff;"/><path d="M474.11,608.02v-26.93h3.92l.44,4.85h.12c.72-1.8,1.79-3.15,3.22-4.05,1.43-.9,3.19-1.35,5.26-1.35.91,0,1.69.1,2.32.29l-.61,4.3c-.43-.08-.83-.13-1.21-.16s-.92-.04-1.64-.04c-1.16,0-2.28.33-3.36.99-1.07.66-1.96,1.64-2.64,2.95-.69,1.31-1.03,2.88-1.03,4.72v14.44h-4.79Z" style="fill:#fff;"/><path d="M516.93,595.79h-20.54c.23,2.75,1.18,4.85,2.85,6.3,1.67,1.45,3.78,2.18,6.33,2.18,1.45,0,2.84-.24,4.15-.73s2.44-1.17,3.37-2.06l2.73,3.08c-1.3,1.26-2.82,2.22-4.56,2.89s-3.68,1-5.81,1c-2.58,0-4.91-.57-7-1.7s-3.74-2.75-4.95-4.87c-1.21-2.11-1.82-4.57-1.82-7.38s.57-5.21,1.7-7.32,2.7-3.75,4.69-4.91c2-1.16,4.23-1.74,6.71-1.74s4.58.55,6.43,1.64c1.85,1.09,3.28,2.62,4.29,4.58s1.51,4.19,1.51,6.71c0,.76-.03,1.53-.09,2.32ZM499.43,586.57c-1.46,1.29-2.41,3.05-2.83,5.27h15.95c-.19-2.32-.98-4.11-2.35-5.34s-3.21-1.86-5.49-1.86c-2.05,0-3.81.64-5.27,1.93Z" style="fill:#fff;"/><path d="M527.72,606.83c-1.95-1.08-3.49-2.67-4.63-4.75s-1.71-4.54-1.71-7.37.58-5.42,1.73-7.55c1.15-2.13,2.7-3.76,4.65-4.88,1.95-1.12,4.11-1.68,6.49-1.68,2,0,3.82.45,5.48,1.34,1.66.89,2.97,2.06,3.94,3.52h.06v-15.57h4.85v38.14h-4.15l-.38-5.46h-.06c-.48,1.1-1.21,2.11-2.18,3.01-.97.9-2.11,1.61-3.43,2.12s-2.71.77-4.18.77c-2.36,0-4.52-.54-6.46-1.63ZM539.2,603.2c1.37-.79,2.46-1.97,3.28-3.52.82-1.55,1.23-3.4,1.23-5.55,0-1.9-.42-3.57-1.25-5.01-.83-1.44-1.93-2.55-3.3-3.31-1.37-.76-2.84-1.15-4.43-1.15-1.67,0-3.13.38-4.4,1.13-1.27.75-2.26,1.88-2.96,3.38-.71,1.5-1.06,3.35-1.06,5.53,0,2,.35,3.72,1.06,5.19.71,1.46,1.69,2.58,2.95,3.34,1.26.77,2.72,1.15,4.39,1.15s3.12-.4,4.49-1.19Z" style="fill:#fff;"/><path d="M243.96,406.13l2.01-2.05c.94,1.06,1.93,1.83,2.96,2.31,1.04.48,2.26.72,3.67.72s2.56-.3,3.34-.89c.77-.59,1.16-1.45,1.16-2.57,0-.97-.33-1.77-.98-2.39-.65-.61-1.76-1.14-3.34-1.58l-2.52-.71c-1.89-.54-3.28-1.31-4.18-2.33s-1.34-2.28-1.34-3.77c0-1.06.3-2.06.89-2.99.6-.93,1.45-1.68,2.57-2.25,1.12-.57,2.42-.85,3.9-.85,1.63,0,3.11.31,4.42.92,1.32.61,2.4,1.45,3.26,2.49l-2.03,1.83c-.62-.75-1.43-1.35-2.42-1.8-.99-.45-2.03-.67-3.12-.67-.95,0-1.75.15-2.4.46-.65.3-1.14.71-1.46,1.22-.32.51-.48,1.08-.48,1.7,0,.82.25,1.48.77,1.99s1.38.95,2.61,1.3l2.16.6c2.35.66,4.05,1.52,5.1,2.59,1.05,1.07,1.57,2.45,1.57,4.14,0,1.22-.3,2.3-.89,3.26-.59.95-1.45,1.69-2.56,2.22-1.12.53-2.43.8-3.94.8-3.74,0-6.65-1.24-8.74-3.71Z" style="fill:url(#bl);"/><path d="M272.45,409.56h-3.16v-22.39h3.16v22.39Z" style="fill:url(#bm);"/><path d="M286.58,409.56h-2.93v-22.39h3.71l8.9,14.42,2.43,4.18h.15l-.15-5.47v-13.14h2.93v22.39h-3.67l-8.99-14.53-2.34-4.06h-.13l.09,4.29v14.29Z" style="fill:url(#bn);"/><path d="M315.7,408.38c-1.63-.97-2.88-2.32-3.77-4.06-.88-1.74-1.33-3.72-1.33-5.95s.47-4.26,1.41-6.01,2.22-3.11,3.83-4.08,3.41-1.44,5.38-1.44c1.79,0,3.38.32,4.78.95,1.4.63,2.63,1.58,3.7,2.83l-2.12,1.85c-.82-.99-1.73-1.71-2.75-2.16-1.02-.45-2.19-.68-3.52-.68-1.43,0-2.71.34-3.86,1.01s-2.05,1.66-2.71,2.98c-.66,1.32-1,2.9-1,4.75s.32,3.45.97,4.75c.65,1.3,1.55,2.28,2.71,2.94,1.16.66,2.51.99,4.03.99,1.34,0,2.52-.21,3.53-.64,1.01-.43,1.91-1.09,2.7-1.99l2.07,2.03c-1.16,1.16-2.41,2.01-3.75,2.56-1.34.55-2.89.82-4.64.82-2.16,0-4.05-.48-5.67-1.45Z" style="fill:url(#bo);"/><path d="M352.82,409.56h-14.02v-22.39h13.86v2.72h-10.71v6.85h8.39v2.72h-8.39v7.37h10.88v2.72Z" style="fill:url(#bp);"/><path d="M271.03,443.09h5.89v2.61h-14.97v-2.61h6.05v-13.34c0-.85.03-2.02.07-3.51l-.04-.04-5.76,2.36-1.06-2.52,7.22-2.83h2.6v19.89Z" style="fill:url(#bq);"/><path d="M292.79,424.27c1.28.85,2.26,2.08,2.94,3.71.68,1.63,1.02,3.6,1.02,5.91,0,8.01-2.89,12.01-8.68,12.01-1.28,0-2.49-.22-3.64-.67-1.15-.44-2.19-1.13-3.15-2.06l1.92-2.01c.78.8,1.53,1.37,2.26,1.71.73.34,1.59.5,2.61.5,2.02,0,3.51-.77,4.46-2.32.95-1.55,1.44-3.69,1.46-6.42h-.13c-.47,1.1-1.27,1.94-2.38,2.52-1.11.58-2.37.88-3.78.88s-2.61-.3-3.71-.9c-1.1-.6-1.96-1.44-2.58-2.54-.62-1.1-.93-2.36-.93-3.78s.3-2.82.91-4c.61-1.18,1.49-2.11,2.65-2.8s2.52-1.02,4.09-1.02c1.82,0,3.37.42,4.65,1.27ZM285.78,426.27c-.73.41-1.29.98-1.68,1.73s-.58,1.61-.58,2.6c0,1.58.4,2.79,1.19,3.63.79.84,1.92,1.25,3.4,1.25.98,0,1.84-.2,2.61-.61.76-.41,1.35-.98,1.78-1.71.43-.73.64-1.57.64-2.52,0-1.52-.42-2.73-1.26-3.63s-2.01-1.34-3.49-1.34c-1,0-1.86.2-2.59.61Z" style="fill:url(#br);"/><path d="M312.09,423.78c1.07.49,1.9,1.19,2.49,2.08.58.9.88,1.92.88,3.06s-.28,2.18-.85,3.03-1.37,1.48-2.4,1.91v.16c1.4.5,2.46,1.22,3.19,2.15.73.93,1.09,2.06,1.09,3.37s-.34,2.45-1.01,3.42-1.62,1.73-2.84,2.26c-1.23.53-2.66.79-4.29.79s-3.02-.27-4.24-.8c-1.22-.54-2.16-1.28-2.82-2.25-.66-.96-1-2.07-1-3.31,0-1.33.37-2.47,1.11-3.44s1.77-1.69,3.12-2.19v-.16c-1.04-.44-1.83-1.08-2.39-1.94s-.84-1.85-.84-3,.29-2.15.88-3.04c.58-.89,1.41-1.59,2.48-2.09s2.31-.75,3.71-.75,2.67.25,3.75.74ZM311.09,442.98c.76-.34,1.35-.83,1.76-1.45.41-.63.61-1.37.61-2.22,0-.8-.21-1.51-.64-2.12-.43-.61-1.02-1.08-1.79-1.41-.77-.33-1.65-.49-2.65-.49s-1.84.17-2.6.5-1.35.81-1.78,1.42c-.43.61-.64,1.31-.64,2.1,0,1.3.45,2.33,1.34,3.07.9.75,2.12,1.12,3.68,1.12,1.05,0,1.95-.17,2.72-.51ZM305.41,426.5c-.72.63-1.08,1.53-1.08,2.7,0,.69.17,1.31.52,1.84s.83.94,1.45,1.23c.62.29,1.34.44,2.14.44s1.52-.15,2.14-.44c.62-.29,1.11-.7,1.45-1.23.35-.53.52-1.14.52-1.84,0-1.15-.37-2.04-1.12-2.68-.74-.64-1.74-.96-3-.96s-2.32.31-3.04.94Z" style="fill:url(#bs);"/><path d="M332.02,423.58c1.05.38,2.06.98,3.03,1.78l-1.74,1.97c-.74-.62-1.46-1.07-2.16-1.35-.69-.28-1.48-.42-2.36-.42-1.21,0-2.28.36-3.21,1.07-.93.71-1.66,1.76-2.19,3.13-.53,1.38-.79,3.04-.79,4.97h.11c.6-1.06,1.43-1.9,2.49-2.51s2.29-.92,3.66-.92,2.66.29,3.75.88c1.08.58,1.93,1.42,2.54,2.51.61,1.09.91,2.37.91,3.83s-.33,2.81-.99,3.93c-.66,1.12-1.58,1.98-2.75,2.59-1.18.6-2.51.9-4.01.9-1.77,0-3.29-.43-4.58-1.3-1.28-.86-2.27-2.15-2.96-3.85s-1.03-3.76-1.03-6.19.37-4.41,1.11-6.16,1.79-3.1,3.13-4.04c1.34-.94,2.88-1.41,4.61-1.41,1.23,0,2.37.19,3.43.58ZM325.99,434.55c-.77.41-1.38.97-1.82,1.67-.44.71-.66,1.5-.66,2.38s.2,1.74.6,2.47c.4.73.96,1.31,1.67,1.73.71.42,1.51.63,2.39.63,1.52,0,2.72-.41,3.58-1.24s1.3-2.02,1.3-3.58-.39-2.64-1.16-3.45c-.77-.81-1.87-1.22-3.3-1.22-.96,0-1.83.2-2.6.61Z" style="fill:url(#bt);"/></g></svg>