<?xml version="1.0" encoding="UTF-8"?><svg id="uuid-3c4f392f-2f1a-491b-94db-a8678e07d77a" xmlns="http://www.w3.org/2000/svg" viewBox="0 0 64 64"><line x1="24.13" y1="25.94" x2="27.15" y2="25.94" style="fill:none; stroke:#0e185f; stroke-linecap:round; stroke-linejoin:round; stroke-width:2px;"/><line x1="14.35" y1="44.11" x2="17.36" y2="44.11" style="fill:none; stroke:#0e185f; stroke-linecap:round; stroke-linejoin:round; stroke-width:2px;"/><line x1="20.81" y1="44.11" x2="23.82" y2="44.11" style="fill:none; stroke:#0e185f; stroke-linecap:round; stroke-linejoin:round; stroke-width:2px;"/><line x1="27.26" y1="44.11" x2="30.28" y2="44.11" style="fill:none; stroke:#0e185f; stroke-linecap:round; stroke-linejoin:round; stroke-width:2px;"/><line x1="33.72" y1="44.11" x2="36.74" y2="44.11" style="fill:none; stroke:#0e185f; stroke-linecap:round; stroke-linejoin:round; stroke-width:2px;"/><line x1="40.18" y1="44.11" x2="43.19" y2="44.11" style="fill:none; stroke:#0e185f; stroke-linecap:round; stroke-linejoin:round; stroke-width:2px;"/><line x1="46.64" y1="44.11" x2="49.65" y2="44.11" style="fill:none; stroke:#0e185f; stroke-linecap:round; stroke-linejoin:round; stroke-width:2px;"/><path d="m12.06,38.06h39.88c2.36,0,4.28,1.92,4.28,4.28h0c0,1.14-.45,2.22-1.25,3.03l-3.55,3.55c-.8.8-1.89,1.25-3.03,1.25H15.61c-1.14,0-2.22-.45-3.03-1.25l-3.55-3.55c-.8-.8-1.25-1.89-1.25-3.03h0c0-2.36,1.92-4.28,4.28-4.28Z" style="fill:none; stroke:#0e185f; stroke-linecap:round; stroke-linejoin:round; stroke-width:2px;"/><polyline points="13.83 38.06 13.83 35.03 16.86 32 44.11 32 47.14 35.03 47.14 38.06" style="fill:none; stroke:#0e185f; stroke-linecap:round; stroke-linejoin:round; stroke-width:2px;"/><polyline points="22.92 32 19.89 28.97 19.89 22.92 22.92 19.89 35.02 19.89 38.05 22.92 38.05 28.97 35.02 32" style="fill:none; stroke:#0e185f; stroke-linecap:round; stroke-linejoin:round; stroke-width:2px;"/><line x1="38.06" y1="25.94" x2="56.22" y2="25.94" style="fill:none; stroke:#0e185f; stroke-linecap:round; stroke-linejoin:round; stroke-width:2px;"/><line x1="56.22" y1="28.97" x2="56.22" y2="22.92" style="fill:none; stroke:#0e185f; stroke-linejoin:round; stroke-width:2px;"/><line x1="25.94" y1="13.83" x2="25.94" y2="19.89" style="fill:none; stroke:#0e185f; stroke-linecap:round; stroke-linejoin:round; stroke-width:2px;"/><line x1="50.17" y1="22.92" x2="50.17" y2="28.97" style="fill:none; stroke:#0e185f; stroke-linejoin:round; stroke-width:2px;"/></svg>