<?xml version="1.0" encoding="UTF-8"?>
<svg id="Layer_1" data-name="Layer 1" xmlns="http://www.w3.org/2000/svg" viewBox="0 0 64 64">
  <defs>
    <style>
      .cls-1 {
        fill: none;
        stroke: #000;
        stroke-linecap: round;
        stroke-linejoin: round;
        stroke-width: 2px;
      }
    </style>
  </defs>
  <path class="cls-1" d="m48.81,41.04l-.73-.69c-.28-.27-.69-.36-1.07-.24l-2.37.76c-.6.19-.9.85-.67,1.43l.69,1.68c.24.57-.06,1.22-.64,1.42l-4.91,1.7c-.68.24-.94,1.07-.51,1.65l3.86,5.27c.07.09.12.2.16.31l.95,2.98c.21.66.98.95,1.57.6l6.27-3.71c.15-.09.32-.14.5-.15l4.92-.21c.69-.03,1.17-.69.99-1.35l-.94-3.52c-.05-.19-.15-.36-.3-.5l-.89-.84"/>
  <path class="cls-1" d="m39.71,38.08l4.34-2.43c.47-.26.67-.84.47-1.34l-2.7-6.61c-.18-.44-.64-.71-1.11-.66l-4.54.51c-.09.01-.19,0-.28,0l-3.8-.59c-.46-.07-.91.16-1.12.57l-1.04,2.01c-.28.54-.05,1.21.5,1.47l5.23,2.41c.21.1.38.25.49.45l2.1,3.79c.29.52.94.71,1.46.42Z"/>
  <path class="cls-1" d="m20.1,36.33l1.04,2.16c.24.5.75.81,1.31.79l3.13-.13c.97-.04,1.6-1.03,1.23-1.93l-1.45-3.45c-.32-.75-1.2-1.07-1.93-.69l-2.71,1.42c-.66.35-.93,1.16-.61,1.83Z"/>
  <path class="cls-1" d="m6.86,7l2.79-.97c.25-.09.51-.08.76.02l2.42.98c.57.23.83.89.57,1.44l-1.65,3.59c-.19.41-.61.66-1.06.62l-2.43-.18c-.43-.03-.8-.32-.94-.73l-1.14-3.41c-.19-.56.11-1.16.66-1.35Z"/>
  <path class="cls-1" d="m16.07,14.81l.03,1.83c0,.51.38.95.89,1.04l3.39.6c.4.07.73.37.84.76l.25.87c.17.6.81.92,1.39.72l2.12-.76c.61-.22.89-.93.59-1.5l-3.29-6.34c-.28-.53-.94-.74-1.46-.45l-4.19,2.28c-.35.19-.57.56-.56.96Z"/>
  <path class="cls-1" d="m33.1,15.38l-1.51,2.22c-.35.52-.19,1.22.35,1.53l4.83,2.78c.3.17.67.19.99.04l3.19-1.49c.8-.37.83-1.5.06-1.92l-6.51-3.51c-.48-.26-1.09-.11-1.4.34Z"/>
  <path class="cls-1" d="m33.95,44.7l-2.09.37c-.58.1-1.13-.28-1.23-.86l-.37-2.09c-.1-.58.28-1.13.86-1.23l2.09-.37c.58-.1,1.13.28,1.23.86l.37,2.09c.1.58-.28,1.13-.86,1.23Z"/>
  <line class="cls-1" x1="52.26" y1="44.31" x2="52.26" y2="44.31"/>
</svg>