<?xml version="1.0" encoding="UTF-8"?><svg xmlns="http://www.w3.org/2000/svg" viewBox="0 0 189.31 104.62"><defs><style>.d{stroke-width:1.46px;}.d,.e,.f,.g,.h,.i,.j,.k,.l,.m{fill:none;stroke:#005294;}.d,.e,.h,.i,.j{stroke-miterlimit:3;}.e{stroke-width:1.53px;}.f,.l{stroke-width:1.99px;}.g{stroke-width:2.21px;}.h{stroke-width:1.38px;}.h,.i,.j,.l{stroke-linecap:round;}.i{stroke-width:1.91px;}.j{stroke-width:1.68px;}.k{stroke-width:.81px;}.m{stroke-width:1.42px;}.n{fill:#005294;}</style></defs><g id="a"/><g id="b"><g id="c"><g><path class="n" d="M163.95,2.95c-.13-.15,3.12-2.85,3.05-2.95,5.9,7.66,13.91,13.22,22.3,17.85-.4-.23-2.43,2.99-3.05,2.95-7.09-.54-13.64,2.13-20.44,3.72,1.17-.27,1.84-2.66,3.05-2.95,6.8-1.59,13.35-4.27,20.44-3.72-1,.98-2.03,1.97-3.05,2.95-8.39-4.64-16.4-10.21-22.3-17.85M28.47,37.95c11.86-7.83,27.51-15.36,46.99-19.19,67.23-13.2,99.95-2.99,99.95-2.99,0,0-61.54-23.71-114.66-9C-5.53,25.13,.12,63.75,.12,63.75l-.02,.67c0,14.25,12.01,25.82,26.82,25.82s25.57-11.57,25.57-25.82-9.85-25.82-24.65-25.82l.63-.65Zm-10.34,3.72c5.17-2.09,11.21-2.34,17.01-.25,12.05,4.35,18.45,17.22,14.29,28.73-4.16,11.51-17.3,17.28-29.36,12.93-12.05-4.35-18.45-17.22-14.29-28.73,2.13-5.96,6.74-10.4,12.34-12.68"/><path class="d" d="M45.08,54.63c-1.74,4.81-7.97,6.95-13.93,4.79-5.96-2.16-9.37-7.8-7.64-12.6,1.74-4.79,7.97-6.95,13.93-4.79,5.96,2.18,9.37,7.8,7.64,12.6Z"/><path class="i" d="M51.38,64.21c-5.46,8.54-18.77,10.44-29.02,4.39-10.27-6.03-15.04-16.55-9.98-25.19"/><path class="j" d="M35.4,49.15c-7.07-5.61-14.21-8.22-20.42-7.53"/><path class="j" d="M36.55,49.55c7.51,3.43,12.68,7.53,14.73,11.74"/><path class="j" d="M34.64,49.46c3.83-.69,8.26-.17,13.01,1.57"/><path class="h" d="M35.86,49.5c-1.13-3.58-3.05-6.63-6.59-9.85"/><path class="f" d="M2,71.7c2.45-7.11,8.77-14.25,18.98-19.42,4.41-2.24,9.19-2.87,13.47-2.85"/><path class="l" d="M36.53,87.5c3.98-6.36,6-16.03,3.62-27.24-1.03-4.83-3.14-8.89-6.19-12.11"/><path class="g" d="M35.63,49.32s-6.17,11.09-7.78,14.46c-1.61,3.39-12.14,23.37-12.14,23.37"/><line class="e" x1="39.06" y1="42.14" x2="35.63" y2="48.83"/><path class="m" d="M38.3,49.32c0,1.49-1.19,2.68-2.68,2.68s-2.68-1.19-2.68-2.68,1.19-2.68,2.68-2.68c1.46,0,2.68,1.19,2.68,2.68Z"/><path class="n" d="M65.65,41.3h7.62v47.83h-7.62V41.3Zm11.57,47.81h7.62l2.24-10.27h10.38l2.24,10.27h7.6l-11.86-47.83h-6.34l-11.86,47.83Zm18.81-16.72h-7.62l3.72-17.32h.15l3.75,17.32Zm15,16.72h7.62v-29.08h.15l7.47,20.55h3.81l7.53-20.55h.15v29.08h7.62V41.3h-7.39l-9.71,25.32h-.15l-9.77-25.32h-7.32v47.81Z"/><path class="k" d="M65.65,41.3h7.62v47.83h-7.62V41.3Zm11.57,47.81h7.62l2.24-10.27h10.38l2.24,10.27h7.6l-11.86-47.83h-6.34l-11.86,47.83Zm18.81-16.72h-7.62l3.72-17.32h.15l3.75,17.32Zm15,16.72h7.62v-29.08h.15l7.47,20.55h3.81l7.53-20.55h.15v29.08h7.62V41.3h-7.39l-9.71,25.32h-.15l-9.77-25.32h-7.32v47.81Z"/><path class="n" d="M40.17,96.77h1.23v7.78h-1.23v-7.78Zm2.36,7.78h1.23v-3.72c0-.48,.17-.77,.63-.77,.4,0,.61,.25,.61,.65v3.85h1.23v-4.25c0-1-.65-1.36-1.28-1.36-.56,0-.92,.25-1.17,.61h-.02v-.54h-1.23v5.54Zm4.73-5.54h-.63v.88h.63v3.37c0,.59,.38,1.3,1.49,1.3h.5v-1.05c-.54,0-.77-.04-.77-.54v-3.08h.77v-.88h-.75v-1.69h-1.23v1.69Zm6.07,3.18v-1.53c0-.98-.71-1.74-1.84-1.74-.75,0-1.32,.31-1.61,.8-.17,.29-.23,.67-.23,1.13v1.82c0,.44,.06,.84,.23,1.13,.29,.48,.86,.8,1.61,.8,.56,0,1.03-.19,1.34-.5,.31-.29,.5-.71,.5-1.19h-1.23c-.02,.25-.13,.56-.61,.56-.38,0-.61-.19-.61-.54v-.75h2.45v.02Zm-2.47-1.51c0-.42,.23-.63,.61-.63s.61,.21,.61,.63v.63h-1.21v-.63Zm3.37,3.87h1.23v-3.28c0-.9,.73-1.19,1.26-1.19,.13,0,.25,.02,.38,.06v-1.17c-.71,0-1.13,.25-1.63,.65v-.59h-1.23v5.52Zm3.39,0h1.23v-3.72c0-.48,.17-.77,.63-.77,.4,0,.61,.25,.61,.65v3.85h1.23v-4.25c0-1-.65-1.36-1.28-1.36-.56,0-.92,.25-1.17,.61h-.02v-.54h-1.23v5.54Zm7.07,0h1.23v-3.87c0-1.15-.82-1.76-1.86-1.76-.56,0-1.03,.17-1.34,.46-.33,.29-.52,.71-.56,1.19h1.19c.06-.36,.4-.56,.71-.56,.46,0,.63,.29,.63,.65v.59c-.25-.02-.42-.04-.59-.04-1.55,0-1.97,.61-1.97,1.88s.77,1.49,1.34,1.49,.86-.23,1.19-.63h.02v.61Zm0-1.63c0,.44-.25,.71-.67,.71s-.65-.29-.65-.71c0-.59,.44-.8,.96-.8,.1,0,.21,.02,.33,.04v.75h.02Zm2.16-3.91h-.63v.88h.63v3.37c0,.59,.38,1.3,1.49,1.3h.5v-1.05c-.54,0-.77-.04-.77-.54v-3.08h.77v-.88h-.77v-1.69h-1.23v1.69h.02Zm2.47-1.13h1.23v-1.11h-1.23v1.11Zm0,6.67h1.23v-5.54h-1.23v5.54Zm2.16-1.86c0,.44,.06,.84,.23,1.13,.29,.48,.86,.8,1.61,.8s1.32-.31,1.61-.8c.17-.29,.23-.67,.23-1.13v-1.82c0-.44-.06-.84-.23-1.13-.29-.48-.86-.8-1.61-.8s-1.32,.31-1.61,.8c-.17,.29-.23,.67-.23,1.13v1.82Zm1.26-2.01c0-.42,.23-.63,.61-.63s.61,.21,.61,.63v2.18c0,.42-.23,.63-.61,.63s-.61-.21-.61-.63v-2.18Zm3.35,3.87h1.23v-3.72c0-.48,.17-.77,.63-.77,.4,0,.61,.25,.61,.65v3.85h1.23v-4.25c0-1-.65-1.36-1.28-1.36-.56,0-.92,.25-1.17,.61h-.02v-.54h-1.23v5.54Zm7.09,0h1.23v-3.87c0-1.15-.82-1.76-1.86-1.76-.56,0-1.03,.17-1.34,.46-.33,.29-.52,.71-.56,1.19h1.19c.06-.36,.4-.56,.71-.56,.46,0,.63,.29,.63,.65v.59c-.25-.02-.42-.04-.59-.04-1.55,0-1.97,.61-1.97,1.88s.77,1.49,1.34,1.49,.86-.23,1.19-.63h.02v.61Zm0-1.63c0,.44-.25,.71-.67,.71s-.65-.29-.65-.71c0-.59,.44-.8,.96-.8,.1,0,.21,.02,.33,.04v.75h.02Zm2.07,.15c0,1.3,.71,1.55,1.84,1.55v-1.05c-.48-.04-.61-.17-.61-.59v-6.21h-1.23v6.3Zm4.1,1.49h1.23l.36-1.67h1.69l.36,1.67h1.23l-1.92-7.78h-1.03l-1.92,7.78Zm3.08-2.72h-1.23l.61-2.82h.02l.61,2.82Zm5.77-1.28c-.02-.92-.73-1.61-1.76-1.61s-1.82,.67-1.82,1.61c0,.75,.48,1.28,1.26,1.53l.59,.19c.48,.17,.63,.38,.63,.67,0,.38-.33,.61-.69,.61-.46,0-.63-.31-.67-.63h-1.17c.04,1.09,.88,1.67,1.84,1.67,1.07,0,1.84-.75,1.84-1.67,0-.65-.29-1.26-1.21-1.57l-.73-.27c-.46-.17-.52-.36-.52-.56,0-.29,.21-.56,.61-.56,.33,0,.63,.19,.63,.56h1.19v.04Zm4.29,0c-.02-.92-.73-1.61-1.76-1.61s-1.82,.67-1.82,1.61c0,.75,.48,1.28,1.26,1.53l.59,.19c.48,.17,.63,.38,.63,.67,0,.38-.33,.61-.69,.61-.46,0-.63-.31-.67-.63h-1.17c.04,1.09,.88,1.67,1.84,1.67,1.07,0,1.84-.75,1.84-1.67,0-.65-.29-1.26-1.21-1.57l-.73-.27c-.46-.17-.52-.36-.52-.56,0-.29,.21-.56,.61-.56,.33,0,.63,.19,.63,.56h1.19v.04Zm.75,2.13c0,.44,.06,.84,.23,1.13,.29,.48,.86,.8,1.61,.8s1.32-.31,1.61-.8c.17-.29,.23-.67,.23-1.13v-1.82c0-.44-.06-.84-.23-1.13-.29-.48-.86-.8-1.61-.8s-1.32,.31-1.61,.8c-.17,.29-.23,.67-.23,1.13v1.82Zm1.23-2.01c0-.42,.23-.63,.61-.63s.61,.21,.61,.63v2.18c0,.42-.23,.63-.61,.63s-.61-.21-.61-.63v-2.18Zm4.69,0c0-.42,.23-.63,.61-.63s.61,.21,.61,.65h1.23c0-1.03-.71-1.78-1.84-1.78-.75,0-1.32,.31-1.61,.8-.17,.29-.23,.67-.23,1.13v1.82c0,.44,.06,.84,.23,1.13,.29,.48,.86,.8,1.61,.8,.56,0,1.03-.19,1.34-.5,.31-.29,.5-.71,.5-1.19h-1.23c-.02,.25-.13,.56-.61,.56-.38,0-.61-.19-.61-.54v-2.24h0Zm3.18-2.8h1.23v-1.11h-1.23v1.11Zm0,6.67h1.23v-5.54h-1.23v5.54Zm4.6,0h1.23v-3.87c0-1.15-.82-1.76-1.86-1.76-.56,0-1.03,.17-1.34,.46-.33,.29-.52,.71-.56,1.19h1.19c.06-.36,.4-.56,.71-.56,.46,0,.63,.29,.63,.65v.59c-.25-.02-.42-.04-.59-.04-1.55,0-1.95,.61-1.95,1.88s.77,1.49,1.34,1.49c.61,0,.86-.23,1.19-.63h.02v.61h-.02Zm0-1.63c0,.44-.25,.71-.67,.71s-.65-.29-.65-.71c0-.59,.44-.8,.96-.8,.1,0,.21,.02,.33,.04v.75h.02Zm2.16-3.91h-.63v.88h.63v3.37c0,.59,.38,1.3,1.51,1.3h.5v-1.05c-.54,0-.77-.04-.77-.54v-3.08h.77v-.88h-.77v-1.69h-1.23v1.69Zm2.49-1.13h1.23v-1.11h-1.23v1.11Zm0,6.67h1.23v-5.54h-1.23v5.54Zm2.16-1.86c0,.44,.06,.84,.23,1.13,.29,.48,.86,.8,1.61,.8s1.32-.31,1.61-.8c.17-.29,.23-.67,.23-1.13v-1.82c0-.44-.06-.84-.23-1.13-.29-.48-.86-.8-1.61-.8s-1.32,.31-1.61,.8c-.17,.29-.23,.67-.23,1.13v1.82Zm1.23-2.01c0-.42,.23-.63,.61-.63s.61,.21,.61,.63v2.18c0,.42-.23,.63-.61,.63s-.61-.21-.61-.63v-2.18Zm3.37,3.87h1.23v-3.72c0-.48,.17-.77,.63-.77,.4,0,.61,.25,.61,.65v3.85h1.23v-4.25c0-1-.65-1.36-1.28-1.36-.56,0-.92,.25-1.17,.61h-.02v-.54h-1.23v5.54h0Zm6.88-1.86c0,.44,.06,.84,.23,1.13,.29,.48,.86,.8,1.61,.8s1.32-.31,1.61-.8c.17-.29,.23-.67,.23-1.13v-1.82c0-.44-.06-.84-.23-1.13-.29-.48-.86-.8-1.61-.8s-1.32,.31-1.61,.8c-.17,.29-.23,.67-.23,1.13v1.82Zm1.23-2.01c0-.42,.23-.63,.61-.63s.61,.21,.61,.63v2.18c0,.42-.23,.63-.61,.63s-.61-.21-.61-.63v-2.18Zm3.52,3.87h1.23v-4.67h.92v-.88h-.92v-.82c0-.25,.13-.38,.36-.38h.56v-1.05h-.56c-.8,0-1.59,.42-1.59,1.49v.75h-.61v.88h.61v4.67Zm4.88,0h1.23v-4.73h.02l1.21,3.35h.63l1.23-3.35h.02v4.73h1.23v-7.78h-1.19l-1.59,4.12h-.02l-1.59-4.12h-1.19v7.78h0Zm6.59-1.86c0,.44,.06,.84,.23,1.13,.29,.48,.86,.8,1.61,.8s1.32-.31,1.61-.8c.17-.29,.23-.67,.23-1.13v-1.82c0-.44-.06-.84-.23-1.13-.29-.48-.86-.8-1.61-.8s-1.32,.31-1.61,.8c-.17,.29-.23,.67-.23,1.13v1.82Zm1.23-2.01c0-.42,.23-.63,.61-.63s.61,.21,.61,.63v2.18c0,.42-.23,.63-.61,.63s-.61-.21-.61-.63v-2.18Zm7.07-1.67h-1.32l-.82,3.54h-.02l-.84-3.54h-1.32l1.61,5.54h1.09l1.61-5.54Zm4.02,3.18v-1.53c0-.98-.71-1.74-1.84-1.74-.75,0-1.32,.31-1.61,.8-.17,.29-.23,.67-.23,1.13v1.82c0,.44,.06,.84,.23,1.13,.29,.48,.86,.8,1.61,.8,.56,0,1.03-.19,1.34-.5,.31-.29,.5-.71,.5-1.19h-1.23c-.02,.25-.13,.56-.61,.56-.38,0-.61-.19-.61-.54v-.75h2.45v.02Zm-2.45-1.51c0-.42,.23-.63,.61-.63s.61,.21,.61,.63v.63h-1.21v-.63Zm3.37,3.87h1.23v-3.28c0-.9,.75-1.19,1.28-1.19,.13,0,.25,.02,.38,.06v-1.17c-.71,0-1.13,.25-1.65,.65v-.59h-1.23v5.52Zm6.78-4c-.02-.92-.73-1.61-1.76-1.61s-1.82,.67-1.82,1.61c0,.75,.48,1.28,1.26,1.53l.59,.19c.48,.17,.63,.38,.63,.67,0,.38-.33,.61-.69,.61-.46,0-.63-.31-.67-.63h-1.17c.04,1.09,.88,1.67,1.84,1.67,1.07,0,1.84-.75,1.84-1.67,0-.65-.29-1.26-1.21-1.57l-.73-.27c-.46-.17-.52-.36-.52-.56,0-.29,.21-.56,.61-.56,.33,0,.63,.19,.63,.56h1.19v.04Z"/><path class="n" d="M150.52,41.78h-1.11v-.82h3.2v.82h-1.11v5.25h-.96v-5.25h-.02Zm2.51,5.23h.96v-3.68h.02l.94,2.59h.48l.96-2.59h.02v3.68h.96v-6.07h-.94l-1.23,3.2h-.02l-1.23-3.2h-.92v6.07h0Z"/></g></g></g></svg>