<?xml version="1.0" encoding="UTF-8"?><svg xmlns="http://www.w3.org/2000/svg" viewBox="0 0 209.94 135.34"><defs><style>.d{fill:#004e81;fill-rule:evenodd;}</style></defs><g id="a"/><g id="b"><g id="c"><path class="d" d="M29.92,135.34l8.59-42.96h13.95l-8.59,42.96h-13.95Zm42.05-14.05h8.9l-2.32-15.77-6.57,15.77h0Zm-19.51,14.05l21.03-42.96h13.75l8.69,42.96h-12.94l-.71-5.05h-13.75l-2.22,5.05h-13.85Zm56.3,0l4.75-32.35h-12.13l2.02-10.82h37.5l-2.12,10.82h-11.52l-4.75,32.35h-13.75Zm46.8-14.05h8.9l-2.33-15.77-6.57,15.77h0Zm-19.51,14.05l21.02-42.96h13.85l8.59,42.96h-13.04l-.61-5.05h-13.75l-2.22,5.05h-13.85ZM209.94,43.87h-65.5c-2.43,12.03-10.82,22.04-27.39,29.01,1.92,5.76,8.39,11.12,15.06,11.12h35.58c5.36,0,9.7-4.65,11.42-8.29h-36.19c-2.12-.4-2.33-2.12-.1-2.33h35.58c4.55,0,8.79-4.04,11.12-8.29h-41.34c-2.12-.3-2.12-2.12,0-2.43h41.64c4.24,0,8.09-4.85,9.6-8.19h-45.79c-2.22-.3-2.22-2.43,0-2.53h46.7c3.64,0,7.18-3.94,9.6-8.09h0ZM0,43.87H65.6c2.43,12.03,10.71,22.04,27.29,29.01-1.82,5.76-8.29,11.12-14.96,11.12H42.35c-5.46,0-9.7-4.65-11.42-8.29h36.08c2.22-.4,2.33-2.12,.1-2.33H31.64c-4.65,0-8.79-4.04-11.22-8.29H61.86c2.02-.3,2.02-2.12,0-2.43H20.11c-4.14,0-7.99-4.85-9.6-8.19H56.3c2.32-.3,2.32-2.43,0-2.53H9.7c-3.64,0-7.18-3.94-9.7-8.09H0ZM83.69,7.68c2.43,2.02,5.16,3.94,8.09,5.05,2.53-4.85,5.96-9,9.91-12.74-6.57,.91-12.74,3.44-17.99,7.68h0Zm-11.52,23.96h14.56c.3-6.07,1.62-11.32,4.04-16.78-3.33-1.42-6.06-3.23-8.79-5.56-6.06,6.06-9.4,13.85-9.81,22.34h0Zm31.64-13.75v13.75h-14.55c.1-5.46,1.31-10.92,3.64-15.97,3.44,1.31,7.18,2.12,10.92,2.22h0Zm22.44-10.21c-2.43,2.02-5.16,3.94-7.98,5.05-2.63-4.95-5.86-8.9-9.91-12.74,6.57,.91,12.74,3.44,17.89,7.68h0Zm11.62,23.96h-14.66c-.2-5.96-1.52-11.42-3.84-16.78,3.13-1.42,6.06-3.34,8.69-5.56,6.27,6.27,9.5,14.05,9.8,22.34h0Zm-31.64-13.75v13.75h14.55c0-5.56-1.41-10.82-3.74-15.97-3.44,1.31-7.18,2.12-10.82,2.22h0Zm-22.54,40.13c2.43-1.92,5.26-3.94,8.09-5.05,2.63,4.95,5.86,9,9.91,12.64-6.57-.81-12.84-3.34-17.99-7.58h0Zm-11.52-23.96h14.56c.3,6.06,1.62,11.32,4.04,16.88-3.33,1.42-6.06,3.23-8.79,5.46-5.96-5.96-9.4-13.85-9.81-22.34h0Zm31.64,13.75v-13.75h-14.55c.1,5.46,1.31,11.02,3.64,15.87,3.44-1.21,7.18-2.02,10.92-2.12h0Zm22.44,10.21c-2.33-2.02-5.16-3.84-7.98-5.05-2.63,4.95-5.86,9-9.91,12.64,6.57-.81,12.74-3.34,17.89-7.58h0Zm11.62-23.96h-14.66c-.2,6.06-1.42,11.42-3.84,16.88,3.13,1.42,5.96,3.23,8.69,5.46,5.96-5.96,9.5-14.05,9.8-22.34h0Zm-31.64,13.75v-13.75h14.55c0,5.46-1.41,10.92-3.74,15.87-3.34-1.21-7.28-2.02-10.82-2.12h0ZM103.81,1.42c-3.94,3.23-7.48,7.58-9.7,12.23,3.03,1.01,6.37,1.82,9.7,1.82V1.42h0Zm2.43,0c3.84,3.23,7.38,7.48,9.7,12.23-3.13,1.11-6.47,1.82-9.7,1.82V1.42h0Zm-2.43,62.87c-3.94-3.13-7.48-7.48-9.7-12.23,3.03-1.11,6.37-1.72,9.7-1.72v13.95h0Zm2.43,.1c3.84-3.23,7.38-7.58,9.7-12.33-3.13-1.01-6.47-1.72-9.7-1.72v14.05h0Z"/></g></g></svg>