<?xml version="1.0" encoding="UTF-8"?><svg xmlns="http://www.w3.org/2000/svg" viewBox="0 0 395.72 93.27"><defs><style>.d{fill:#f48120;}.e{fill:#f48220;}.f{fill:#535d72;}</style></defs><g id="a"/><g id="b"><g id="c"><g><path class="d" d="M126.2,66.64c-4.64,2.72-9.26,5.48-14.2,7.66-10.82,4.78-22.09,7.06-33.91,6.27-4.75-.32-9.34-1.4-13.6-3.64-8.93-4.7-11.51-13.57-6.39-22.29,3.93-6.69,10.02-10.82,16.99-13.79,7.68-3.27,15.73-4.54,24.05-4,4.22,.27,8.19,1.64,12.08,3.24,.72,.3,.76,.67,.55,1.38-.94,3.27-1.81,6.56-2.83,10.32-1.4-5.35-5.52-5.97-9.64-6.44-7.09-.8-13.86,.23-20.07,3.92-2.6,1.54-4.61,3.66-5.32,6.7-1.41,6.01,1.53,10.38,7.72,11.72,5.19,1.12,10.37,.85,15.54,0,10.83-1.77,21.16-5.04,30.79-10.36,.57-.32,1.09-.72,1.64-1.09,.56-.63,1.24-1.11,1.95-1.56,7.91-5.07,15.41-10.72,23.01-16.22,.74-.53,1.53-.9,2.35-1.25l6.44-4.55c-1.06,2.03-2.66,2.96-3.55,4.45,.01,.83-.64,1.25-1.15,1.71-1.71,1.55-3.04,3.52-5.1,4.68-2.2,2.17-4.41,4.34-6.61,6.5-1.73,2.54-4.24,4.29-6.51,6.27-3.81,3.33-7.84,6.39-11.99,9.28-.67,.46-1.28,1.09-2.2,1.08Z"/><path class="f" d="M180.18,79.8h-21.36c3.95-1.19,4.48-4.76,5.49-8.01,3.14-10.15,6.27-20.31,9.41-30.46,.44-1.41,.82-2.8-.7-3.84,.46-.48,.9-.3,1.27-.3,10.85-.01,21.7,0,32.56,0,.48,0,.96-.02,1.44,.02,3.35,.33,6.58,1.14,7.91,4.62,1.37,3.57,.76,7.13-1.58,10.17-2.35,3.06-5.72,4.88-9.11,6.55-1.15,.56-1.44,1.12-1.04,2.31,.75,2.27,1.29,4.6,2.06,6.86,2.03,5.99,2.61,6.86,7.73,12.15-5.26,0-10.39,.2-15.51-.07-3.28-.17-5.65-1.99-6.59-5.4-1.3-4.72-2.41-9.49-3.63-14.23-.32-1.24,.03-1.58,1.13-1.74,2.46-.35,4.74-1.21,6.86-2.51,2.7-1.67,4.44-3.99,4.73-7.21,.24-2.7-.91-4.34-3.53-5.03-2.53-.66-5.11-.55-7.68-.35-1.65,.13-2.27,1.48-2.71,2.78-1.21,3.56-2.35,7.14-3.46,10.74-1.78,5.76-3.51,11.54-5.27,17.3-.64,2.09-1,4.1,1.61,5.67Z"/><path class="f" d="M392.49,46.93c-1.07-2.86-3.16-3.26-5.62-3.22-5.33,.09-10.67,.04-16,.05-1.5,0-3,.11-4.41,.7-1.73,.73-2.72,2.23-2.55,3.73,.19,1.65,1.46,3.01,3.27,3.37,4.11,.81,8.28,1.31,12.28,2.59,9.12,2.92,12.15,13.43,5.71,20.13-3.24,3.38-7.5,4.85-12.09,5.26-8.07,.71-16.17,.19-24.26,.32-3.1,.05-6.2,0-9.53,0,1.08-3.29,2.1-6.38,3.32-10.1,.96,3.48,3.31,3.36,5.72,3.29,5.93-.18,11.86,.26,17.78-.28,1.26-.11,2.48-.39,3.59-1.02,1.45-.82,2.39-2.03,2.4-3.74,.01-1.7-1.12-2.72-2.48-3.46-1.99-1.09-4.25-1.15-6.43-1.53-3.25-.56-6.46-1.27-9.43-2.78-4.27-2.17-7.46-5.24-7.14-10.41,.33-5.22,3.36-8.66,8.12-10.63,3.37-1.4,6.94-1.92,10.53-1.97,9.77-.13,19.54-.07,29.3-.13,1.08,0,1.34,.21,.94,1.27-1.03,2.73-1.97,5.49-3.05,8.54Z"/><path class="f" d="M293.16,79.83h-13.52c3.92-2.16,4.19-6.3,5.34-9.89,2.88-8.98,5.59-18.01,8.41-27,.63-2,1.23-3.92-1.11-5.79,5.31,0,10.08,.02,14.85-.01,.86,0,1.27,.59,1.77,1.07,6.48,6.13,12.95,12.27,19.43,18.4,.34,.32,.7,.61,1.21,1.05,1.74-5.6,3.47-11.03,5.11-16.49,.43-1.43-.18-2.68-1.46-3.88h13.94c-4.54,1.98-4.8,6.1-5.93,9.7-3.43,10.87-6.79,21.76-10.28,32.96-10.5-9.89-20.89-19.67-31.47-29.63-.5,1.51-.95,2.84-1.37,4.17-2.07,6.67-4.11,13.34-6.2,20-.59,1.89-.77,3.64,1.29,5.34Z"/><path class="f" d="M259.82,35.43c1.74,5.38,3.43,10.53,5.09,15.69,2.32,7.22,4.6,14.44,6.93,21.65,.45,1.41,.87,2.84,1.83,4.05,.89,1.13,2.22,1.76,3.24,2.98h-22.06c1.81-2.07,1.08-4.16,.46-6.31-1.67-5.83-3.25-11.68-4.96-17.84-3.66,3.94-7.1,7.65-10.86,11.69,2.01,0,3.64,.07,5.27-.02,1.07-.06,1.57,.27,1.86,1.35,.98,3.69,1.02,3.68-2.74,3.68-2.34,0-4.68,.08-7.01-.03-1.48-.07-2.67,.23-3.63,1.43-1.4,1.75-3.81,2.89-3.31,5.76,.09,.49-.52,.35-.83,.35-3.99,.01-7.99,0-11.7,0,11.1-9.31,20.02-20.91,30.17-31.31,4.13-4.23,8.08-8.64,12.26-13.13Z"/><path class="f" d="M35.9,37.22h21.06c.02,.11,.08,.28,.04,.31-3,1.97-4.22,4.95-5.23,8.26-2.96,9.7-5.56,19.54-9.24,29-4.82,12.4-14.96,18.81-28.3,18.48-4.95-.12-9.71-.98-14.23-3.28,2.03,0,4.07,.07,6.1-.01,10.42-.45,18.44-6.28,21.7-16.16,3.39-10.26,6.47-20.62,9.69-30.93,.64-2.06,.24-3.88-1.59-5.66Z"/><path class="f" d="M126.2,66.64c7.31-5.03,14.14-10.67,20.71-16.63-2.21,7.24-4.42,14.48-6.63,21.73-.14,.46-.27,.92-.44,1.36-.89,2.33-1.45,4.61,1.23,6.68h-21.58c.26-.66,.89-.81,1.34-1.14,1.23-.91,2.28-1.95,2.75-3.44,.9-2.84,1.75-5.7,2.63-8.55Z"/><path class="e" d="M181.19,.1c-.31,2.99-.6,5.99-.93,8.98-.27,2.49-.54,4.99-.91,7.47-.17,1.12,.27,1.44,1.28,1.62,4.94,.92,9.86,1.91,14.79,2.88,.28,.06,.55,.15,.85,.54-2.93,.53-5.85,1.06-8.78,1.58-2.95,.52-5.89,1.05-8.85,1.51-1.11,.17-1.75,.7-2.24,1.73-2.62,5.55-5.33,11.05-8.35,16.51,.29-2.85,.56-5.71,.87-8.55,.29-2.61,.56-5.23,.95-7.83,.18-1.22-.21-1.68-1.4-1.9-5.17-.95-10.33-1.98-15.51-2.99,0-.56,.44-.5,.73-.55,5.48-.97,10.95-2.01,16.44-2.85,1.52-.23,2.27-.9,2.88-2.21,2.28-4.87,4.66-9.69,7-14.53,.25-.51,.53-1.01,.79-1.51l.34,.1Z"/><path class="f" d="M156.88,37.21c-8.7,6.52-17.47,12.96-26.64,18.81-.19,.12-.44,.16-.67,.24,1.14-3.77,2.22-7.56,3.44-11.3,.39-1.2,.11-1.47-1.06-1.43-1.98,.06-3.96,.04-5.94,.02-3.2-.03-6.2,.59-9.12,3.12,1.03-3.33,1.89-6.18,2.78-9.02,.19-.6,.76-.49,1.22-.49,11.99,.02,23.98,.04,35.98,.06Z"/><path class="f" d="M153.52,43.5c2.08-2.13,4.17-4.26,6.25-6.4,1.97,.01,3.93,.04,5.9,.03,.68,0,.98,.12,.73,.9-.89,2.76-1.72,5.55-2.65,8.55-1.48-2.5-3.72-2.96-6.12-3.03-1.37-.04-2.74-.04-4.11-.05Z"/></g></g></g></svg>