<?xml version="1.0" encoding="UTF-8"?><svg id="uuid-f35f4ec9-f901-4f95-994d-3976234a7a87" xmlns="http://www.w3.org/2000/svg" viewBox="0 0 64 64"><g id="uuid-abe6de0c-f779-4bfd-83f8-dab82f2fa2cc"><g id="uuid-e4ce5971-aad3-46a1-8798-fc85af12bb9c"><g id="uuid-ed0e7a22-1a8d-49c9-aa5a-fc4211b6247c"><g id="uuid-6ae6f587-eb98-401a-a1a7-3fc4320a478d"><path id="uuid-b27e54cf-f437-44d3-a56f-d1241750821c" d="m40.75,29.86l-3.89-14.77c-.87-3.29-3.85-5.59-7.25-5.59h-9.22v24.64" style="fill:none; stroke:#0e185f; stroke-linecap:round; stroke-linejoin:round; stroke-width:2px;"/></g><g id="uuid-919c8cf3-f4f1-4d32-9542-8a5c0ae3af0c"><path id="uuid-9c6b35cb-1f4a-4935-9bb4-787cf05e8deb" d="m25.75,27.71h-5.36v6.43h8.57v-3.21c0-1.78-1.44-3.21-3.21-3.21Z" style="fill:none; stroke:#0e185f; stroke-linecap:round; stroke-linejoin:round; stroke-width:2px;"/></g><g id="uuid-a78d4ca6-b899-430e-a5c3-60aafad59b8f"><path id="uuid-55ae5fe9-1324-4b54-95f7-5fcc12d000a1" d="m11.82,24.5h3.21" style="fill:none; stroke:#0e185f; stroke-linecap:round; stroke-linejoin:round; stroke-width:2px;"/></g><g id="uuid-2116c2b7-2631-4d68-8a44-4557d08fc74f"><path id="uuid-edd18901-d7b6-46f2-acd5-4f1a01b707ec" d="m11.82,30.93h3.21" style="fill:none; stroke:#0e185f; stroke-linecap:round; stroke-linejoin:round; stroke-width:2px;"/></g><g id="uuid-fa1226c9-bb00-4f70-98e9-893db095ab13"><path id="uuid-3fa8095a-52c5-4aaa-a74c-40883cab9106" d="m11.82,37.36h3.21" style="fill:none; stroke:#0e185f; stroke-linecap:round; stroke-linejoin:round; stroke-width:2px;"/></g><path id="uuid-61997d14-2c12-4423-9495-fe6dbce36a07" d="m52.53,38.43h-6.43v6.43h6.43v-6.43Z" style="fill:none; stroke:#0e185f; stroke-linecap:round; stroke-linejoin:round; stroke-width:2px;"/><g id="uuid-623a72a0-8a1d-44ad-9136-7621845263f8"><path id="uuid-a67396a9-370b-414c-9037-918e77624788" d="m60.25,54.5h-7.71v-21.43" style="fill:none; stroke:#0e185f; stroke-linecap:round; stroke-linejoin:round; stroke-width:2px;"/></g><g id="uuid-1bc6233f-00ed-4fec-ba91-b06e07b781d9"><path id="uuid-0c1735ab-1dee-4f7d-ba0e-8b023a184035" d="m19.32,49.14c0,2.96-2.4,5.36-5.36,5.36s-5.36-2.4-5.36-5.36,2.4-5.36,5.36-5.36,5.36,2.4,5.36,5.36Z" style="fill:none; stroke:#0e185f; stroke-linecap:round; stroke-linejoin:round; stroke-width:2px;"/></g><g id="uuid-6e01ec67-1aba-4727-a32b-63d40e421cc9"><path id="uuid-200bf009-90fb-4a7e-a986-1302eb2963f7" d="m40.75,49.14c0,2.96-2.4,5.36-5.36,5.36s-5.36-2.4-5.36-5.36,2.4-5.36,5.36-5.36,5.36,2.4,5.36,5.36Z" style="fill:none; stroke:#0e185f; stroke-linecap:round; stroke-linejoin:round; stroke-width:2px;"/></g><g id="uuid-ab1c86f0-ca97-4a9e-9345-c05be1fc73d4"><path id="uuid-b18687d8-9758-4407-b759-b9cc1c158a14" d="m40.75,49.14h5.36v-13.93c0-2.96-2.4-5.36-5.36-5.36h-5.36v4.29h-15v-17.14h-4.29c-2.37,0-4.29,1.92-4.29,4.29v22.95" style="fill:none; stroke:#0e185f; stroke-linecap:round; stroke-linejoin:round; stroke-width:2px;"/></g><g id="uuid-24bc8e4e-7e36-4e67-a5c8-b787acc5de90"><path id="uuid-7f38a1e7-7fe4-4289-bca1-32327a2ae9f4" d="m19.32,49.14h10.71" style="fill:none; stroke:#0e185f; stroke-linecap:round; stroke-linejoin:round; stroke-width:2px;"/></g><g id="uuid-4afcf064-f211-43ad-85cf-65f42752a5ec"><path id="uuid-30bec21d-15f8-4cde-9c11-964d5ca230fa" d="m42.89,36.29h3.21" style="fill:none; stroke:#0e185f; stroke-linecap:round; stroke-linejoin:round; stroke-width:2px;"/></g></g></g></g></svg>