<?xml version="1.0" encoding="UTF-8"?><svg xmlns="http://www.w3.org/2000/svg" viewBox="0 0 256.06 101.7"><defs><style>.d{fill:#fff;}.e{fill:#afafb1;}.f{fill:#1c160e;}.g{fill:#bfbec0;}.h{fill:#f39600;}</style></defs><g id="a"/><g id="b"><g id="c"><g><g><path class="e" d="M256.06,48.4c0,26.72-21.64,48.35-48.35,48.35s-48.35-21.64-48.35-48.35S180.99,.04,207.71,.04c26.72,0,48.35,21.64,48.35,48.35"/><path class="h" d="M26.84,27.18h4.14v20.74c0,2.22,.38,3.88,1.15,5.04,.98,1.49,2.56,2.22,4.65,2.13h4.22v3.88h-4.78c-2.22,0-4.18-.6-5.85-1.84-2.35-1.66-3.5-4.14-3.5-7.43V27.18h-.04Z"/><path class="h" d="M42.33,47.41c0-2.94,.94-5.51,2.82-7.6,2.05-2.26,4.69-3.41,7.94-3.41,2.94,0,5.42,.85,7.47,2.6,2.39,2.05,3.63,5.04,3.63,8.88,0,2.77-.85,5.25-2.6,7.43-2.01,2.56-4.61,3.8-7.85,3.8-3.84,0-6.74-1.15-8.71-3.41-1.79-2.01-2.69-4.78-2.69-8.28m4.14,0c0,2.18,.47,3.97,1.45,5.38,1.15,1.71,2.9,2.6,5.21,2.6,4.57,0,6.87-2.65,6.87-7.98,0-4.69-2.3-7.04-6.87-7.04-2.13,0-3.84,.73-5.04,2.18-1.07,1.28-1.62,2.9-1.62,4.87"/><path class="h" d="M71.27,64.61c2.35,.68,4.44,1.02,6.32,1.02,2.05,0,3.76-.6,5.16-1.75,1.37-1.15,2.05-2.65,2.05-4.44v-10.46c0-2.05-.51-3.84-1.54-5.46-1.24-1.88-2.94-2.82-5.08-2.82-2.43,0-4.31,.85-5.63,2.6-1.11,1.49-1.66,3.41-1.66,5.68,0,1.92,.68,3.54,2.01,4.87,1.32,1.28,3.12,1.96,5.29,1.96,2.01,0,3.76-.6,5.21-1.79v4.18c-1.32,.94-3.16,1.37-5.51,1.37-3.63,0-6.36-1.11-8.28-3.33-1.66-2.01-2.52-4.65-2.52-7.94,0-3.93,1.32-6.91,3.93-9,2.09-1.66,4.44-2.48,7.13-2.48,3.07,0,5.68,1.02,7.72,3.12,2.05,2.09,3.07,4.48,3.07,7.25v11.78c0,1.11-.21,2.3-.6,3.5-1.58,4.78-5.21,7.17-10.8,7.17-2.73,0-5.16-.47-7.3-1.45l1.02-3.58Z"/><path class="h" d="M93.03,58.94v-13.27c0-2.65,.81-4.82,2.39-6.53,1.71-1.84,4.05-2.73,6.96-2.73,1.88,0,3.63,.55,5.25,1.71,2.22,1.54,3.33,3.76,3.33,6.66v14.13h-4.22v-12.93c0-3.76-1.54-5.63-4.65-5.63s-4.91,1.79-5.29,5.33v13.23h-3.76v.04Z"/><path class="h" d="M119.37,48.95l10.46-6.1c-.85-.94-1.49-1.49-1.88-1.66-.73-.34-1.58-.51-2.6-.51-2.26,0-4.05,.85-5.33,2.56-1.15,1.49-1.71,3.29-1.71,5.38,0,1.96,.6,3.58,1.84,4.95,1.32,1.45,3.07,2.18,5.21,2.18s3.8-.6,4.78-1.79c.73-.9,1.45-2.56,2.09-5.04l3.8,.38v.94c0,2.18-.9,4.14-2.65,6.02-2.09,2.18-4.78,3.29-8.07,3.29s-6.06-1.11-8.15-3.29c-1.92-2.05-2.9-4.61-2.9-7.64,0-3.8,1.24-6.83,3.67-9,2.09-1.88,4.52-2.82,7.38-2.82,4.31,0,7.81,2.39,10.41,7.13l-14.68,8.28-1.66-3.24Z"/><path class="h" d="M140.7,51.72V31.75h4.1v5.38h8.07v3.93h-8.07v11.1c0,.98,.13,1.62,.34,2.01,.38,.6,1.19,.9,2.39,.9h4.91v3.88h-5.89c-2.01,0-3.54-.81-4.57-2.43-.85-1.28-1.28-2.9-1.28-4.78"/><path class="h" d="M0,44.68s27.65,66.49,180.52,55.86c0,0-15.83-3.67-23.13-18.69,0,0-105.88,19.93-157.39-37.17"/></g><g><path class="g" d="M182.65,7.55c-1.07,0-1.96,.9-1.96,1.96s.85,1.96,1.96,1.96,1.96-.9,1.96-1.96-.9-1.96-1.96-1.96m4.99,0c-1.07,0-1.96,.9-1.96,1.96s.85,1.96,1.96,1.96,1.96-.9,1.96-1.96c-.04-1.11-.9-1.96-1.96-1.96m9.94,0c-1.07,0-1.96,.9-1.96,1.96s.85,1.96,1.96,1.96,1.96-.9,1.96-1.96c-.04-1.11-.9-1.96-1.96-1.96m4.95,0c-1.07,0-1.96,.9-1.96,1.96s.85,1.96,1.96,1.96,1.96-.9,1.96-1.96-.85-1.96-1.96-1.96m19.93,0c-1.07,0-1.96,.9-1.96,1.96s.9,1.96,1.96,1.96,1.96-.9,1.96-1.96c-.04-1.11-.9-1.96-1.96-1.96m4.95,0c-1.07,0-1.96,.9-1.96,1.96s.85,1.96,1.96,1.96,1.96-.9,1.96-1.96c0-1.11-.9-1.96-1.96-1.96m4.99,0c-1.07,0-1.96,.9-1.96,1.96s.9,1.96,1.96,1.96,1.96-.9,1.96-1.96-.9-1.96-1.96-1.96m-6.66-4.01c-.17,.3-.3,.64-.3,1.02,0,1.07,.85,1.96,1.96,1.96,.9,0,1.62-.6,1.84-1.41-1.11-.55-2.3-1.11-3.5-1.58m-23.22-.94c-1.07,0-1.96,.85-1.96,1.96s.85,1.96,1.96,1.96,1.96-.85,1.96-1.96-.85-1.96-1.96-1.96m4.99,0c-1.07,0-1.96,.85-1.96,1.96s.85,1.96,1.96,1.96,1.96-.85,1.96-1.96c0-1.07-.9-1.96-1.96-1.96m9.94,0c-1.07,0-1.92,.85-1.92,1.96s.85,1.96,1.92,1.96,1.96-.85,1.96-1.96-.9-1.96-1.96-1.96m4.99,0c-1.07,0-1.96,.85-1.96,1.96s.9,1.96,1.96,1.96,1.96-.85,1.96-1.96c-.04-1.07-.9-1.96-1.96-1.96m-23.34-1.79c-.85,.13-1.71,.34-2.52,.51,.3,.17,.6,.26,.98,.26,.64,0,1.19-.3,1.54-.77M207.71,.04h-.47c-.55,0-1.07,.04-1.62,.04,.21,.85,.98,1.49,1.88,1.49s1.71-.64,1.88-1.54c-.47,0-.94-.04-1.45-.04-.04,.04-.13,.04-.21,.04"/><path class="f" d="M237.96,10.67c.17,.13,.34,.3,.51,.43h0c-.17-.13-.34-.3-.51-.43"/><path class="g" d="M212.53,96.15c-.47,0-.9,.17-1.24,.47,.73-.04,1.49-.13,2.22-.21-.34-.17-.64-.26-.98-.26m-19.93-4.91c-1.07,0-1.96,.9-1.96,1.96l.09,.51c1.02,.38,2.01,.73,3.07,1.02,.47-.34,.77-.9,.77-1.54,0-1.11-.9-1.96-1.96-1.96m4.99,0c-1.07,0-1.96,.9-1.96,1.96s.85,1.96,1.96,1.96,1.96-.85,1.96-1.96c-.04-1.11-.9-1.96-1.96-1.96m-9.94-4.95c-1.07,0-1.96,.85-1.96,1.96s.85,1.96,1.96,1.96,1.96-.85,1.96-1.96c-.04-1.07-.9-1.96-1.96-1.96m9.94,0c-1.07,0-1.96,.85-1.96,1.96s.85,1.96,1.96,1.96,1.96-.85,1.96-1.96c-.04-1.07-.9-1.96-1.96-1.96m9.94,0c-1.07,0-1.96,.85-1.96,1.96s.85,1.96,1.96,1.96,1.96-.85,1.96-1.96c0-1.07-.9-1.96-1.96-1.96m-24.88-4.91c-1.07,0-1.96,.9-1.96,1.96s.85,1.96,1.96,1.96,1.96-.85,1.96-1.96-.9-1.96-1.96-1.96m4.99,0c-1.07,0-1.96,.9-1.96,1.96s.85,1.96,1.96,1.96,1.96-.85,1.96-1.96c-.04-1.11-.9-1.96-1.96-1.96m14.89,0c-1.07,0-1.96,.9-1.96,1.96s.85,1.96,1.96,1.96,1.96-.85,1.96-1.96-.85-1.96-1.96-1.96m-24.84-4.91c-1.07,0-1.96,.85-1.96,1.96s.9,1.96,1.96,1.96,1.96-.85,1.96-1.96c-.04-1.11-.9-1.96-1.96-1.96m4.95,0c-1.07,0-1.96,.85-1.96,1.96s.85,1.96,1.96,1.96,1.96-.85,1.96-1.96-.9-1.96-1.96-1.96m4.99,0c-1.07,0-1.96,.85-1.96,1.96s.85,1.96,1.96,1.96,1.96-.85,1.96-1.96c-.04-1.11-.9-1.96-1.96-1.96m4.95,0c-1.07,0-1.96,.85-1.96,1.96s.85,1.96,1.96,1.96,1.96-.85,1.96-1.96c0-1.11-.9-1.96-1.96-1.96m4.99,0c-1.07,0-1.96,.85-1.96,1.96s.85,1.96,1.96,1.96,1.96-.85,1.96-1.96c-.04-1.11-.9-1.96-1.96-1.96m4.95,0c-1.07,0-1.96,.85-1.96,1.96s.85,1.96,1.96,1.96,1.96-.85,1.96-1.96-.85-1.96-1.96-1.96m-29.83-4.95c-1.07,0-1.96,.85-1.96,1.96s.85,1.96,1.96,1.96,1.96-.9,1.96-1.96-.9-1.96-1.96-1.96m4.99,0c-1.07,0-1.96,.85-1.96,1.96s.9,1.96,1.96,1.96,1.96-.9,1.96-1.96c-.04-1.07-.9-1.96-1.96-1.96m4.95,0c-1.07,0-1.96,.85-1.96,1.96s.85,1.96,1.96,1.96,1.96-.9,1.96-1.96-.9-1.96-1.96-1.96m4.99,0c-1.07,0-1.96,.85-1.96,1.96s.85,1.96,1.96,1.96,1.96-.9,1.96-1.96c-.04-1.07-.9-1.96-1.96-1.96m4.95,0c-1.07,0-1.96,.85-1.96,1.96s.85,1.96,1.96,1.96,1.96-.9,1.96-1.96c0-1.07-.9-1.96-1.96-1.96m4.99,0c-1.07,0-1.96,.85-1.96,1.96s.85,1.96,1.96,1.96,1.96-.9,1.96-1.96c-.04-1.07-.9-1.96-1.96-1.96m4.95,0c-1.07,0-1.96,.85-1.96,1.96s.85,1.96,1.96,1.96,1.96-.9,1.96-1.96-.85-1.96-1.96-1.96m4.99,0c-1.07,0-1.96,.85-1.96,1.96s.85,1.96,1.96,1.96,1.96-.9,1.96-1.96c0-1.07-.9-1.96-1.96-1.96m-34.82-4.91c-1.07,0-1.96,.85-1.96,1.96s.85,1.96,1.96,1.96,1.96-.9,1.96-1.96-.9-1.96-1.96-1.96m4.99,0c-1.07,0-1.96,.85-1.96,1.96s.9,1.96,1.96,1.96,1.96-.9,1.96-1.96c-.04-1.11-.9-1.96-1.96-1.96m4.95,0c-1.07,0-1.96,.85-1.96,1.96s.85,1.96,1.96,1.96,1.96-.9,1.96-1.96-.9-1.96-1.96-1.96m4.99,0c-1.07,0-1.96,.85-1.96,1.96s.85,1.96,1.96,1.96,1.96-.9,1.96-1.96c-.04-1.11-.9-1.96-1.96-1.96m4.95,0c-1.07,0-1.96,.85-1.96,1.96s.85,1.96,1.96,1.96,1.96-.9,1.96-1.96c0-1.11-.9-1.96-1.96-1.96m4.99,0c-1.07,0-1.96,.85-1.96,1.96s.85,1.96,1.96,1.96,1.96-.9,1.96-1.96c-.04-1.11-.9-1.96-1.96-1.96m4.95,0c-1.07,0-1.96,.85-1.96,1.96s.85,1.96,1.96,1.96,1.96-.9,1.96-1.96-.85-1.96-1.96-1.96m4.99,0c-1.07,0-1.96,.85-1.96,1.96s.85,1.96,1.96,1.96,1.96-.9,1.96-1.96c0-1.11-.9-1.96-1.96-1.96m4.99,0c-1.07,0-1.96,.85-1.96,1.96s.85,1.96,1.96,1.96,1.96-.9,1.96-1.96c-.04-1.11-.9-1.96-1.96-1.96m-39.82-4.95c-1.07,0-1.96,.9-1.96,1.96s.85,1.96,1.96,1.96,1.96-.85,1.96-1.96-.9-1.96-1.96-1.96m4.99,0c-1.07,0-1.96,.9-1.96,1.96s.9,1.96,1.96,1.96,1.96-.85,1.96-1.96c-.04-1.07-.9-1.96-1.96-1.96m4.95,0c-1.07,0-1.96,.9-1.96,1.96s.85,1.96,1.96,1.96,1.96-.85,1.96-1.96-.9-1.96-1.96-1.96m4.99,0c-1.07,0-1.96,.9-1.96,1.96s.85,1.96,1.96,1.96,1.96-.85,1.96-1.96c-.04-1.07-.9-1.96-1.96-1.96m4.95,0c-1.07,0-1.96,.9-1.96,1.96s.85,1.96,1.96,1.96,1.96-.85,1.96-1.96c0-1.07-.9-1.96-1.96-1.96m4.99,0c-1.07,0-1.96,.9-1.96,1.96s.85,1.96,1.96,1.96,1.96-.85,1.96-1.96c-.04-1.07-.9-1.96-1.96-1.96m4.95,0c-1.07,0-1.96,.9-1.96,1.96s.85,1.96,1.96,1.96,1.96-.85,1.96-1.96-.85-1.96-1.96-1.96m4.99,0c-1.07,0-1.96,.9-1.96,1.96s.85,1.96,1.96,1.96,1.96-.85,1.96-1.96c0-1.07-.9-1.96-1.96-1.96m4.99,0c-1.07,0-1.96,.9-1.96,1.96s.85,1.96,1.96,1.96,1.96-.85,1.96-1.96c-.04-1.07-.9-1.96-1.96-1.96m4.95,0c-1.07,0-1.92,.9-1.92,1.96s.85,1.96,1.92,1.96,1.96-.85,1.96-1.96-.9-1.96-1.96-1.96m4.99,0c-1.07,0-1.96,.9-1.96,1.96s.9,1.96,1.96,1.96,1.96-.85,1.96-1.96c-.04-1.07-.9-1.96-1.96-1.96m-49.76-4.91c-1.07,0-1.96,.85-1.96,1.96s.85,1.96,1.96,1.96,1.96-.9,1.96-1.96-.9-1.96-1.96-1.96m4.99,0c-1.07,0-1.96,.85-1.96,1.96s.9,1.96,1.96,1.96,1.96-.9,1.96-1.96c-.04-1.07-.9-1.96-1.96-1.96m4.95,0c-1.07,0-1.96,.85-1.96,1.96s.85,1.96,1.96,1.96,1.96-.9,1.96-1.96-.9-1.96-1.96-1.96m4.99,0c-1.07,0-1.96,.85-1.96,1.96s.85,1.96,1.96,1.96,1.96-.9,1.96-1.96c-.04-1.07-.9-1.96-1.96-1.96m4.95,0c-1.07,0-1.96,.85-1.96,1.96s.85,1.96,1.96,1.96,1.96-.9,1.96-1.96c0-1.07-.9-1.96-1.96-1.96m4.99,0c-1.07,0-1.96,.85-1.96,1.96s.85,1.96,1.96,1.96,1.96-.9,1.96-1.96c-.04-1.07-.9-1.96-1.96-1.96m4.95,0c-1.07,0-1.96,.85-1.96,1.96s.85,1.96,1.96,1.96,1.96-.9,1.96-1.96-.85-1.96-1.96-1.96m4.99,0c-1.07,0-1.96,.85-1.96,1.96s.85,1.96,1.96,1.96,1.96-.9,1.96-1.96c0-1.07-.9-1.96-1.96-1.96m4.99,0c-1.07,0-1.96,.85-1.96,1.96s.85,1.96,1.96,1.96,1.96-.9,1.96-1.96c-.04-1.07-.9-1.96-1.96-1.96m4.95,0c-1.07,0-1.92,.85-1.92,1.96s.85,1.96,1.92,1.96,1.96-.9,1.96-1.96-.9-1.96-1.96-1.96m4.99,0c-1.07,0-1.96,.85-1.96,1.96s.9,1.96,1.96,1.96,1.96-.9,1.96-1.96c-.04-1.07-.9-1.96-1.96-1.96m4.95,0c-1.07,0-1.96,.85-1.96,1.96s.85,1.96,1.96,1.96,1.96-.9,1.96-1.96c0-1.07-.85-1.96-1.96-1.96m-59.7-4.91c-1.07,0-1.96,.85-1.96,1.96s.85,1.96,1.96,1.96,1.96-.9,1.96-1.96-.85-1.96-1.96-1.96m4.99,0c-1.07,0-1.96,.85-1.96,1.96s.85,1.96,1.96,1.96,1.96-.9,1.96-1.96-.9-1.96-1.96-1.96m4.99,0c-1.07,0-1.96,.85-1.96,1.96s.9,1.96,1.96,1.96,1.96-.9,1.96-1.96c-.04-1.11-.9-1.96-1.96-1.96m4.95,0c-1.07,0-1.96,.85-1.96,1.96s.85,1.96,1.96,1.96,1.96-.9,1.96-1.96-.9-1.96-1.96-1.96m4.99,0c-1.07,0-1.96,.85-1.96,1.96s.85,1.96,1.96,1.96,1.96-.9,1.96-1.96c-.04-1.11-.9-1.96-1.96-1.96m4.95,0c-1.07,0-1.96,.85-1.96,1.96s.85,1.96,1.96,1.96,1.96-.9,1.96-1.96c0-1.11-.9-1.96-1.96-1.96m4.99,0c-1.07,0-1.96,.85-1.96,1.96s.85,1.96,1.96,1.96,1.96-.9,1.96-1.96c-.04-1.11-.9-1.96-1.96-1.96m4.95,0c-1.07,0-1.96,.85-1.96,1.96s.85,1.96,1.96,1.96,1.96-.9,1.96-1.96-.85-1.96-1.96-1.96m9.99,0c-1.07,0-1.96,.85-1.96,1.96s.85,1.96,1.96,1.96,1.96-.9,1.96-1.96c-.04-1.11-.9-1.96-1.96-1.96m4.95,0c-1.07,0-1.92,.85-1.92,1.96s.85,1.96,1.92,1.96,1.96-.9,1.96-1.96-.9-1.96-1.96-1.96m4.99,0c-1.07,0-1.96,.85-1.96,1.96s.9,1.96,1.96,1.96,1.96-.9,1.96-1.96c-.04-1.11-.9-1.96-1.96-1.96m-59.7-4.95c-1.07,0-1.96,.85-1.96,1.96s.9,1.96,1.96,1.96,1.96-.9,1.96-1.96c-.04-1.07-.9-1.96-1.96-1.96m4.95,0c-1.07,0-1.96,.85-1.96,1.96s.85,1.96,1.96,1.96,1.96-.9,1.96-1.96-.85-1.96-1.96-1.96m4.99,0c-1.07,0-1.96,.85-1.96,1.96s.85,1.96,1.96,1.96,1.96-.9,1.96-1.96-.9-1.96-1.96-1.96m4.99,0c-1.07,0-1.96,.85-1.96,1.96s.9,1.96,1.96,1.96,1.96-.9,1.96-1.96c-.04-1.07-.9-1.96-1.96-1.96m4.95,0c-1.07,0-1.96,.85-1.96,1.96s.85,1.96,1.96,1.96,1.96-.9,1.96-1.96-.9-1.96-1.96-1.96m4.99,0c-1.07,0-1.96,.85-1.96,1.96s.85,1.96,1.96,1.96,1.96-.9,1.96-1.96c-.04-1.07-.9-1.96-1.96-1.96m4.95,0c-1.07,0-1.96,.85-1.96,1.96s.85,1.96,1.96,1.96,1.96-.9,1.96-1.96c0-1.07-.9-1.96-1.96-1.96m14.94,0c-1.07,0-1.96,.85-1.96,1.96s.85,1.96,1.96,1.96,1.96-.9,1.96-1.96c0-1.07-.9-1.96-1.96-1.96m4.99,0c-1.07,0-1.96,.85-1.96,1.96s.85,1.96,1.96,1.96,1.96-.9,1.96-1.96c-.04-1.07-.9-1.96-1.96-1.96m4.95,0c-1.07,0-1.92,.85-1.92,1.96s.85,1.96,1.92,1.96,1.96-.9,1.96-1.96-.9-1.96-1.96-1.96m-57.87-3.63c-.04,.55-.09,1.07-.13,1.62,.17-.3,.26-.6,.26-.94,0-.26-.04-.47-.13-.68m3.16-1.28c-1.07,0-1.96,.9-1.96,1.96s.9,1.96,1.96,1.96,1.96-.85,1.96-1.96c-.04-1.07-.9-1.96-1.96-1.96m4.95,0c-1.07,0-1.96,.9-1.96,1.96s.85,1.96,1.96,1.96,1.96-.85,1.96-1.96-.85-1.96-1.96-1.96m4.99,0c-1.07,0-1.96,.9-1.96,1.96s.85,1.96,1.96,1.96,1.96-.85,1.96-1.96-.9-1.96-1.96-1.96m4.99,0c-1.07,0-1.96,.9-1.96,1.96s.9,1.96,1.96,1.96,1.96-.85,1.96-1.96c-.04-1.07-.9-1.96-1.96-1.96m4.95,0c-1.07,0-1.96,.9-1.96,1.96s.85,1.96,1.96,1.96,1.96-.85,1.96-1.96-.9-1.96-1.96-1.96m4.99,0c-1.07,0-1.96,.9-1.96,1.96s.85,1.96,1.96,1.96,1.96-.85,1.96-1.96c-.04-1.07-.9-1.96-1.96-1.96m4.95,0c-1.07,0-1.96,.9-1.96,1.96s.85,1.96,1.96,1.96,1.96-.85,1.96-1.96c0-1.07-.9-1.96-1.96-1.96m24.88,0c-1.07,0-1.92,.9-1.92,1.96s.85,1.96,1.92,1.96,1.96-.85,1.96-1.96-.9-1.96-1.96-1.96m14.94,0c-1.07,0-1.96,.9-1.96,1.96s.9,1.96,1.96,1.96,1.96-.85,1.96-1.96-.9-1.96-1.96-1.96m-69.65-4.91c-1.07,0-1.96,.85-1.96,1.96s.9,1.96,1.96,1.96,1.96-.9,1.96-1.96c-.04-1.11-.9-1.96-1.96-1.96m4.95,0c-1.07,0-1.96,.85-1.96,1.96s.85,1.96,1.96,1.96,1.96-.9,1.96-1.96-.85-1.96-1.96-1.96m4.99,0c-1.07,0-1.96,.85-1.96,1.96s.85,1.96,1.96,1.96,1.96-.9,1.96-1.96-.9-1.96-1.96-1.96m4.99,0c-1.07,0-1.96,.85-1.96,1.96s.9,1.96,1.96,1.96,1.96-.9,1.96-1.96c-.04-1.11-.9-1.96-1.96-1.96m4.95,0c-1.07,0-1.96,.85-1.96,1.96s.85,1.96,1.96,1.96,1.96-.9,1.96-1.96-.9-1.96-1.96-1.96m4.99,0c-1.07,0-1.96,.85-1.96,1.96s.85,1.96,1.96,1.96,1.96-.9,1.96-1.96c-.04-1.11-.9-1.96-1.96-1.96m4.95,0c-1.07,0-1.96,.85-1.96,1.96s.85,1.96,1.96,1.96,1.96-.9,1.96-1.96c0-1.11-.9-1.96-1.96-1.96m4.99,0c-1.07,0-1.96,.85-1.96,1.96s.85,1.96,1.96,1.96,1.96-.9,1.96-1.96c-.04-1.11-.9-1.96-1.96-1.96m4.95,0c-1.07,0-1.96,.85-1.96,1.96s.85,1.96,1.96,1.96,1.96-.9,1.96-1.96-.85-1.96-1.96-1.96m9.99,0c-1.07,0-1.96,.85-1.96,1.96s.85,1.96,1.96,1.96,1.96-.9,1.96-1.96c-.04-1.11-.9-1.96-1.96-1.96m4.95,0c-1.07,0-1.92,.85-1.92,1.96s.85,1.96,1.92,1.96,1.96-.9,1.96-1.96-.9-1.96-1.96-1.96m14.94,0c-1.07,0-1.96,.85-1.96,1.96s.9,1.96,1.96,1.96,1.96-.9,1.96-1.96-.9-1.96-1.96-1.96m4.95,0c-1.07,0-1.96,.85-1.96,1.96s.85,1.96,1.96,1.96,1.96-.9,1.96-1.96c0-1.11-.85-1.96-1.96-1.96m14.94,0c-1.07,0-1.96,.85-1.96,1.96s.85,1.96,1.96,1.96,1.92-.85,1.96-1.92v-.09c-.04-1.07-.9-1.92-1.96-1.92m-89.54-4.95c-.26,0-.47,.04-.64,.13-.34,.98-.64,1.96-.94,2.94,.34,.51,.94,.81,1.58,.81,1.07,0,1.96-.85,1.96-1.96-.04-1.02-.9-1.92-1.96-1.92m4.95,0c-1.07,0-1.96,.9-1.96,1.96s.85,1.96,1.96,1.96,1.96-.85,1.96-1.96-.85-1.96-1.96-1.96m4.99,0c-1.07,0-1.96,.9-1.96,1.96s.85,1.96,1.96,1.96,1.96-.85,1.96-1.96-.9-1.96-1.96-1.96m4.99,0c-1.07,0-1.96,.9-1.96,1.96s.9,1.96,1.96,1.96,1.96-.85,1.96-1.96c-.04-1.07-.9-1.96-1.96-1.96m4.95,0c-1.07,0-1.96,.9-1.96,1.96s.85,1.96,1.96,1.96,1.96-.85,1.96-1.96-.9-1.96-1.96-1.96m4.99,0c-1.07,0-1.96,.9-1.96,1.96s.85,1.96,1.96,1.96,1.96-.85,1.96-1.96c-.04-1.07-.9-1.96-1.96-1.96m4.95,0c-1.07,0-1.96,.9-1.96,1.96s.85,1.96,1.96,1.96,1.96-.85,1.96-1.96c0-1.07-.9-1.96-1.96-1.96m4.99,0c-1.07,0-1.96,.9-1.96,1.96s.85,1.96,1.96,1.96,1.96-.85,1.96-1.96c-.04-1.07-.9-1.96-1.96-1.96m9.94,0c-1.07,0-1.96,.9-1.96,1.96s.85,1.96,1.96,1.96,1.96-.85,1.96-1.96c0-1.07-.9-1.96-1.96-1.96m4.99,0c-1.07,0-1.96,.9-1.96,1.96s.85,1.96,1.96,1.96,1.96-.85,1.96-1.96c-.04-1.07-.9-1.96-1.96-1.96m4.95,0c-1.07,0-1.92,.9-1.92,1.96s.85,1.96,1.92,1.96,1.96-.85,1.96-1.96-.9-1.96-1.96-1.96m14.94,0c-1.07,0-1.96,.9-1.96,1.96s.9,1.96,1.96,1.96,1.96-.85,1.96-1.96-.9-1.96-1.96-1.96m4.95,0c-1.07,0-1.96,.9-1.96,1.96s.85,1.96,1.96,1.96,1.96-.85,1.96-1.96c0-1.07-.85-1.96-1.96-1.96m4.99,0c-1.07,0-1.96,.9-1.96,1.96s.85,1.96,1.96,1.96,1.96-.85,1.96-1.96c0-1.07-.9-1.96-1.96-1.96m-78.35-4.44c-.51,1.11-1.02,2.26-1.45,3.41l.21,.04c1.07,0,1.96-.9,1.96-1.96-.04-.6-.3-1.15-.73-1.49m3.71-.47c-1.07,0-1.96,.85-1.96,1.96s.85,1.96,1.96,1.96,1.96-.9,1.96-1.96-.85-1.96-1.96-1.96m4.99,0c-1.07,0-1.96,.85-1.96,1.96s.85,1.96,1.96,1.96,1.96-.9,1.96-1.96-.9-1.96-1.96-1.96m4.99,0c-1.07,0-1.96,.85-1.96,1.96s.9,1.96,1.96,1.96,1.96-.9,1.96-1.96c-.04-1.11-.9-1.96-1.96-1.96m9.94,0c-1.07,0-1.96,.85-1.96,1.96s.85,1.96,1.96,1.96,1.96-.9,1.96-1.96c-.04-1.11-.9-1.96-1.96-1.96m4.95,0c-1.07,0-1.96,.85-1.96,1.96s.85,1.96,1.96,1.96,1.96-.9,1.96-1.96c0-1.11-.9-1.96-1.96-1.96m4.99,0c-1.07,0-1.96,.85-1.96,1.96s.85,1.96,1.96,1.96,1.96-.9,1.96-1.96c-.04-1.11-.9-1.96-1.96-1.96m9.94,0c-1.07,0-1.96,.85-1.96,1.96s.85,1.96,1.96,1.96,1.96-.9,1.96-1.96c0-1.11-.9-1.96-1.96-1.96m4.99,0c-1.07,0-1.96,.85-1.96,1.96s.85,1.96,1.96,1.96,1.96-.9,1.96-1.96c-.04-1.11-.9-1.96-1.96-1.96m4.95,0c-1.07,0-1.92,.85-1.92,1.96s.85,1.96,1.92,1.96,1.96-.9,1.96-1.96-.9-1.96-1.96-1.96m14.94,0c-1.07,0-1.96,.85-1.96,1.96s.9,1.96,1.96,1.96,1.96-.9,1.96-1.96-.9-1.96-1.96-1.96m4.95,0c-1.07,0-1.96,.85-1.96,1.96s.85,1.96,1.96,1.96,1.96-.9,1.96-1.96c0-1.11-.85-1.96-1.96-1.96m4.99,0c-1.07,0-1.96,.85-1.96,1.96s.85,1.96,1.96,1.96,1.96-.9,1.96-1.96c0-1.11-.9-1.96-1.96-1.96m-64.65-4.91c-1.07,0-1.96,.85-1.96,1.96s.9,1.96,1.96,1.96,1.96-.85,1.96-1.96c-.04-1.11-.9-1.96-1.96-1.96m4.95,0c-1.07,0-1.96,.85-1.96,1.96s.85,1.96,1.96,1.96,1.96-.85,1.96-1.96-.9-1.96-1.96-1.96m4.99,0c-1.07,0-1.96,.85-1.96,1.96s.85,1.96,1.96,1.96,1.96-.85,1.96-1.96c-.04-1.11-.9-1.96-1.96-1.96m14.89,0c-1.07,0-1.96,.85-1.96,1.96s.85,1.96,1.96,1.96,1.96-.85,1.96-1.96-.85-1.96-1.96-1.96m4.99,0c-1.07,0-1.96,.85-1.96,1.96s.85,1.96,1.96,1.96,1.96-.85,1.96-1.96c0-1.11-.9-1.96-1.96-1.96m4.99,0c-1.07,0-1.96,.85-1.96,1.96s.85,1.96,1.96,1.96,1.96-.85,1.96-1.96c-.04-1.11-.9-1.96-1.96-1.96m19.89,0c-1.07,0-1.96,.85-1.96,1.96s.9,1.96,1.96,1.96,1.96-.85,1.96-1.96-.9-1.96-1.96-1.96m4.95,0c-1.07,0-1.96,.85-1.96,1.96s.85,1.96,1.96,1.96,1.96-.85,1.96-1.96c0-1.11-.85-1.96-1.96-1.96m4.99,0c-1.07,0-1.96,.85-1.96,1.96s.85,1.96,1.96,1.96,1.96-.85,1.96-1.96c0-1.11-.9-1.96-1.96-1.96m3.29-3.93c-.13,.26-.26,.6-.26,.94,0,1.07,.85,1.96,1.96,1.96l.38-.04c-.68-.98-1.37-1.92-2.09-2.86m-72.93-1.02c-1.07,0-1.96,.9-1.96,1.96s.85,1.96,1.96,1.96,1.96-.9,1.96-1.96-.9-1.96-1.96-1.96m4.99,0c-1.07,0-1.96,.9-1.96,1.96s.9,1.96,1.96,1.96,1.96-.9,1.96-1.96c-.04-1.07-.9-1.96-1.96-1.96m19.89,0c-1.07,0-1.96,.9-1.96,1.96s.85,1.96,1.96,1.96,1.96-.9,1.96-1.96c-.04-1.07-.9-1.96-1.96-1.96m4.95,0c-1.07,0-1.96,.9-1.96,1.96s.85,1.96,1.96,1.96,1.96-.9,1.96-1.96-.85-1.96-1.96-1.96m24.88,0c-1.07,0-1.96,.9-1.96,1.96s.85,1.96,1.96,1.96,1.96-.9,1.96-1.96c0-1.07-.85-1.96-1.96-1.96m4.99,0c-1.07,0-1.96,.9-1.96,1.96s.9,1.96,1.96,1.96,1.96-.9,1.96-1.96-.9-1.96-1.96-1.96m4.95,0c-1.07,0-1.96,.9-1.96,1.96s.85,1.96,1.96,1.96,1.96-.9,1.96-1.96c0-1.07-.85-1.96-1.96-1.96m4.99,0c-1.07,0-1.96,.9-1.96,1.96s.85,1.96,1.96,1.96,1.96-.9,1.96-1.96c0-1.07-.9-1.96-1.96-1.96m-1.49-4.18c-.26,.34-.43,.77-.43,1.19,0,1.07,.85,1.96,1.96,1.96,.47,0,.85-.17,1.19-.43-.9-.94-1.79-1.84-2.73-2.73m-58.21-.73c-1.07,0-1.96,.85-1.96,1.96s.85,1.96,1.96,1.96,1.96-.85,1.96-1.96-.9-1.96-1.96-1.96m4.99,0c-1.07,0-1.96,.85-1.96,1.96s.85,1.96,1.96,1.96,1.96-.85,1.96-1.96c-.04-1.11-.9-1.96-1.96-1.96m9.94,0c-1.07,0-1.96,.85-1.96,1.96s.85,1.96,1.96,1.96,1.96-.85,1.96-1.96c-.04-1.11-.9-1.96-1.96-1.96m24.88,0c-1.07,0-1.96,.85-1.96,1.96s.9,1.96,1.96,1.96,1.96-.85,1.96-1.96c-.04-1.11-.9-1.96-1.96-1.96m4.95,0c-1.07,0-1.96,.85-1.96,1.96s.85,1.96,1.96,1.96,1.96-.85,1.96-1.96c0-1.11-.85-1.96-1.96-1.96m4.99,0c-1.07,0-1.96,.85-1.96,1.96s.9,1.96,1.96,1.96,1.96-.85,1.96-1.96-.9-1.96-1.96-1.96m4.95,0c-1.07,0-1.96,.85-1.96,1.96s.85,1.96,1.96,1.96,1.96-.85,1.96-1.96c0-1.11-.85-1.96-1.96-1.96m-57.78-3.41c-.94,.68-1.88,1.41-2.82,2.13,.26,.13,.6,.21,.9,.21,1.07,0,1.96-.9,1.96-1.96l-.04-.38m55.95-.17c-.09,.21-.13,.38-.13,.64,0,1.07,.85,1.96,1.96,1.96,.43,0,.77-.13,1.11-.34-.17-.13-.34-.3-.51-.43-.81-.68-1.58-1.28-2.43-1.84"/><path class="g" d="M202.54,96.15c-.3,0-.6,.09-.9,.21,.68,.09,1.41,.17,2.09,.21-.3-.26-.73-.43-1.19-.43m4.99,0c-.55,0-1.02,.21-1.37,.55,.43,0,.85,.04,1.28,.04h.51c.34,0,.64,0,.98-.04-.38-.34-.85-.55-1.41-.55"/></g><g><path class="d" d="M170.36,61.45c1.62,.47,3.07,.73,4.35,.73,1.41,0,2.6-.38,3.58-1.19,.94-.81,1.45-1.84,1.45-3.07v-7.25c0-1.41-.34-2.69-1.07-3.8-.85-1.32-2.05-1.96-3.54-1.96-1.71,0-2.99,.6-3.88,1.79-.77,1.02-1.15,2.35-1.15,3.93,0,1.32,.47,2.48,1.41,3.37,.94,.9,2.13,1.37,3.67,1.37,1.41,0,2.6-.43,3.63-1.24v2.9c-.9,.64-2.18,.94-3.8,.94-2.52,0-4.44-.77-5.72-2.3-1.15-1.37-1.75-3.2-1.75-5.51,0-2.73,.9-4.78,2.73-6.23,1.45-1.15,3.07-1.71,4.95-1.71,2.13,0,3.93,.73,5.33,2.18s2.13,3.12,2.13,5.04v8.19c0,.77-.13,1.58-.43,2.43-1.11,3.33-3.58,4.95-7.47,4.95-1.88,0-3.58-.34-5.08-1.02l.64-2.52Z"/><rect class="d" x="185.64" y="35.51" width="2.86" height="22.02"/><path class="d" d="M191.57,49.55c0-2.05,.64-3.8,1.96-5.25,1.41-1.58,3.24-2.35,5.51-2.35,2.05,0,3.76,.6,5.16,1.79,1.66,1.45,2.52,3.5,2.52,6.15,0,1.92-.6,3.67-1.79,5.16-1.37,1.75-3.2,2.65-5.42,2.65-2.65,0-4.65-.77-6.02-2.35-1.28-1.45-1.92-3.37-1.92-5.8m2.86,0c0,1.49,.34,2.73,.98,3.71,.81,1.19,2.01,1.79,3.58,1.79,3.16,0,4.78-1.84,4.78-5.51,0-3.29-1.58-4.91-4.78-4.91-1.49,0-2.65,.51-3.5,1.49-.68,.94-1.07,2.05-1.07,3.41"/><path class="d" d="M208.94,35.76h2.86v14.17c0,1.49,.34,2.69,.98,3.67,.81,1.15,2.01,1.75,3.54,1.75,1.45,0,2.65-.55,3.58-1.66,.81-1.02,1.24-2.22,1.24-3.54,0-1.41-.34-2.6-1.07-3.58-.81-1.11-2.01-1.71-3.5-1.71-.73,0-1.45,.17-2.09,.47-.38,.21-.98,.47-1.75,.81v-2.73c1.19-.77,2.56-1.15,4.05-1.15,2.18,0,3.97,.77,5.33,2.26,1.32,1.41,1.96,3.12,1.96,5.08,0,2.26-.64,4.18-1.88,5.76-1.41,1.75-3.37,2.65-5.85,2.65s-4.4-.9-5.72-2.65c-1.11-1.49-1.66-3.41-1.66-5.72v-13.87h-.04Z"/><path class="d" d="M238.18,57.53v-8.71c0-2.65-1.58-3.93-4.74-3.93-1.07,0-2.05,.34-2.99,.98-1.28,.9-1.88,2.26-1.88,4.01,0,1.45,.43,2.69,1.28,3.63,.94,1.02,2.18,1.58,3.8,1.58,1.11,0,2.3-.64,3.63-2.01v3.41c-1.02,.77-2.39,1.15-4.05,1.15h-.47c-2.13,0-3.84-.85-5.08-2.56-1.11-1.49-1.66-3.24-1.66-5.21,0-2.22,.64-4.05,1.88-5.42,1.37-1.54,3.29-2.3,5.76-2.3,2.13,0,3.88,.6,5.33,1.79,1.45,1.19,2.13,2.73,2.13,4.61v8.96h-2.94Z"/><rect class="d" x="244.07" y="35.51" width="2.86" height="22.02"/></g></g></g></g></svg>