<svg width="34" height="15" viewBox="0 0 34 15" fill="none" xmlns="http://www.w3.org/2000/svg">
<path d="M0 7.5C0 3.35786 3.35786 0 7.5 0H26.5C30.6421 0 34 3.35786 34 7.5V7.5C34 11.6421 30.6421 15 26.5 15H7.5C3.35786 15 0 11.6421 0 7.5V7.5Z" fill="#FF0000"/>
<path d="M12.1272 4.49895L12.0793 11.0442L10.737 11.0344L8.15997 7.23769L8.11842 7.23739L8.09073 11.015L6.50874 11.0034L6.55672 4.45811L7.91819 4.46809L10.4665 8.25818L10.5208 8.25858L10.5484 4.48737L12.1272 4.49895ZM13.074 11.0515L13.122 4.50624L17.6858 4.53969L17.6764 5.82446L14.6945 5.8026L14.6847 7.14489L17.4332 7.16504L17.4238 8.453L14.6753 8.43286L14.6654 9.77835L17.6472 9.8002L17.6378 11.085L13.074 11.0515ZM20.1977 11.1037L18.3409 4.54449L20.0891 4.55731L21.0452 8.8535L21.0996 8.85389L22.2592 4.57322L23.6845 4.58367L24.7812 8.89047L24.8355 8.89087L25.8578 4.5996L27.6028 4.61239L25.6532 11.1437L24.1287 11.1326L22.9785 7.15455L22.9274 7.15418L21.719 11.1149L20.1977 11.1037Z" fill="white"/>
</svg>
