<?xml version="1.0" encoding="UTF-8"?><svg id="uuid-6e57ba03-ac89-497c-a91d-9f97f39ffcd3" xmlns="http://www.w3.org/2000/svg" viewBox="0 0 64 64"><g id="uuid-4d44e23b-9707-4ffc-bd09-06250e3e31c2"><g id="uuid-30746fc7-97cb-44d4-84c8-1fd25c646f55"><g id="uuid-b4db224a-41b2-40cc-926d-39a3c4a05aa4"><g id="uuid-b7d9307b-c4fa-45db-ade0-ece6cdc01c8b"><path id="uuid-4e67ad0c-fdf7-4baa-94cc-d813c287df9e" d="m23.47,39.88c-1.28,0-2.33-1.04-2.33-2.33s1.04-2.33,2.33-2.33h17.05c1.28,0,2.33,1.04,2.33,2.33s-1.04,2.33-2.33,2.33" style="fill:none; stroke:#0e185f; stroke-linecap:round; stroke-linejoin:round; stroke-width:2px;"/></g><g id="uuid-6ee9c235-0303-41b0-b018-6d6239b930a3"><path id="uuid-fe09126a-68fd-4a9d-a91a-1f4c017af8b6" d="m38.2,35.23v-7.75c0-1.71-1.39-3.1-3.1-3.1h-6.2c-1.71,0-3.1,1.39-3.1,3.1v4.65c0,1.71,1.39,3.1,3.1,3.1" style="fill:none; stroke:#0e185f; stroke-linecap:round; stroke-linejoin:round; stroke-width:2px;"/></g><g id="uuid-638bc031-e0f1-4ca5-9f41-692f1db6738e"><path id="uuid-ea2963cf-6868-46be-89b3-4cc0ee50fd78" d="m32,24.38c-1.71,0-3.1-1.39-3.1-3.1v-1.65c0-.86.69-1.55,1.55-1.55h3.1c.86,0,1.55.69,1.55,1.55v1.65c0,1.71-1.39,3.1-3.1,3.1Z" style="fill:none; stroke:#0e185f; stroke-linecap:round; stroke-linejoin:round; stroke-width:2px;"/></g><g id="uuid-b430f4bd-051e-47e1-82c5-225054b1977f"><path id="uuid-4e18407c-fe90-4693-8158-06a56c6b2812" d="m33.55,16.52c0,.86-.69,1.55-1.55,1.55s-1.55-.69-1.55-1.55.69-1.55,1.55-1.55,1.55.69,1.55,1.55Z" style="fill:none; stroke:#0e185f; stroke-linecap:round; stroke-linejoin:round; stroke-width:2px;"/></g><g id="uuid-34d9eaa2-a524-4ef1-9d85-37cd86cd19f8"><path id="uuid-38711968-46c4-4852-bfe1-5b040defbc0e" d="m28.9,27.58v4.55h3.1c1.71,0,3.1,1.39,3.1,3.1" style="fill:none; stroke:#0e185f; stroke-linecap:round; stroke-linejoin:round; stroke-width:2px;"/></g><g id="uuid-75c4d70d-f119-4025-baf4-73b6c1353262"><path id="uuid-61cf82e6-d530-4190-b029-771c1a094372" d="m44.45,44.28h-24.91v-4.39h24.91v4.39Z" style="fill:none; stroke:#0e185f; stroke-linecap:round; stroke-linejoin:round; stroke-width:2px;"/></g></g></g><line x1="34.19" y1="27.58" x2="34.19" y2="29.8" style="fill:none; stroke:#0e185f; stroke-linecap:round; stroke-linejoin:round; stroke-width:2px;"/></g><polyline points="54.25 23.73 54.25 44.28 8.99 44.28 8.99 23.73" style="fill:none; stroke:#0e185f; stroke-linecap:round; stroke-linejoin:round; stroke-width:2px;"/><path id="uuid-3851b161-af92-4f97-832a-b38e2de081fe" d="m25.28,35.23c4.95,0,7.73,4.65,12.68,4.65" style="fill:none; stroke:#0e185f; stroke-linecap:round; stroke-linejoin:round; stroke-width:2px;"/></svg>