<?xml version="1.0" encoding="UTF-8"?><svg id="uuid-084e5241-0806-4d43-ad0f-3f2ac972e987" xmlns="http://www.w3.org/2000/svg" xmlns:xlink="http://www.w3.org/1999/xlink" viewBox="0 0 64 64"><defs><mask id="uuid-4dc29591-5b60-40a2-ad92-dc1da518fd36" x="8.1" y="8.1" width="47.8" height="47.8" maskUnits="userSpaceOnUse"><g id="uuid-ab878eb9-ec93-4cc4-b6d8-75caaffc7647"><rect id="uuid-af01b2b6-0901-4413-a9f3-ac8825a53569" x="8.1" y="8.1" width="47.8" height="47.8" style="fill:#fff;"/></g></mask></defs><g style="mask:url(#uuid-4dc29591-5b60-40a2-ad92-dc1da518fd36);"><g id="uuid-c69876bd-f93c-4e89-a892-09bca689ab86"><g id="uuid-b95057c9-1626-40f5-b513-9f5127adcc31"><g id="uuid-bfb5af3c-109c-4e5f-a3e9-b9cb1e352f2f"><path id="uuid-8c6215f1-c1ec-4af0-a6aa-a6b1e3bb4336" d="m20.7,54.5h11.2v-11.2h-11.2v11.2Z" style="fill:none; stroke:#0e185f; stroke-linecap:round; stroke-linejoin:round; stroke-width:2px;"/><g id="uuid-52a2581e-efb0-4199-99c9-d37da8d40a11"><path id="uuid-c6114388-a34d-418e-86cb-5a03c531bda7" d="m20.7,54.5h-5.6v-14.94l5.6,3.73v11.2Z" style="fill:none; stroke:#0e185f; stroke-linecap:round; stroke-linejoin:round; stroke-width:2px;"/></g><g id="uuid-a18e9dee-e51e-444f-9249-d995a167e205"><path id="uuid-44625bba-fec2-4ad7-80e3-6f9e891de202" d="m15.1,54.5h-5.6v-14.94l5.6,3.73v11.2Z" style="fill:none; stroke:#0e185f; stroke-linecap:round; stroke-linejoin:round; stroke-width:2px;"/></g><g id="uuid-47935b8d-e5d6-4b25-a92f-6b6d6dd644bc"><path id="uuid-7c01b365-80c0-4b40-b9ad-c72ef97dfeaf" d="m26.3,54.5v-3.73" style="fill:none; stroke:#0e185f; stroke-linecap:round; stroke-linejoin:round; stroke-width:2px;"/></g><g id="uuid-6e60cfb7-f405-4657-a674-6aebfcf843b7"><path id="uuid-38f0d48a-3c84-4254-aa5d-482585c29b07" d="m51.7,25.37h2.8v-7.47l-3.73-5.6h-7.47v13.07h2.8" style="fill:none; stroke:#0e185f; stroke-linecap:round; stroke-linejoin:round; stroke-width:2px;"/></g><g id="uuid-8235b818-5bf7-4e94-adc9-16fa5412b099"><path id="uuid-235f44ba-e092-4fb9-a1fa-30e717f4c8a1" d="m34.89,25.37h8.4v-15.87h-17.74v15.87h3.73" style="fill:none; stroke:#0e185f; stroke-linecap:round; stroke-linejoin:round; stroke-width:2px;"/></g><g id="uuid-e0c7acee-7e8a-4a5e-947f-8a073cac75d8"><path id="uuid-d4c5e0be-7df0-46e7-a82a-6bc75be0adbe" d="m37.51,45.07h11.3c3.09,0,5.6-2.51,5.6-5.6h0c0-3.09-2.51-5.6-5.6-5.6h-31.74c-3.09,0-5.6-2.51-5.6-5.6h0c0-3.09,2.51-5.6,5.6-5.6h2.89" style="fill:none; stroke:#0e185f; stroke-linecap:round; stroke-linejoin:round; stroke-width:2px;"/></g><g id="uuid-7284a1ba-6bb6-444c-aca2-cd02c4444a96"><path id="uuid-b7af64a5-409f-416d-8858-ca4dcf381560" d="m34.89,25.37c0,1.55-1.25,2.8-2.8,2.8s-2.8-1.25-2.8-2.8,1.25-2.8,2.8-2.8,2.8,1.25,2.8,2.8Z" style="fill:none; stroke:#0e185f; stroke-linecap:round; stroke-linejoin:round; stroke-width:2px;"/></g><g id="uuid-6ff37483-3d26-4960-acec-a5337e819895"><path id="uuid-946fbe3e-67a9-472d-826b-8eaa9a053847" d="m51.7,25.37c0,1.55-1.25,2.8-2.8,2.8s-2.8-1.25-2.8-2.8,1.25-2.8,2.8-2.8,2.8,1.25,2.8,2.8Z" style="fill:none; stroke:#0e185f; stroke-linecap:round; stroke-linejoin:round; stroke-width:2px;"/></g></g></g></g></g></svg>