<?xml version="1.0" encoding="UTF-8"?><svg id="uuid-ae24373c-d6a5-4434-af90-99149b3688d7" xmlns="http://www.w3.org/2000/svg" viewBox="0 0 64 64"><polyline points="47.95 55.3 57.2 55.3 57.2 52.26 55.57 52.26 55.57 44.54 51.89 39.31 44.9 39.31 44.9 52.3" style="fill:none; stroke:#0e185f; stroke-linecap:round; stroke-linejoin:round; stroke-width:2px;"/><polyline points="44.88 39.31 41.87 39.31 41.87 55.35" style="fill:none; stroke:#0e185f; stroke-linecap:round; stroke-linejoin:round; stroke-width:2px;"/><polyline points="54.03 42.35 47.97 42.35 47.97 46.92 55.57 46.92" style="fill:none; stroke:#0e185f; stroke-linecap:round; stroke-linejoin:round; stroke-width:2px;"/><line x1="55.57" y1="52.26" x2="44.9" y2="52.26" style="fill:none; stroke:#0e185f; stroke-linecap:round; stroke-linejoin:round; stroke-width:2px;"/><circle cx="14.46" cy="55.31" r="3.04" style="fill:none; stroke:#0e185f; stroke-linecap:round; stroke-linejoin:round; stroke-width:2px;"/><line x1="14.46" y1="55.31" x2="14.46" y2="55.31" style="fill:none; stroke:#0e185f; stroke-linecap:round; stroke-linejoin:round; stroke-width:2px;"/><circle cx="44.9" cy="55.31" r="3.04" style="fill:none; stroke:#0e185f; stroke-linecap:round; stroke-linejoin:round; stroke-width:2px;"/><line x1="44.9" y1="55.3" x2="44.9" y2="55.32" style="fill:none; stroke:#0e185f; stroke-linecap:round; stroke-linejoin:round; stroke-width:2px;"/><polyline points="11.41 55.31 6.8 55.31 6.8 54.64 9.17 52.27 41.86 52.27" style="fill:none; stroke:#0e185f; stroke-linecap:round; stroke-linejoin:round; stroke-width:2px;"/><line x1="41.86" y1="55.31" x2="17.5" y2="55.31" style="fill:none; stroke:#0e185f; stroke-linecap:round; stroke-linejoin:round; stroke-width:2px;"/><line x1="9.17" y1="52.27" x2="9.17" y2="48.45" style="fill:none; stroke:#0e185f; stroke-linecap:round; stroke-linejoin:round; stroke-width:2px;"/><path d="m59.08,4.7L6.56,49.63c-.3-.04-2.11-.29-3.3-1.94-1.04-1.45-.89-2.99-.85-3.35,1.62-1.72,4.18-4.22,7.67-6.81,4.59-3.41,8.49-5.26,9.48-5.75,5.09-2.49,15.79-9.31,39.52-27.08Z" style="fill:none; stroke:#0e185f; stroke-linecap:round; stroke-linejoin:round; stroke-width:2px;"/><path d="m5.26,42.35c0,.42.06,1.12.41,1.89.22.49.49.85.72,1.11" style="fill:none; stroke:#0e185f; stroke-linecap:round; stroke-linejoin:round; stroke-width:2px;"/></svg>