<?xml version="1.0" encoding="UTF-8"?><svg id="uuid-704f81fd-0724-49ab-86f0-9610a6c62458" xmlns="http://www.w3.org/2000/svg" viewBox="0 0 64 64"><polyline points="48.3 12.38 50.97 15.06 53.68 12.35" style="fill:none; stroke:#0e185f; stroke-linecap:round; stroke-linejoin:round; stroke-width:2px;"/><polyline points="57.06 15.62 54.38 18.3 57.1 21.01" style="fill:none; stroke:#0e185f; stroke-linecap:round; stroke-linejoin:round; stroke-width:2px;"/><polyline points="44.84 15.62 47.51 18.3 44.8 21.01" style="fill:none; stroke:#0e185f; stroke-linecap:round; stroke-linejoin:round; stroke-width:2px;"/><polyline points="53.68 24.39 51.01 21.71 48.3 24.42" style="fill:none; stroke:#0e185f; stroke-linecap:round; stroke-linejoin:round; stroke-width:2px;"/><line x1="50.97" y1="15.06" x2="50.97" y2="21.71" style="fill:none; stroke:#0e185f; stroke-linecap:round; stroke-linejoin:round; stroke-width:2px;"/><line x1="47.51" y1="18.3" x2="54.38" y2="18.3" style="fill:none; stroke:#0e185f; stroke-linecap:round; stroke-linejoin:round; stroke-width:2px;"/><circle cx="29.83" cy="48.19" r="3.34" style="fill:none; stroke:#0e185f; stroke-linecap:round; stroke-linejoin:round; stroke-width:2px;"/><line x1="29.83" y1="34.78" x2="29.83" y2="44.85" style="fill:none; stroke:#0e185f; stroke-linecap:round; stroke-linejoin:round; stroke-width:2px;"/><path d="m35.57,41.06v-22.96c0-3.17-2.57-5.74-5.74-5.74h0c-3.17,0-5.74,2.57-5.74,5.74v22.96c-2.1,1.69-3.44,4.29-3.42,7.21.04,4.95,4.07,9.01,9.03,9.08,5.12.07,9.29-4.06,9.29-9.16,0-2.88-1.33-5.46-3.42-7.14Z" style="fill:none; stroke:#0e185f; stroke-linecap:round; stroke-linejoin:round; stroke-width:2px;"/><line x1="35.57" y1="20.42" x2="39.18" y2="20.42" style="fill:none; stroke:#0e185f; stroke-linecap:round; stroke-linejoin:round; stroke-width:2px;"/><line x1="35.57" y1="26.11" x2="39.18" y2="26.11" style="fill:none; stroke:#0e185f; stroke-linecap:round; stroke-linejoin:round; stroke-width:2px;"/><line x1="35.57" y1="31.71" x2="39.18" y2="31.71" style="fill:none; stroke:#0e185f; stroke-linecap:round; stroke-linejoin:round; stroke-width:2px;"/><line x1="35.57" y1="37.4" x2="39.18" y2="37.4" style="fill:none; stroke:#0e185f; stroke-linecap:round; stroke-linejoin:round; stroke-width:2px;"/></svg>