<?xml version="1.0" encoding="UTF-8"?><svg id="uuid-e9167978-e683-42e5-8249-88c490db2089" xmlns="http://www.w3.org/2000/svg" viewBox="0 0 64 64"><g id="uuid-6effb244-83ae-4974-91ab-8c94c083207c"><g id="uuid-1110d9b9-2ff7-4178-88e6-444e224dde14"><g id="uuid-be7dabd2-1544-42a8-9ac1-3e6197c357c0"><g id="uuid-b79a112d-a708-431b-81c0-935dcba5777a"><path id="uuid-4e12c8fd-e0fb-4fe2-82c4-5afa0f44ba7e" d="m27.35,14.16c0,.94-.76,1.7-1.7,1.7s-1.7-.76-1.7-1.7.76-1.7,1.7-1.7,1.7.76,1.7,1.7Z" style="fill:none; stroke:#0e185f; stroke-linecap:round; stroke-linejoin:round; stroke-width:2px;"/></g><g id="uuid-07400bad-a2de-475d-8e64-985bbb28e408"><path id="uuid-c13b8472-a5fd-4918-97a5-43d4b40ffbd7" d="m44.42,37.48c0,.94-.76,1.7-1.7,1.7s-1.7-.76-1.7-1.7.76-1.7,1.7-1.7,1.7.76,1.7,1.7Z" style="fill:none; stroke:#0e185f; stroke-linecap:round; stroke-linejoin:round; stroke-width:2px;"/></g><g id="uuid-c0155c10-d100-465e-9354-d0718fa37f25"><path id="uuid-1f303a72-f250-4075-bfe8-ab20f5a19197" d="m18.34,49.62c3.72,3.05,8.47,4.88,13.66,4.88.39,0,.78-.01,1.17-.03l-.56-1.36c-.36-.87-.07-1.87.7-2.42.53-.38.85-.99.85-1.65-.04-.39.19-1.28-.55-2.07l-1.06-1.13c-.65-.69-.73-1.74-.2-2.52l.28-.41c.76-1.11.24-2.64-1.04-3.06l-3.06-1.01c-.28-.09-.52-.28-.67-.54l-2.1-3.61c-.46-.79-1.59-.8-2.07-.03l-.5.81c-.22.36-.61.57-1.03.57-.79,0-1.37-.75-1.17-1.51l1.09-4.16c.09-.33.31-.61.61-.77l2.22-1.14c.5-.26.74-.81.63-1.33-.21-.93-.95-1.64-1.89-1.8-1.13-.24-1.86-.19-2.76-.74l-3.22-1.95c-.8-.48-1.38-1.25-1.64-2.14l-.45-1.53c-3.21,3.76-5.15,8.64-5.15,13.97,0,5.74,2.24,10.95,5.9,14.81" style="fill:none; stroke:#0e185f; stroke-linecap:round; stroke-linejoin:round; stroke-width:2px;"/></g><g id="uuid-c8db0a5d-1ba6-4115-8cc4-de53dff390a8"><path id="uuid-81fe4a89-64dc-46a6-b25c-a7268ec8df7c" d="m25.66,9.5c-2.72,0-4.82,2.35-4.66,5.06.17,2.77,2,5.26,3.32,6.7.71.78,1.94.79,2.66,0,1.38-1.51,3.33-4.18,3.33-7.1,0-2.57-2.08-4.65-4.64-4.66Z" style="fill:none; stroke:#0e185f; stroke-linecap:round; stroke-linejoin:round; stroke-width:2px;"/></g><g id="uuid-e7849c50-d89f-43c7-9e93-eff72ca27c7e"><path id="uuid-edafefb1-f52d-4374-a6ec-b0fb20d2065c" d="m48.5,19.1l-.88,1.56c-.33.59-.95,1.01-1.66,1.07-.71.06-1.35.47-1.68,1.1l-.8,1.49c-.39.73-1.18,1.16-2,1.1-.5-.03-.6-.05-.83-.05-1.09,0-2.13.46-2.87,1.26-1.46,1.6-.76,3.29-1.97,4.9l-1.83,2.44c-.43.57-.3,1.37.27,1.79l1.58,1.15c.31.22.7.3,1.07.2.52-.13.92-.23,1.24-.32.37-2.23,2.26-3.98,4.6-3.97,2.56,0,4.64,2.09,4.64,4.66,0,.54-.07,1.07-.18,1.59.02.01.03.02.05.04l4.17,3.21c1.37-2.83,2.13-6.01,2.13-9.36,0-5.28-1.9-10.11-5.05-13.85Z" style="fill:none; stroke:#0e185f; stroke-linecap:round; stroke-linejoin:round; stroke-width:2px;"/></g><g id="uuid-39ddb598-0bed-46f2-a0e0-59c9e40ec9bb"><path id="uuid-9e8c33b7-f724-4e95-8ea9-182f137f3e8a" d="m40.68,13.23c-2.66-1.17-5.59-1.82-8.68-1.82-.84,0-1.68.05-2.5.14.5.74.8,1.64.8,2.61,0,2.93-1.95,5.59-3.33,7.1-.71.78-1.94.78-2.66,0-1.31-1.44-3.15-3.94-3.32-6.7,0-.04,0-.08,0-.13-2.04,1.21-3.86,2.75-5.39,4.55h0s.45,1.53.45,1.53c.26.89.85,1.66,1.64,2.14l3.22,1.95c.91.55,1.63.5,2.76.74.93.16,1.68.87,1.89,1.8.12.52-.13,1.08-.63,1.33l-2.22,1.14c-.3.16-.53.44-.61.77l-1.09,4.16c-.2.76.38,1.51,1.17,1.51.41,0,.8-.21,1.03-.57l.5-.81c.48-.78,1.61-.76,2.07.03l2.1,3.61c.15.26.38.45.67.54l3.06,1.01c1.28.42,1.8,1.95,1.04,3.06l-.28.41c-.53.78-.45,1.83.2,2.52l1.06,1.13c.74.79.5,1.68.55,2.07,0,.65-.32,1.27-.85,1.65-.76.54-1.06,1.55-.7,2.42l.56,1.36c8.04-.43,14.92-5.27,18.24-12.16l-4.17-3.21s-.03-.03-.05-.04c-.52,2.28-2.02,4.28-3.15,5.51-.71.78-1.94.78-2.66,0-1.31-1.44-3.15-3.94-3.32-6.7-.02-.37,0-.73.06-1.08-.32.08-.72.19-1.24.32-.37.1-.76.02-1.07-.2l-1.58-1.15c-.57-.42-.7-1.22-.27-1.79l1.83-2.44c1.21-1.6.5-3.3,1.97-4.9.74-.81,1.79-1.26,2.87-1.26.24,0,.33.02.83.05.83.06,1.61-.37,2-1.1l.8-1.49c.34-.63.97-1.04,1.68-1.1.71-.06,1.33-.47,1.66-1.07l.88-1.56c-1.5-1.79-3.29-3.33-5.29-4.55" style="fill:none; stroke:#0e185f; stroke-linecap:round; stroke-linejoin:round; stroke-width:2px;"/></g><g id="uuid-56c67714-fea7-4d80-8879-48d1a1b62f64"><path id="uuid-dbb2ccca-efb4-431f-9aad-a5aec66deab1" d="m42.74,32.82c-2.72,0-4.82,2.35-4.66,5.06.17,2.77,2,5.26,3.32,6.7.71.78,1.94.79,2.66,0,1.38-1.51,3.33-4.18,3.33-7.1,0-2.57-2.08-4.65-4.64-4.66Z" style="fill:none; stroke:#0e185f; stroke-linecap:round; stroke-linejoin:round; stroke-width:2px;"/></g></g></g></g></svg>