<?xml version="1.0" encoding="UTF-8"?><svg xmlns="http://www.w3.org/2000/svg" viewBox="0 0 299.39 107.36"><defs><style>.d{fill:#004289;}.e{fill:#575756;}.f{fill:#a8a8a7;}.g{fill:#2eb4d3;}</style></defs><g id="a"/><g id="b"><g id="c"><g><path class="d" d="M105.64,19.39c4.64-2.25,13.77-5.59,25.4-4.49,.9,.95,1.7,1.85,2.49,2.79,8.48,10.13,19.46,11.48,19.91,11.53,.5,.05,1-.3,1.05-.85,.05-.5-.3-1-.85-1.05-.1,0-10.68-1.35-18.71-10.88-.35-.4-.7-.8-1.05-1.25,1.35,.2,2.69,.5,4.04,.8,9.83,2.4,15.62,6.89,20.71,10.83,3.84,2.99,7.53,5.89,12.47,7.48-2.69,1.95-5.59,3.49-8.58,4.64-2.69-1.5-5.94-2.74-10.23-3.59-4.39-.9-8.53-1-12.28-.65-1.35,.1-2.59,.3-3.84,.5-2.05-1.3-4.14-2.79-6.29-4.24-7.83-5.39-15.92-11.03-24.25-11.58m37.57,29.64c4.89,2.59,10.38,5.59,17.17,7.88,8.53,2.94,17.31,.4,24-2.94-7.53-1.15-11.28-4.39-15.22-7.83-2-1.75-4.09-3.54-6.74-5.14-5.69,1.95-11.43,2.35-16.42,1.05-3.29-.85-6.64-2.64-10.13-4.84-5.79,1.15-10.43,3.29-13.42,4.99,7.24-.4,13.32,2.89,20.76,6.84"/><path class="g" d="M159.78,25.43c-5.24-4.09-11.18-8.68-21.41-11.18-2.25-.55-4.39-.9-6.44-1.15-5.39-5.59-12.03-10.58-17.91-12.33,5.24-.95,14.32-1.65,24.55,1.8,7.19,2.45,10.68,5.19,13.42,7.39,3.59,2.84,6.39,5.09,14.47,4.69,5.74-.3,9.03-2.69,12.18-5.04,4.29-3.19,8.33-6.19,18.61-4.49-3.79,1.4-9.13,5.09-13.57,14.37-2.49,5.24-6.29,9.83-10.68,13.42-5.29-1.3-9.03-4.24-13.22-7.48m-21.06,11.38c2.69,1.55,5.29,2.79,7.78,3.49,4.29,1.15,8.98,.9,13.62-.45-2.2-1.05-4.84-1.95-8.13-2.59-4.79-.95-9.28-1-13.27-.45m49.05,15.32c8.48-5.04,15.32-12.03,18.11-16.42,4.09-6.39,10.68-8.93,14.67-9.88-17.71-6.54-23-1.75-28.59,3.29-3.24,2.94-6.64,5.99-12.42,6.49h-.1c-2.2,0-4.14-.25-5.99-.6-1.75,1.35-3.54,2.54-5.49,3.59-1.1,.6-2.25,1.15-3.39,1.65,2.25,1.5,4.09,3.04,5.79,4.54,4.29,3.74,8.03,7.04,16.87,7.63,.2-.1,.4-.2,.55-.3m-33.98,4.34s10.78,15.97,27.59,14.62c16.82-1.4,18.86-16.47,35.78-19.71,0,0-4.99-3.69-11.18-3.19-6.14,.5-10.88,6.39-18.31,6.19,.05-.05-16.42,10.83-33.88,2.1"/><path class="e" d="M53.19,106.81h-8.23c-2.35,0-2.74-1.15-2.74-1.15h0l-8.38-23.95-8.73,25.1h-8.13c-2.35,0-2.74-1.15-2.74-1.15L0,62.9H7.88c1,.05,5.04,.4,6.29,4.59l6.24,20.61,8.43-25.35h10.43l8.43,25.35,7.63-25.2h10.18c.65,.05,2.2,.55,.9,4.49l-13.22,39.42Zm103.79-.35h-7.73c-4.79,0-6.39-2.89-6.79-3.69l-1.65-4.04h-16.82l-3.09,7.78h-12.72l16.97-40.07s1.55-3.84,5.04-3.84h8.23l18.56,43.86Zm-19.66-17.17l-4.89-12.37-4.94,12.37h9.83Zm-47.8,7.04c-6.14,0-10.43-5.09-10.43-11.63v-.1c0-6.34,4.29-11.53,10.43-11.53,2.79,0,4.99,.9,6.84,2.4,.65,.5,3.29,2.25,5.84,.25l5.94-4.59c-3.84-5.39-9.58-9.08-18.51-9.08-13.22,0-23,9.98-23,22.65v.1c0,13.02,10.03,22.55,22.5,22.55,9.68,0,15.22-4.19,19.31-9.83l-9.08-6.49c-2.59,3.19-5.29,5.29-9.83,5.29"/><rect class="f" x="170.8" y="76.97" width=".7" height="28.74"/><path class="e" d="M181.78,80.51h.9v7.04h4.44v.85h-5.34v-7.88h0Zm9.03,7.29c-1.05,0-1.95-.7-2.05-1.95h4.59v-.3c0-1.7-1-3.09-2.69-3.09-1.6,0-2.79,1.35-2.79,3.04,0,1.8,1.3,3.04,2.89,3.04,1.1,0,1.8-.45,2.4-1.1l-.55-.5c-.45,.5-1,.85-1.8,.85m-2.05-2.64c.15-1.15,.9-1.95,1.9-1.95,1.15,0,1.75,.9,1.85,1.95h-3.74Zm5.49,1.55c0,1.2,1.1,1.8,2.2,1.8s1.7-.45,2.1-1v.85h.85v-3.54c0-.75-.2-1.3-.6-1.7-.4-.4-1.05-.65-1.9-.65s-1.45,.2-2.1,.5l.25,.7c.55-.25,1.1-.4,1.75-.4,1.1,0,1.75,.55,1.75,1.55v.2c-.5-.15-1.05-.25-1.8-.25-1.5,.05-2.49,.7-2.49,1.95h0m4.24-.45c0,.95-.85,1.55-1.95,1.55-.8,0-1.45-.45-1.45-1.15h0c0-.7,.6-1.15,1.7-1.15,.7,0,1.3,.1,1.7,.25v.5m2.15-.75c0,1.9,1.4,2.99,2.79,2.99,1.05,0,1.75-.6,2.25-1.3v1.15h.85v-8.18h-.85v3.49c-.45-.65-1.15-1.25-2.25-1.25-1.4,.05-2.79,1.2-2.79,3.09h0m5.04,0c0,1.35-1,2.25-2.1,2.25s-2.05-.9-2.05-2.25h0c0-1.4,.95-2.25,2.05-2.25s2.1,.9,2.1,2.25h0m2.54-4.19h1v-.95h-1v.95Zm.05,7.09h.85v-5.79h-.85v5.79Zm2.64,0h.85v-3.34c0-1.1,.75-1.8,1.75-1.8,1.05,0,1.6,.65,1.6,1.75v3.39h.85v-3.59c0-1.4-.8-2.35-2.2-2.35-1,0-1.6,.5-2,1.15v-1h-.85v5.79h0Zm6.64,1c.75,.55,1.65,.8,2.64,.8,.9,0,1.7-.25,2.25-.75,.45-.5,.75-1.15,.75-2.05v-4.79h-.85v1.05c-.5-.65-1.2-1.15-2.3-1.15-1.4,0-2.74,1.05-2.74,2.74h0c0,1.65,1.35,2.74,2.74,2.74,1.05,0,1.8-.55,2.3-1.25v.7c0,1.35-.85,2.05-2.1,2.05-.8,0-1.55-.25-2.25-.75l-.45,.65m4.79-4.19c0,1.15-1.05,1.95-2.15,1.95s-2-.8-2-2v-.05c0-1.2,.9-1.95,2-1.95,1.1,.05,2.15,.85,2.15,2.05h0m5.99,1.65c0,1.2,.7,1.65,1.65,1.65,.4,0,.75-.1,1.05-.25v-.75c-.3,.15-.55,.2-.85,.2-.6,0-1-.25-1-.95v-3.39h1.85v-.75h-1.85v-1.75h-.85v1.75h-.8v.75h.8v3.49m3.99,1.55h.85v-3.34c0-1.1,.75-1.8,1.75-1.8,1.05,0,1.6,.65,1.6,1.75v3.39h.85v-3.59c0-1.4-.8-2.35-2.25-2.35-1,0-1.6,.5-2,1.15v-3.39h-.85v8.18h.05Zm9.28-.6c-1.05,0-1.95-.7-2.05-1.95h4.59v-.3c0-1.7-1-3.09-2.74-3.09-1.6,0-2.79,1.35-2.79,3.04,0,1.8,1.3,3.04,2.89,3.04,1.1,0,1.8-.45,2.4-1.1l-.55-.5c-.4,.5-.95,.85-1.75,.85m-2.05-2.64c.1-1.15,.9-1.95,1.9-1.95,1.15,0,1.75,.9,1.85,1.95h-3.74Zm11.43,3.29h.75l2.2-6.39,2.15,6.39h.75l2.79-7.93h-.95l-2.25,6.54-2.15-6.59h-.75l-2.15,6.59-2.25-6.54h-.95l2.79,7.93Zm8.78-2.89c0,1.65,1.25,2.99,2.99,2.99s3.04-1.4,3.04-3.04h0c0-1.65-1.3-2.99-3.04-2.99-1.75-.05-2.99,1.35-2.99,3.04h0m5.14,0c0,1.2-.85,2.25-2.15,2.25s-2.15-1-2.15-2.25h0c0-1.25,.85-2.25,2.15-2.25,1.25-.1,2.15,.95,2.15,2.25h0m2.25,2.84h.85v-2.3c0-1.75,1.05-2.64,2.3-2.64h.05v-.95c-1.1-.05-1.95,.65-2.4,1.6v-1.5h-.85v5.79h.05Zm4.39,0h.85v-8.18h-.85v8.18Zm2.35-2.89c0,1.9,1.4,2.99,2.79,2.99,1.05,0,1.75-.6,2.25-1.3v1.15h.85v-8.18h-.85v3.49c-.45-.65-1.15-1.25-2.25-1.25-1.4,.05-2.79,1.2-2.79,3.09h0m5.04,0c0,1.35-1,2.25-2.1,2.25s-2.05-.9-2.05-2.25h0c0-1.4,.95-2.25,2.05-2.25s2.1,.9,2.1,2.25h0m-97.3,8.53h1v-.95h-1v.95Zm.05,7.09h.85v-5.84h-.85v5.84Zm2.69,0h.85v-3.34c0-1.1,.75-1.8,1.75-1.8,1.05,0,1.6,.7,1.6,1.75v3.39h.85v-3.59c0-1.4-.85-2.35-2.25-2.35-1,0-1.6,.5-2,1.15v-1h-.85v5.79h.05Zm9.98,0h5.29v-.85h-4.44v-7.04h-.9v7.88h.05Zm6.14-2.89c0,1.65,1.3,2.99,2.99,2.99s3.04-1.4,3.04-3.04v-.05c0-1.65-1.25-2.99-2.99-2.99-1.8,.05-3.04,1.45-3.04,3.09h0m5.14,0c0,1.25-.85,2.25-2.15,2.25s-2.15-1-2.15-2.25v-.05c0-1.2,.85-2.25,2.15-2.25,1.25,.05,2.15,1.05,2.15,2.3h0m2.15,3.89c.75,.55,1.7,.8,2.64,.8,.9,0,1.7-.25,2.2-.8,.5-.45,.75-1.15,.75-2.05v-4.79h-.85v1.05c-.45-.65-1.2-1.2-2.3-1.2-1.4,0-2.74,1.05-2.74,2.74h0c0,1.65,1.35,2.69,2.74,2.69,1.05,0,1.8-.55,2.3-1.2v.7c0,1.35-.85,2.05-2.1,2.05-.85,0-1.6-.25-2.25-.75l-.4,.75m4.79-4.19c0,1.15-1.05,1.95-2.15,1.95s-2-.8-2-2v-.05c0-1.2,.9-1.95,2-1.95,1.1,.1,2.15,.85,2.15,2.05h0m2.54-3.89h1v-.95h-1v.95Zm.1,7.09h.85v-5.84h-.85v5.84Zm2.15-.75c.65,.55,1.6,.85,2.4,.85,1.15,0,2.05-.65,2.05-1.75v-.05c0-1.05-.95-1.4-1.85-1.65-.8-.25-1.5-.45-1.5-1h0c0-.5,.45-.85,1.15-.85,.55,0,1.15,.2,1.7,.55l.4-.65c-.6-.4-1.4-.65-2.1-.65-1.15,0-2,.65-2,1.65h0c0,1.05,1,1.4,1.95,1.65,.75,.2,1.45,.45,1.45,1v.05c0,.55-.5,.9-1.2,.9s-1.4-.25-2-.75l-.45,.7m6.04-.8c0,1.2,.7,1.65,1.65,1.65,.4,0,.75-.1,1.05-.25v-.75c-.3,.15-.55,.2-.85,.2-.6,0-.95-.25-.95-.95v-3.39h1.85v-.75h-1.85v-1.75h-.85v1.75h-.8v.75h.8v3.49m3.99-5.54h1v-.95h-1v.95Zm.05,7.09h.85v-5.84h-.85v5.84Zm2.3-2.89c0,1.65,1.3,2.99,2.99,2.99,1.1,0,1.8-.5,2.4-1.15l-.55-.5c-.45,.5-1.05,.85-1.8,.85-1.2,0-2.15-1-2.15-2.25v-.05c0-1.25,.9-2.25,2.1-2.25,.8,0,1.3,.4,1.75,.9l.55-.6c-.55-.55-1.2-1.05-2.35-1.05-1.65,.05-2.94,1.45-2.94,3.09h0m6.09,2.15c.65,.55,1.6,.85,2.4,.85,1.15,0,2.1-.65,2.1-1.75v-.05c0-1.05-.95-1.4-1.85-1.65-.75-.25-1.5-.45-1.5-1h0c0-.5,.45-.85,1.15-.85,.55,0,1.2,.2,1.7,.55l.4-.65c-.6-.4-1.4-.65-2.1-.65-1.15,0-2,.65-2,1.65h0c0,1.05,1,1.4,1.95,1.65,.75,.2,1.45,.45,1.45,1v.05c0,.55-.5,.9-1.2,.9s-1.4-.25-2-.75l-.5,.7m9.13,.75h.9v-2.74h1.9c1.7,0,3.09-.85,3.09-2.54v-.05c0-1.55-1.15-2.49-2.94-2.49h-2.94v7.83h0Zm.9-3.59v-3.44h2c1.3,0,2.1,.6,2.1,1.7h0c0,1.05-.85,1.75-2.15,1.75h-1.95Zm5.69,1.9c0,1.2,1.1,1.8,2.2,1.8,1,0,1.7-.45,2.1-1v.85h.85v-3.54c0-.75-.2-1.3-.6-1.7-.45-.4-1.05-.65-1.9-.65s-1.5,.2-2.1,.5l.25,.7c.55-.25,1.1-.4,1.75-.4,1.1,0,1.75,.55,1.75,1.55v.2c-.5-.15-1.05-.25-1.8-.25-1.45,.05-2.49,.7-2.49,1.95h0m4.29-.45c0,.95-.85,1.6-1.95,1.6-.8,0-1.45-.45-1.45-1.15h0c0-.7,.6-1.15,1.7-1.15,.7,0,1.25,.15,1.7,.25v.45m2.45,2.15h.85v-2.3c0-1.75,1.05-2.64,2.3-2.64h.05v-.95c-1.1-.05-1.95,.65-2.4,1.6v-1.5h-.85v5.79h.05Zm4.64-1.55c0,1.2,.7,1.65,1.65,1.65,.4,0,.75-.1,1.05-.25v-.75c-.3,.15-.55,.2-.85,.2-.6,0-1-.25-1-.95v-3.39h1.85v-.75h-1.85v-1.75h-.85v1.75h-.8v.75h.8v3.49m3.99,1.55h.85v-3.34c0-1.1,.75-1.8,1.75-1.8,1.05,0,1.6,.7,1.6,1.75v3.39h.85v-3.59c0-1.4-.8-2.35-2.25-2.35-1,0-1.6,.5-2,1.15v-1h-.85v5.79h.05Zm9.28-.6c-1.05,0-1.95-.7-2.05-1.95h4.64v-.3c0-1.7-1-3.09-2.69-3.09-1.6,0-2.79,1.35-2.79,3.04,0,1.8,1.3,3.04,2.89,3.04,1.1,0,1.8-.45,2.4-1.1l-.55-.5c-.5,.5-1.05,.85-1.85,.85m-2.05-2.64c.15-1.15,.9-1.95,1.9-1.95,1.15,0,1.75,.9,1.85,1.95h-3.74Zm5.94,3.24h.85v-2.3c0-1.75,1.05-2.64,2.3-2.64h.05v-.95c-1.1-.05-1.95,.65-2.4,1.6v-1.5h-.85v5.79h.05Zm4.34-7.09h1v-.95h-1v.95Zm.05,7.09h.85v-5.84h-.85v5.84Zm2.64,0h.85v-3.34c0-1.1,.75-1.8,1.75-1.8,1.05,0,1.6,.7,1.6,1.75v3.39h.85v-3.59c0-1.4-.8-2.35-2.25-2.35-1,0-1.6,.5-2,1.15v-1h-.85v5.79h.05Zm6.64,1c.8,.55,1.7,.8,2.64,.8,.9,0,1.7-.25,2.2-.8,.5-.45,.75-1.15,.75-2.05v-4.79h-.85v1.05c-.45-.65-1.2-1.2-2.3-1.2-1.4,0-2.74,1.05-2.74,2.74h0c0,1.65,1.35,2.69,2.74,2.69,1.1,0,1.8-.55,2.3-1.2v.7c0,1.35-.85,2.05-2.1,2.05-.85,0-1.55-.25-2.25-.75l-.4,.75m4.79-4.19c0,1.15-1.05,1.95-2.15,1.95s-2-.8-2-2v-.05c0-1.2,.9-1.95,2-1.95,1.1,.1,2.15,.85,2.15,2.05h0"/></g></g></g></svg>