<?xml version="1.0" encoding="UTF-8"?><svg id="uuid-7a7efa60-7ed4-484f-9bf6-bcf2e6aee197" xmlns="http://www.w3.org/2000/svg" viewBox="0 0 64 64"><path d="m38.07,37.46l10.22-6.53c1.28-.82,2.98-.44,3.79.83.29.46.43.97.43,1.48,0,.14-.01.29-.03.43" style="fill:none; stroke:#0e185f; stroke-linecap:round; stroke-linejoin:round; stroke-width:2px;"/><path d="m22.59,47.12l2.02-1.75c.2-.17.45-.27.72-.27h16.49c1.93,0,3.83-.55,5.46-1.6l9.23-5.9c.82-.52,1.27-1.41,1.27-2.31,0-.51-.14-1.02-.43-1.48-.82-1.28-2.51-1.65-3.79-.84l-5.86,3.75c-1.4.89-3.02,1.36-4.66,1.36-.54,0-1.09-.05-1.63-.16-2.13-.41-4.3-.62-6.47-.62h-.18c.04-.06.07-.13.1-.19.25-.5.38-1.06.38-1.63,0-2.02-1.64-3.67-3.67-3.67h-4.87c-1.94,0-3.85.48-5.56,1.4-2.29,1.15-4.55,2.74-6.73,4.46" style="fill:none; stroke:#0e185f; stroke-linecap:round; stroke-linejoin:round; stroke-width:2px;"/><line x1="34.75" y1="37.31" x2="27.36" y2="37.31" style="fill:none; stroke:#0e185f; stroke-linecap:round; stroke-linejoin:round; stroke-width:2px;"/><path d="m9.26,46.08l-2.78-3.21c-.38-.44-.33-1.1.11-1.48l5.52-4.78c.44-.38,1.1-.33,1.48.11l9.77,11.27c.38.44.33,1.1-.11,1.48l-5.52,4.78c-.44.38-1.1.33-1.48-.11l-.79-.92" style="fill:none; stroke:#0e185f; stroke-linecap:round; stroke-linejoin:round; stroke-width:2px;"/><path d="m46.94,16.25c-6.69,6.54-18.29,7.14-25.3-.44" style="fill:none; stroke:#0e185f; stroke-linecap:round; stroke-linejoin:round; stroke-width:2px;"/><path d="m48.35,9.53c1.07-.1,2.62-.04,3.63,1.67,1.89,3.2.06,6.67-.14,7.08-3.48,7.09-16.07,11.1-22.38,6.09-1.37-1.09-2.27-2.46-2.87-3.81-.34-.75-.1-1.64.57-2.14.8-.6,1.82-1.25,3.04-1.84,4.51-2.17,6.12-.65,9.95-2.4,4.43-2.03,5.09-4.35,8.21-4.65Z" style="fill:none; stroke:#0e185f; stroke-linecap:round; stroke-linejoin:round; stroke-width:2px;"/><line x1="12.36" y1="49.65" x2="12.36" y2="49.65" style="fill:none; stroke:#0e185f; stroke-linecap:round; stroke-linejoin:round; stroke-width:2px;"/></svg>