<svg xmlns="http://www.w3.org/2000/svg" version="1.1" xmlns:xlink="http://www.w3.org/1999/xlink" width="512" height="512" x="0" y="0" viewBox="0 0 64 64" style="enable-background:new 0 0 512 512" xml:space="preserve" class=""><g><path d="M48.53 29.056a.75.75 0 1 1-1.06 1.06l-4.72-4.72v14.19a.75.75 0 0 1-1.5 0v-14.19l-4.72 4.72a.75.75 0 1 1-1.06-1.06l5.293-5.293a1.753 1.753 0 0 1 2.474 0l5.293 5.293zm2.22 19.515V57A3.755 3.755 0 0 1 47 60.75H13A3.755 3.755 0 0 1 9.25 57v-.25H7A3.755 3.755 0 0 1 3.25 53V14c0-.2.08-.39.22-.53l10-10a.75.75 0 0 1 .53-.22h27A3.755 3.755 0 0 1 44.75 7v.25H47A3.755 3.755 0 0 1 50.75 11v4.43c5.94 3.149 10 9.391 10 16.57s-4.06 13.421-10 16.57zm-6-39.821v4.725c1.57.232 3.082.639 4.5 1.236V11c0-1.24-1.01-2.25-2.25-2.25zm-38.94 4.5H12c.69 0 1.25-.56 1.25-1.25V5.81zm1.19 42h34c1.24 0 2.25-1.01 2.25-2.25v-2.313c-.415.027-.828.063-1.25.063-4.904 0-9.36-1.907-12.704-5H11a.75.75 0 0 1 0-1.5h16.837a18.779 18.779 0 0 1-2.89-4.5H11a.75.75 0 0 1 0-1.5h13.344a18.567 18.567 0 0 1-1.005-4.5H11a.75.75 0 0 1 0-1.5h12.263c-.001-.084-.013-.166-.013-.25 0-1.464.186-2.882.504-4.25H11a.75.75 0 0 1 0-1.5h13.16a18.674 18.674 0 0 1 2.159-4.5H11a.75.75 0 0 1 0-1.5h16.41c3.44-4.263 8.698-7 14.59-7 .422 0 .835.036 1.25.063V7c0-1.24-1.01-2.25-2.25-2.25H14.75V12A2.753 2.753 0 0 1 12 14.75H4.75V53c0 1.24 1.01 2.25 2.25 2.25zm42.25-5.96a18.607 18.607 0 0 1-4.5 1.235V53A3.755 3.755 0 0 1 41 56.75H10.75V57c0 1.24 1.01 2.25 2.25 2.25h34c1.24 0 2.25-1.01 2.25-2.25zm10-17.29c0-9.512-7.738-17.25-17.25-17.25S24.75 22.488 24.75 32 32.488 49.25 42 49.25 59.25 41.512 59.25 32z" fill="#000000" opacity="1" data-original="#000000" class=""></path></g></svg>