<?xml version="1.0" encoding="UTF-8"?>
<svg id="OBJECTS" xmlns="http://www.w3.org/2000/svg" viewBox="0 0 248.88 119.11">
  <defs>
    <style>
      .cls-1 {
        fill: #c6e8ff;
        stroke-width: 0px;
      }
    </style>
  </defs>
  <g>
    <path class="cls-1" d="m235.52,84.35c.31,1.01.49,2.18.49,3.45,0,3.74-1.53,6.78-3.42,6.78-1.06,0-1.99-.97-2.62-2.47.23-1,.35-2.1.35-3.25,0-1.62-.26-3.12-.69-4.41,0-.03.02-.07.03-.1h-1.3c.54,1.2.88,2.77.88,4.51,0,3.74-1.53,6.78-3.42,6.78s-3.42-3.03-3.42-6.78c0-1.74.34-3.31.88-4.51h-8.14c-.45,1.3-.71,2.84-.71,4.51,0,4.63,2.01,8.38,4.49,8.38h6.9c.78,0,1.5-.4,2.14-1.06h4.62c2.48,0,4.49-3.75,4.49-8.38,0-1.23-.15-2.4-.41-3.45h-1.16Z"/>
    <path class="cls-1" d="m169.14,89.03h-1.82c.13.93.2,1.91.2,2.92,0,6.23-2.55,11.28-5.69,11.28-1.76,0-3.33-1.58-4.37-4.06.38-1.68.59-3.52.59-5.46,0-1.64-.16-3.21-.44-4.67h-1.86c.33,1.42.52,3,.52,4.67,0,6.23-2.55,11.28-5.69,11.28s-5.69-5.05-5.69-11.28c0-1.67.19-3.25.52-4.67h-11.83c-.28,1.46-1.95,3.03-1.95,4.67,0,7.71,3.35,13.95,7.48,13.95h11.48c1.32,0,2.55-.64,3.63-1.76h7.63c4.13,0,7.48-6.25,7.48-13.95,0-1-.06-1.97-.17-2.92Z"/>
    <polygon class="cls-1" points="135.87 76.01 135.87 85.05 144.47 79.63 145.75 78.19 221.83 79.96 220.06 81.9 135.87 85.05 135.87 91.95 238.75 86.22 240.93 78.17 135.87 76.01"/>
    <g>
      <path class="cls-1" d="m13.82,99.14c.65,8.42,4.52,14.9,9.21,14.9s8.5-6.37,9.19-14.69c-6.03,1.42-12.27,1.04-18.4-.21Z"/>
      <path class="cls-1" d="m7.78,97.64c.28,9.14,4.32,16.4,9.29,16.4h5.97v-4.04c1.58-2.47,2.71-5.89,3.15-9.8-6.14.33-12.37-.83-18.4-2.56Z"/>
    </g>
    <path class="cls-1" d="m77.58,84.34h0s-5.97,0-5.97,0c-5.15,0-9.32,7.78-9.32,17.39s4.17,17.39,9.32,17.39h5.97c5.15,0,9.32-7.78,9.32-17.39s-4.17-17.39-9.32-17.39Zm.64,30.76c-3.63,0-6.57-5.99-6.57-13.37s2.94-13.37,6.57-13.37,6.57,5.99,6.57,13.37-2.94,13.37-6.57,13.37Z"/>
    <path class="cls-1" d="m204.23,92.37l-24.45,1.77c-2.61.19-4.83-1.79-4.96-4.41h0c-.13-2.63,1.87-4.91,4.48-5.09l24.45-1.77c2.61-.19,4.83,1.79,4.96,4.41h0c.13,2.63-1.87,4.91-4.48,5.09Z"/>
    <g>
      <polygon class="cls-1" points="39.85 66.84 16.95 66.84 15.14 68.5 39.85 68.5 39.85 66.84"/>
      <path class="cls-1" d="m10.51,66.84v1.66h29.35v-1.66H10.51Zm-.87,7.61h29.35v-1.66H9.64v1.66Zm-.87,5.95h29.35v-1.66H8.77v1.66Zm-.87,5.95h29.35v-1.66H7.91v1.66Z"/>
      <rect class="cls-1" x="8.77" y="78.75" width="29.35" height="1.66"/>
      <g>
        <path class="cls-1" d="m139.93,78.19h-8.32V4.79l4.38-.57-12.23-3.25h-7.19c-4.37-1.32-6.23-.91-6.23-.91-1.03.03-2.2.09-3.45.19-7.68,2.11-14.62,6.15-18.01,12.37-12.78-.07-26.67,1.29-34.95,3.55,2.74-2.93,6.32-6.37,10.49-9.23-.12.02-.2.04-.2.04-14.27,4.8-21.28,15.82-23.62,20.29-3.44.66-5.39,1.14-5.39,1.14l-4.21,11.19,2.84-.18-3.05,10.4v-6.33h-2.41l-1.56,1.56v10.52c-6.15,1.77-13.04,4.67-18.06,7.36,18.45-4.08,37.08-.88,37.08-.88,0,0-4.59,25.08-4.86,28.67-27.27,2.01-35.36-.33-35.36-.33-.33-5.29-.07-10.1.4-14.19-.34.31-.69.65-1.05,1.05-.01.02-.03.03-.04.05-.19.22-.39.46-.58.71-.04.05-.07.09-.11.13-.18.23-.35.49-.53.75-.05.08-.1.14-.16.22-.16.25-.32.52-.48.79-.06.11-.13.21-.19.32-.14.26-.28.54-.41.82-.07.15-.15.29-.23.45-.13.28-.25.59-.38.9-.07.17-.15.34-.22.52-.13.33-.24.7-.36,1.06-.06.18-.12.34-.18.53-.17.56-.32,1.14-.46,1.76l1.57,1.7-2.22,1.7v14.49s44.28,4.44,64.87,1.09v1.25h7.22c-.28-1.48-.44-3.08-.44-4.76,0-7.39,2.94-13.37,6.57-13.37s6.57,5.99,6.57,13.37c0,1.68-.16,3.28-.44,4.76h4.44l55.67-4.76v-22.09h-4.54v-1.44ZM117.43,6.9c6.66,1.33,7.25,10.06,7.25,10.06-8.58-17.46-23.52,0-23.52,0,2.96-5.33,9.62-11.39,16.27-10.06Zm-27.53,48.89c0-.13.12-.25.25-.25.05,0,.09,0,.14,0,1.56-.04,2.58.9,2.97,2.05l3.91-4.71-7.27.37,3.32-16.91,13.14,1.28v14.8l-7.18.37-5.97,7.19h0c-.35.81-1.06,1.48-2.18,1.71-.36.07-.66.11-.86.12-.14.01-.26-.1-.26-.25v-5.75Zm-3-23.32l-4.08,18.07s-1.22,3.18-8.6,2.8c0,0-10.68-.17-22.52.09l5.39-18.55,29.81-2.41Zm-55.89,22.04l5.35-17.95,17.58-1.42-5.34,18.37c-6.22.18-12.53.48-17.58,1Zm27.58,32.42c-1.3.26-7.67,1.26-14.31,2.3,0,0,0-4.2,2.45-6.71,4.02-2.45,11.09-5.36,12.9-3.97,1.81,1.38.26,8.12-1.04,8.38Zm-13.26-4.85s5.95-12.82,38.46-16.78c0,0,10.93-.68,19.94,1.23,0,0-46.46,5.01-58.4,15.55Zm43.42,10.64l-1.28-1.84,40.37-3.13,5.02,2.51-44.11,2.46Z"/>
        <path class="cls-1" d="m142.63,6.51v68.56h-7.9V7.53l7.9-1.02m3.12-3.55l-14.13,1.83v73.39h14.13V2.96h0Z"/>
      </g>
      <polygon class="cls-1" points="38.99 74.46 38.99 72.8 10.47 72.8 9.64 73.56 9.64 74.46 38.99 74.46"/>
      <rect class="cls-1" x="7.91" y="84.7" width="29.35" height="1.66"/>
    </g>
    <rect class="cls-1" x="96.51" y="37.61" width="5.75" height="14.8"/>
    <polygon class="cls-1" points="94.64 51.45 96.51 52.41 96.51 37.61 94.64 38.56 94.64 51.45"/>
    <polygon class="cls-1" points="242.99 66.63 244.42 58.66 217.99 50.89 245.16 54.51 245.71 51.47 152.25 16.96 248.22 37.46 248.88 33.8 247.46 33.37 145.75 2.96 144.88 73.63 238.82 74.81 236.42 86.35 239.48 86.16 242.99 66.63"/>
  </g>
  <polygon class="cls-1" points="236.61 104.63 110.17 119.11 158.05 119.11 236.52 104.63 236.61 104.63"/>
</svg>